Kodato-Regular.ufo
<glyph name="exclam" format="1">
  <advance width="801"/>
  <unicode hex="0021"/>
  <outline>
    <contour>
      <point x="398" y="539" type="curve" smooth="yes"/>
      <point x="373" y="539"/>
      <point x="348" y="561"/>
      <point x="337" y="607" type="curve" smooth="yes"/>
      <point x="273" y="880"/>
      <point x="145" y="1259"/>
      <point x="145" y="1413" type="curve" smooth="yes"/>
      <point x="145" y="1560"/>
      <point x="270" y="1631"/>
      <point x="396" y="1631" type="curve" smooth="yes"/>
      <point x="525" y="1631"/>
      <point x="656" y="1556"/>
      <point x="656" y="1411" type="curve" smooth="yes"/>
      <point x="656" y="1253"/>
      <point x="521" y="874"/>
      <point x="458" y="607" type="curve" smooth="yes"/>
      <point x="447" y="562"/>
      <point x="423" y="539"/>
    </contour>
    <contour>
      <point x="398" y="-39" type="curve" smooth="yes"/>
      <point x="296" y="-39"/>
      <point x="194" y="31"/>
      <point x="194" y="171" type="curve" smooth="yes"/>
      <point x="194" y="311"/>
      <point x="296" y="381"/>
      <point x="398" y="381" type="curve" smooth="yes"/>
      <point x="500" y="381"/>
      <point x="602" y="311"/>
      <point x="602" y="171" type="curve" smooth="yes"/>
      <point x="602" y="31"/>
      <point x="500" y="-39"/>
    </contour>
  </outline>
</glyph>
<glyph name="quotedbl" format="1">
  <advance width="1213"/>
  <unicode hex="0022"/>
  <outline>
    <contour>
      <point x="335" y="837" type="curve" smooth="yes"/>
      <point x="313" y="837"/>
      <point x="291" y="856"/>
      <point x="280" y="896" type="curve"/>
      <point x="235" y="1090"/>
      <point x="147" y="1349"/>
      <point x="147" y="1454" type="curve" smooth="yes"/>
      <point x="147" y="1572"/>
      <point x="239" y="1629"/>
      <point x="333" y="1629" type="curve" smooth="yes"/>
      <point x="430" y="1629"/>
      <point x="528" y="1568"/>
      <point x="528" y="1452" type="curve" smooth="yes"/>
      <point x="528" y="1344"/>
      <point x="435" y="1086"/>
      <point x="390" y="896" type="curve" smooth="yes"/>
      <point x="381" y="857"/>
      <point x="357" y="837"/>
    </contour>
    <contour>
      <point x="832" y="837" type="curve" smooth="yes"/>
      <point x="810" y="837"/>
      <point x="788" y="856"/>
      <point x="777" y="896" type="curve"/>
      <point x="732" y="1090"/>
      <point x="644" y="1349"/>
      <point x="644" y="1454" type="curve" smooth="yes"/>
      <point x="644" y="1572"/>
      <point x="736" y="1629"/>
      <point x="830" y="1629" type="curve" smooth="yes"/>
      <point x="927" y="1629"/>
      <point x="1025" y="1568"/>
      <point x="1025" y="1452" type="curve" smooth="yes"/>
      <point x="1025" y="1344"/>
      <point x="932" y="1086"/>
      <point x="887" y="896" type="curve" smooth="yes"/>
      <point x="878" y="857"/>
      <point x="854" y="837"/>
    </contour>
  </outline>
</glyph>
<glyph name="numbersign" format="1">
  <advance width="1718"/>
  <unicode hex="0023"/>
  <outline>
    <contour>
      <point x="1583.38" y="545.86" type="line"/>
      <point x="1577.62" y="505.14" type="line" smooth="yes"/>
      <point x="1570.8" y="456.9"/>
      <point x="1539.83" y="430"/>
      <point x="1491.11" y="430" type="curve" smooth="yes"/>
      <point x="1461.6" y="430" type="line" smooth="yes"/>
      <point x="1423.35" y="430"/>
      <point x="1399.05" y="408.859"/>
      <point x="1393.76" y="370.976" type="curve" smooth="yes"/>
      <point x="1352.49" y="75.1316" type="line" smooth="yes"/>
      <point x="1345.76" y="26.8926"/>
      <point x="1314.82" y="-1.52588e-05"/>
      <point x="1266.11" y="-1.52588e-05" type="curve" smooth="yes"/>
      <point x="916.887" y="-1.52588e-05" type="line" smooth="yes"/>
      <point x="870.898" y="-1.52588e-05"/>
      <point x="845.209" y="29.5998"/>
      <point x="851.683" y="75.1316" type="curve" smooth="yes"/>
      <point x="893.61" y="369.998" type="line" smooth="yes"/>
      <point x="898.695" y="405.755"/>
      <point x="878.521" y="429"/>
      <point x="842.404" y="429" type="curve" smooth="yes"/>
      <point x="764.596" y="429" type="line" smooth="yes"/>
      <point x="726.344" y="429"/>
      <point x="702.044" y="407.881"/>
      <point x="696.745" y="369.998" type="curve" smooth="yes"/>
      <point x="655.511" y="75.1316" type="line" smooth="yes"/>
      <point x="648.765" y="26.8923"/>
      <point x="617.821" y="1.52588e-05"/>
      <point x="569.113" y="1.52588e-05" type="curve" smooth="yes"/>
      <point x="218.887" y="1.52588e-05" type="line" smooth="yes"/>
      <point x="172.898" y="1.52588e-05"/>
      <point x="147.209" y="29.5998"/>
      <point x="153.683" y="75.1316" type="curve" smooth="yes"/>
      <point x="195.61" y="369.998" type="line" smooth="yes"/>
      <point x="200.695" y="405.755"/>
      <point x="180.521" y="429"/>
      <point x="144.404" y="429" type="curve" smooth="yes"/>
      <point x="136" y="429" type="line" smooth="yes"/>
      <point x="95.9357" y="429"/>
      <point x="73.4804" y="454.701"/>
      <point x="78.8568" y="494.403" type="curve" smooth="yes"/>
      <point x="86.8751" y="553.615" type="line" smooth="yes"/>
      <point x="92.7279" y="596.836"/>
      <point x="120.384" y="621"/>
      <point x="164" y="621" type="curve" smooth="yes"/>
      <point x="174.404" y="621" type="line" smooth="yes"/>
      <point x="212.64" y="621"/>
      <point x="236.901" y="642.142"/>
      <point x="242.095" y="680.022" type="curve" smooth="yes"/>
      <point x="276.905" y="933.978" type="line" smooth="yes"/>
      <point x="281.817" y="969.804"/>
      <point x="261.566" y="993"/>
      <point x="225.404" y="993" type="curve" smooth="yes"/>
      <point x="210" y="993" type="line" smooth="yes"/>
      <point x="165.737" y="993"/>
      <point x="140.987" y="1021.46"/>
      <point x="147.128" y="1065.29" type="curve" smooth="yes"/>
      <point x="155.525" y="1125.23" type="line" smooth="yes"/>
      <point x="162.249" y="1173.22"/>
      <point x="193.038" y="1200"/>
      <point x="241.5" y="1200" type="curve" smooth="yes"/>
      <point x="259.404" y="1200" type="line" smooth="yes"/>
      <point x="297.637" y="1200"/>
      <point x="321.894" y="1221.17"/>
      <point x="327.072" y="1259.05" type="curve" smooth="yes"/>
      <point x="362.721" y="1519.79" type="line" smooth="yes"/>
      <point x="369.315" y="1568.03"/>
      <point x="400.203" y="1595"/>
      <point x="448.887" y="1595" type="curve" smooth="yes"/>
      <point x="796.113" y="1595" type="line" smooth="yes"/>
      <point x="842.193" y="1595"/>
      <point x="868.036" y="1565.46"/>
      <point x="861.908" y="1519.79" type="curve" smooth="yes"/>
      <point x="826.925" y="1259.05" type="line" smooth="yes"/>
      <point x="822.113" y="1223.18"/>
      <point x="842.408" y="1200"/>
      <point x="878.596" y="1200" type="curve" smooth="yes"/>
      <point x="956.404" y="1200" type="line" smooth="yes"/>
      <point x="994.652" y="1200"/>
      <point x="1018.94" y="1221.16"/>
      <point x="1024.22" y="1259.05" type="curve" smooth="yes"/>
      <point x="1060.53" y="1519.79" type="line" smooth="yes"/>
      <point x="1067.25" y="1568.03"/>
      <point x="1098.18" y="1595"/>
      <point x="1146.89" y="1595" type="curve" smooth="yes"/>
      <point x="1493.11" y="1595" type="line" smooth="yes"/>
      <point x="1539.19" y="1595"/>
      <point x="1565.04" y="1565.46"/>
      <point x="1558.91" y="1519.79" type="curve" smooth="yes"/>
      <point x="1523.93" y="1259.05" type="line" smooth="yes"/>
      <point x="1519.11" y="1223.18"/>
      <point x="1539.41" y="1200"/>
      <point x="1575.6" y="1200" type="curve" smooth="yes"/>
      <point x="1591" y="1200" type="line" smooth="yes"/>
      <point x="1635.2" y="1200"/>
      <point x="1659.85" y="1171.5"/>
      <point x="1653.48" y="1127.76" type="curve" smooth="yes"/>
      <point x="1644.74" y="1067.72" type="line" smooth="yes"/>
      <point x="1637.84" y="1020.36"/>
      <point x="1607.36" y="994"/>
      <point x="1559.5" y="994" type="curve" smooth="yes"/>
      <point x="1542.6" y="994" type="line" smooth="yes"/>
      <point x="1504.35" y="994"/>
      <point x="1480.05" y="972.858"/>
      <point x="1474.77" y="934.975" type="curve" smooth="yes"/>
      <point x="1439.23" y="680.022" type="line" smooth="yes"/>
      <point x="1434.24" y="644.227"/>
      <point x="1454.45" y="621"/>
      <point x="1490.6" y="621" type="curve" smooth="yes"/>
      <point x="1518.11" y="621" type="line" smooth="yes"/>
      <point x="1564.11" y="621"/>
      <point x="1589.82" y="591.406"/>
      <point x="1583.38" y="545.86" type="curve"/>
    </contour>
    <contour>
      <point x="777.75" y="933.978" type="curve" smooth="yes"/>
      <point x="742.25" y="680.022" type="line" smooth="yes"/>
      <point x="737.247" y="644.232"/>
      <point x="757.458" y="621"/>
      <point x="793.596" y="621" type="curve" smooth="yes"/>
      <point x="871.404" y="621" type="line" smooth="yes"/>
      <point x="909.656" y="621"/>
      <point x="933.955" y="642.139"/>
      <point x="939.25" y="680.022" type="curve" smooth="yes"/>
      <point x="974.75" y="933.978" type="line" smooth="yes"/>
      <point x="979.753" y="969.768"/>
      <point x="959.542" y="993"/>
      <point x="923.404" y="993" type="curve" smooth="yes"/>
      <point x="845.596" y="993" type="line" smooth="yes"/>
      <point x="807.344" y="993"/>
      <point x="783.045" y="971.861"/>
    </contour>
  </outline>
</glyph>
<glyph name="dollar" format="1">
  <advance width="1434"/>
  <unicode hex="0024"/>
  <outline>
    <contour>
      <point x="725.5" y="-168" type="line"/>
      <point x="723.5" y="-168" type="line" smooth="yes"/>
      <point x="699.407" y="-168"/>
      <point x="685" y="-153.593"/>
      <point x="685" y="-129.5" type="curve" smooth="yes"/>
      <point x="685" y="-38.2354" type="line" smooth="yes"/>
      <point x="685" y="-0.323837"/>
      <point x="663.331" y="21.9424"/>
      <point x="625.434" y="22.9738" type="curve" smooth="yes"/>
      <point x="499.472" y="26.4017"/>
      <point x="391.978" y="38.9412"/>
      <point x="301" y="71" type="curve" smooth="yes"/>
      <point x="165.773" y="119.041"/>
      <point x="103.363" y="214.57"/>
      <point x="99.6846" y="406.174" type="curve" smooth="yes"/>
      <point x="98.8198" y="451.223"/>
      <point x="129.123" y="480.197"/>
      <point x="174.088" y="477.313" type="curve" smooth="yes"/>
      <point x="524.268" y="454.857" type="line" smooth="yes"/>
      <point x="572.253" y="451.779"/>
      <point x="600" y="422.196"/>
      <point x="600" y="374.113" type="curve" smooth="yes"/>
      <point x="600" y="324.5" type="line" smooth="yes"/>
      <point x="600" y="298.529"/>
      <point x="615.529" y="283"/>
      <point x="641.5" y="283" type="curve" smooth="yes"/>
      <point x="643.5" y="283" type="line" smooth="yes"/>
      <point x="669.471" y="283"/>
      <point x="685" y="298.529"/>
      <point x="685" y="324.5" type="curve" smooth="yes"/>
      <point x="685" y="525.951" type="line" smooth="yes"/>
      <point x="685" y="564.799"/>
      <point x="664.552" y="589.55"/>
      <point x="626.402" y="596.881" type="curve" smooth="yes"/>
      <point x="350.691" y="649.861"/>
      <point x="70" y="735.481"/>
      <point x="70" y="1080" type="curve" smooth="yes"/>
      <point x="70" y="1439.85"/>
      <point x="307.822" y="1528.16"/>
      <point x="625.473" y="1542.2" type="curve" smooth="yes"/>
      <point x="663.602" y="1543.89"/>
      <point x="685" y="1566.26"/>
      <point x="685" y="1604.42" type="curve" smooth="yes"/>
      <point x="685" y="1691.5" type="line" smooth="yes"/>
      <point x="685" y="1715.59"/>
      <point x="699.407" y="1730"/>
      <point x="723.5" y="1730" type="curve" smooth="yes"/>
      <point x="725.5" y="1730" type="line" smooth="yes"/>
      <point x="749.593" y="1730"/>
      <point x="764" y="1715.59"/>
      <point x="764" y="1691.5" type="curve" smooth="yes"/>
      <point x="764" y="1605.22" type="line" smooth="yes"/>
      <point x="764" y="1567.31"/>
      <point x="785.663" y="1545.05"/>
      <point x="823.555" y="1544.02" type="curve" smooth="yes"/>
      <point x="947.7" y="1540.62"/>
      <point x="1054.2" y="1528.54"/>
      <point x="1145" y="1500" type="curve"/>
      <point x="1316.74" y="1443.9"/>
      <point x="1349.95" y="1322.26"/>
      <point x="1348.75" y="1167.86" type="curve" smooth="yes"/>
      <point x="1348.4" y="1122.07"/>
      <point x="1318.02" y="1093.68"/>
      <point x="1272.31" y="1096.43" type="curve" smooth="yes"/>
      <point x="922.751" y="1117.45" type="line" smooth="yes"/>
      <point x="874.789" y="1120.33"/>
      <point x="847" y="1149.84"/>
      <point x="847" y="1197.89" type="curve" smooth="yes"/>
      <point x="847" y="1242.5" type="line" smooth="yes"/>
      <point x="847" y="1267.84"/>
      <point x="831.845" y="1283"/>
      <point x="806.5" y="1283" type="curve" smooth="yes"/>
      <point x="804.5" y="1283" type="line" smooth="yes"/>
      <point x="779.155" y="1283"/>
      <point x="764" y="1267.84"/>
      <point x="764" y="1242.5" type="curve" smooth="yes"/>
      <point x="764" y="1056.92" type="line" smooth="yes"/>
      <point x="764" y="1018.12"/>
      <point x="784.415" y="993.171"/>
      <point x="822.45" y="985.499" type="curve" smooth="yes"/>
      <point x="1091.35" y="931.258"/>
      <point x="1378" y="848.318"/>
      <point x="1378" y="510" type="curve" smooth="yes"/>
      <point x="1378" y="142.556"/>
      <point x="1170.8" y="40.5788"/>
      <point x="823.555" y="24.8596" type="curve" smooth="yes"/>
      <point x="785.383" y="23.1317"/>
      <point x="764" y="0.731979"/>
      <point x="764" y="-37.4792" type="curve" smooth="yes"/>
      <point x="764" y="-129.5" type="line" smooth="yes"/>
      <point x="764" y="-153.593"/>
      <point x="749.593" y="-168"/>
      <point x="725.5" y="-168" type="curve"/>
    </contour>
    <contour>
      <point x="847" y="323.5" type="line"/>
      <point x="847" y="514.736" type="line" smooth="yes"/>
      <point x="847" y="541.431"/>
      <point x="832.713" y="558.758"/>
      <point x="806.5" y="563.811" type="curve" smooth="yes"/>
      <point x="804.5" y="564.189" type="line" smooth="yes"/>
      <point x="780.257" y="568.863"/>
      <point x="764" y="555.425"/>
      <point x="764" y="530.736" type="curve" smooth="yes"/>
      <point x="764" y="323.5" type="line" smooth="yes"/>
      <point x="764" y="298.155"/>
      <point x="779.155" y="283"/>
      <point x="804.5" y="283" type="curve" smooth="yes"/>
      <point x="806.5" y="283" type="line" smooth="yes"/>
      <point x="831.845" y="283"/>
      <point x="847" y="298.155"/>
      <point x="847" y="323.5" type="curve" smooth="yes"/>
    </contour>
    <contour>
      <point x="600" y="1241.5" type="line"/>
      <point x="600" y="1073.55" type="line" smooth="yes"/>
      <point x="600" y="1045.77"/>
      <point x="614.378" y="1027.71"/>
      <point x="641.448" y="1021.48" type="curve" smooth="yes"/>
      <point x="642.113" y="1021.33"/>
      <point x="642.78" y="1021.18"/>
      <point x="643.447" y="1021.02" type="curve" smooth="yes"/>
      <point x="667.688" y="1015.46"/>
      <point x="685" y="1029.25"/>
      <point x="685" y="1054.12" type="curve" smooth="yes"/>
      <point x="685" y="1241.5" type="line" smooth="yes"/>
      <point x="685" y="1267.47"/>
      <point x="669.471" y="1283"/>
      <point x="643.5" y="1283" type="curve" smooth="yes"/>
      <point x="641.5" y="1283" type="line" smooth="yes"/>
      <point x="615.529" y="1283"/>
      <point x="600" y="1267.47"/>
      <point x="600" y="1241.5" type="curve" smooth="yes"/>
    </contour>
  </outline>
</glyph>
<glyph name="percent" format="1">
  <advance width="2792"/>
  <unicode hex="0025"/>
  <outline>
    <contour>
      <point x="623" y="877.5" type="curve" smooth="yes"/>
      <point x="623" y="1333.5" type="line" smooth="yes"/>
      <point x="623" y="1361.35"/>
      <point x="606.348" y="1378"/>
      <point x="578.5" y="1378" type="curve" smooth="yes"/>
      <point x="576.5" y="1378" type="line" smooth="yes"/>
      <point x="548.652" y="1378"/>
      <point x="532" y="1361.35"/>
      <point x="532" y="1333.5" type="curve" smooth="yes"/>
      <point x="532" y="877.5" type="line" smooth="yes"/>
      <point x="532" y="849.652"/>
      <point x="548.652" y="833"/>
      <point x="576.5" y="833" type="curve" smooth="yes"/>
      <point x="578.5" y="833" type="line" smooth="yes"/>
      <point x="606.348" y="833"/>
      <point x="623" y="849.652"/>
    </contour>
    <contour>
      <point x="1025" y="929" type="line" smooth="yes"/>
      <point x="1025" y="630"/>
      <point x="798" y="618"/>
      <point x="575" y="618" type="curve" smooth="yes"/>
      <point x="349" y="618"/>
      <point x="125" y="623"/>
      <point x="125" y="927" type="curve" smooth="yes"/>
      <point x="125" y="1286" type="line" smooth="yes"/>
      <point x="125" y="1577"/>
      <point x="352" y="1595"/>
      <point x="574" y="1595" type="curve" smooth="yes"/>
      <point x="795" y="1595"/>
      <point x="1025" y="1578"/>
      <point x="1025" y="1288" type="curve" smooth="yes"/>
    </contour>
    <contour>
      <point x="2262" y="391" type="curve" smooth="yes"/>
      <point x="2262" y="848" type="line" smooth="yes"/>
      <point x="2262" y="875.535"/>
      <point x="2245.54" y="892"/>
      <point x="2218" y="892" type="curve" smooth="yes"/>
      <point x="2216" y="892" type="line" smooth="yes"/>
      <point x="2188.46" y="892"/>
      <point x="2172" y="875.535"/>
      <point x="2172" y="848" type="curve" smooth="yes"/>
      <point x="2172" y="391" type="line" smooth="yes"/>
      <point x="2172" y="363.465"/>
      <point x="2188.46" y="347"/>
      <point x="2216" y="347" type="curve" smooth="yes"/>
      <point x="2218" y="347" type="line" smooth="yes"/>
      <point x="2245.54" y="347"/>
      <point x="2262" y="363.465"/>
    </contour>
    <contour>
      <point x="2665" y="442" type="line" smooth="yes"/>
      <point x="2665" y="153"/>
      <point x="2436" y="129"/>
      <point x="2215" y="129" type="curve" smooth="yes"/>
      <point x="1990" y="129"/>
      <point x="1765" y="146"/>
      <point x="1765" y="441" type="curve" smooth="yes"/>
      <point x="1765" y="798" type="line" smooth="yes"/>
      <point x="1765" y="1091"/>
      <point x="1990" y="1109"/>
      <point x="2214" y="1109" type="curve" smooth="yes"/>
      <point x="2437" y="1109"/>
      <point x="2665" y="1092"/>
      <point x="2665" y="799" type="curve" smooth="yes"/>
    </contour>
    <contour>
      <point x="1470.89" y="1632" type="line"/>
      <point x="1703.11" y="1632" type="line" smooth="yes"/>
      <point x="1748.13" y="1632"/>
      <point x="1772.22" y="1601.89"/>
      <point x="1762.34" y="1557.96" type="curve" smooth="yes"/>
      <point x="1419.66" y="35.0362" type="line" smooth="yes"/>
      <point x="1408.83" y="-13.0694"/>
      <point x="1376.42" y="-39"/>
      <point x="1327.11" y="-39" type="curve" smooth="yes"/>
      <point x="1090.89" y="-39" type="line" smooth="yes"/>
      <point x="1045.9" y="-39"/>
      <point x="1021.85" y="-8.87378"/>
      <point x="1031.83" y="34.998" type="curve" smooth="yes"/>
      <point x="1378.17" y="1558" type="line" smooth="yes"/>
      <point x="1389.11" y="1606.1"/>
      <point x="1421.56" y="1632"/>
      <point x="1470.89" y="1632" type="curve"/>
    </contour>
  </outline>
</glyph>
<glyph name="ampersand" format="1">
  <advance width="1653"/>
  <unicode hex="0026"/>
  <outline>
    <contour>
      <point x="746.596" y="224" type="curve" smooth="yes"/>
      <point x="836.404" y="224" type="line" smooth="yes"/>
      <point x="873.699" y="224"/>
      <point x="896" y="246.301"/>
      <point x="896" y="283.596" type="curve" smooth="yes"/>
      <point x="896" y="676.404" type="line" smooth="yes"/>
      <point x="896" y="713.699"/>
      <point x="873.699" y="736"/>
      <point x="836.404" y="736" type="curve" smooth="yes"/>
      <point x="746.596" y="736" type="line" smooth="yes"/>
      <point x="709.301" y="736"/>
      <point x="687" y="713.699"/>
      <point x="687" y="676.404" type="curve" smooth="yes"/>
      <point x="687" y="283.596" type="line" smooth="yes"/>
      <point x="687" y="246.301"/>
      <point x="709.301" y="224"/>
    </contour>
    <contour>
      <point x="359" y="840.5" type="line"/>
      <point x="359" y="842.5" type="line" smooth="yes"/>
      <point x="359" y="854.311"/>
      <point x="352.349" y="861.713"/>
      <point x="340.605" y="862.971" type="curve" smooth="yes"/>
      <point x="247" y="873" type="line" smooth="yes"/>
      <point x="180" y="880"/>
      <point x="84" y="958"/>
      <point x="84" y="1198" type="curve" smooth="yes"/>
      <point x="84" y="1594"/>
      <point x="453" y="1632"/>
      <point x="806" y="1632" type="curve" smooth="yes"/>
      <point x="1220" y="1632"/>
      <point x="1442" y="1522"/>
      <point x="1442" y="1238" type="curve" smooth="yes"/>
      <point x="1442" y="1228.92"/>
      <point x="1441.71" y="1219.55"/>
      <point x="1440.99" y="1209.9" type="curve" smooth="yes"/>
      <point x="1439.82" y="1194.21"/>
      <point x="1428.81" y="1184"/>
      <point x="1413.08" y="1184" type="curve" smooth="yes"/>
      <point x="968.887" y="1184" type="line" smooth="yes"/>
      <point x="921.397" y="1184"/>
      <point x="893" y="1212.4"/>
      <point x="893" y="1259.89" type="curve" smooth="yes"/>
      <point x="893" y="1332.4" type="line" smooth="yes"/>
      <point x="893" y="1369.7"/>
      <point x="870.699" y="1392"/>
      <point x="833.404" y="1392" type="curve" smooth="yes"/>
      <point x="746.596" y="1392" type="line" smooth="yes"/>
      <point x="709.301" y="1392"/>
      <point x="687" y="1369.7"/>
      <point x="687" y="1332.4" type="curve" smooth="yes"/>
      <point x="687" y="988.596" type="line" smooth="yes"/>
      <point x="687" y="951.301"/>
      <point x="709.301" y="929"/>
      <point x="746.596" y="929" type="curve" smooth="yes"/>
      <point x="836.404" y="929" type="line" smooth="yes"/>
      <point x="873.699" y="929"/>
      <point x="896" y="951.301"/>
      <point x="896" y="988.596" type="curve" smooth="yes"/>
      <point x="896" y="999.5" type="line" smooth="yes"/>
      <point x="896" y="1042.37"/>
      <point x="921.633" y="1068"/>
      <point x="964.5" y="1068" type="curve" smooth="yes"/>
      <point x="1373.5" y="1068" type="line" smooth="yes"/>
      <point x="1416.37" y="1068"/>
      <point x="1442" y="1042.37"/>
      <point x="1442" y="999.5" type="curve" smooth="yes"/>
      <point x="1442" y="988.596" type="line" smooth="yes"/>
      <point x="1442" y="951.301"/>
      <point x="1464.3" y="929"/>
      <point x="1501.6" y="929" type="curve" smooth="yes"/>
      <point x="1518.5" y="929" type="line" smooth="yes"/>
      <point x="1565.12" y="929"/>
      <point x="1593" y="901.122"/>
      <point x="1593" y="854.5" type="curve" smooth="yes"/>
      <point x="1593" y="810.5" type="line" smooth="yes"/>
      <point x="1593" y="763.878"/>
      <point x="1565.12" y="736"/>
      <point x="1518.5" y="736" type="curve" smooth="yes"/>
      <point x="1501.6" y="736" type="line" smooth="yes"/>
      <point x="1464.3" y="736"/>
      <point x="1442" y="713.699"/>
      <point x="1442" y="676.404" type="curve" smooth="yes"/>
      <point x="1442" y="513" type="line" smooth="yes"/>
      <point x="1442" y="75"/>
      <point x="1312" y="-40"/>
      <point x="766" y="-40" type="curve" smooth="yes"/>
      <point x="361" y="-40"/>
      <point x="85" y="16"/>
      <point x="85" y="456" type="curve" smooth="yes"/>
      <point x="85" y="569"/>
      <point x="126" y="795"/>
      <point x="247" y="809" type="curve" smooth="yes"/>
      <point x="340.605" y="819.867" type="line" smooth="yes"/>
      <point x="352.355" y="821.231"/>
      <point x="359" y="828.671"/>
      <point x="359" y="840.5" type="curve" smooth="yes"/>
    </contour>
  </outline>
</glyph>
<glyph name="quotesingle" format="1">
  <advance width="629"/>
  <unicode hex="0027"/>
  <outline>
    <contour>
      <point x="335" y="837" type="curve" smooth="yes"/>
      <point x="313" y="837"/>
      <point x="291" y="856"/>
      <point x="280" y="896" type="curve"/>
      <point x="235" y="1090"/>
      <point x="147" y="1349"/>
      <point x="147" y="1454" type="curve" smooth="yes"/>
      <point x="147" y="1572"/>
      <point x="239" y="1629"/>
      <point x="333" y="1629" type="curve" smooth="yes"/>
      <point x="430" y="1629"/>
      <point x="528" y="1568"/>
      <point x="528" y="1452" type="curve" smooth="yes"/>
      <point x="528" y="1344"/>
      <point x="435" y="1086"/>
      <point x="390" y="896" type="curve" smooth="yes"/>
      <point x="381" y="857"/>
      <point x="357" y="837"/>
    </contour>
  </outline>
</glyph>
<glyph name="parenleft" format="1">
  <advance width="860"/>
  <unicode hex="0028"/>
  <outline>
    <contour>
      <point x="678" y="-169" type="line" smooth="yes"/>
      <point x="253" y="-169"/>
      <point x="51" y="326"/>
      <point x="51" y="827" type="curve" smooth="yes"/>
      <point x="51" y="1328"/>
      <point x="253" y="1841"/>
      <point x="678" y="1841" type="curve" smooth="yes"/>
      <point x="725.5" y="1841" type="line" smooth="yes"/>
      <point x="753.974" y="1841"/>
      <point x="771" y="1823.97"/>
      <point x="771" y="1795.5" type="curve" smooth="yes"/>
      <point x="771" y="1593.5" type="line" smooth="yes"/>
      <point x="771" y="1573.79"/>
      <point x="759.213" y="1562"/>
      <point x="739.5" y="1562" type="curve" smooth="yes"/>
      <point x="706" y="1562" type="line" smooth="yes"/>
      <point x="545" y="1562"/>
      <point x="453" y="1188"/>
      <point x="453" y="827" type="curve" smooth="yes"/>
      <point x="453" y="466"/>
      <point x="545" y="110"/>
      <point x="706" y="110" type="curve" smooth="yes"/>
      <point x="739.5" y="110" type="line" smooth="yes"/>
      <point x="759.213" y="110"/>
      <point x="771" y="98.2127"/>
      <point x="771" y="78.5" type="curve" smooth="yes"/>
      <point x="771" y="-123.5" type="line" smooth="yes"/>
      <point x="771" y="-151.974"/>
      <point x="753.974" y="-169"/>
      <point x="725.5" y="-169" type="curve" smooth="yes"/>
    </contour>
  </outline>
</glyph>
<glyph name="parenright" format="1">
  <advance width="861"/>
  <unicode hex="0029"/>
  <outline>
    <contour>
      <point x="183" y="1841" type="line" smooth="yes"/>
      <point x="608" y="1841"/>
      <point x="810" y="1328"/>
      <point x="810" y="827" type="curve" smooth="yes"/>
      <point x="810" y="326"/>
      <point x="608" y="-169"/>
      <point x="183" y="-169" type="curve" smooth="yes"/>
      <point x="135.5" y="-169" type="line" smooth="yes"/>
      <point x="107.026" y="-169"/>
      <point x="90" y="-151.974"/>
      <point x="90" y="-123.5" type="curve" smooth="yes"/>
      <point x="90" y="78.5" type="line" smooth="yes"/>
      <point x="90" y="98.2127"/>
      <point x="101.787" y="110"/>
      <point x="121.5" y="110" type="curve" smooth="yes"/>
      <point x="155" y="110" type="line" smooth="yes"/>
      <point x="316" y="110"/>
      <point x="408" y="466"/>
      <point x="408" y="827" type="curve" smooth="yes"/>
      <point x="408" y="1188"/>
      <point x="316" y="1562"/>
      <point x="155" y="1562" type="curve" smooth="yes"/>
      <point x="121.5" y="1562" type="line" smooth="yes"/>
      <point x="101.787" y="1562"/>
      <point x="90" y="1573.79"/>
      <point x="90" y="1593.5" type="curve" smooth="yes"/>
      <point x="90" y="1795.5" type="line" smooth="yes"/>
      <point x="90" y="1823.97"/>
      <point x="107.026" y="1841"/>
      <point x="135.5" y="1841" type="curve" smooth="yes"/>
    </contour>
  </outline>
</glyph>
<glyph name="asterisk" format="1">
  <advance width="1321"/>
  <unicode hex="002A"/>
  <outline>
    <contour>
      <point x="877" y="430" type="curve" smooth="yes"/>
      <point x="838" y="430"/>
      <point x="800" y="447"/>
      <point x="775" y="489" type="curve" smooth="yes"/>
      <point x="743.966" y="540.724"/>
      <point x="711.445" y="662.303"/>
      <point x="678.72" y="782.628" type="curve" smooth="yes"/>
      <point x="672.668" y="804.88"/>
      <point x="653.333" y="804.83"/>
      <point x="647.391" y="782.533" type="curve" smooth="yes"/>
      <point x="591.434" y="572.562"/>
      <point x="562.052" y="430"/>
      <point x="450" y="430" type="curve" smooth="yes"/>
      <point x="368" y="430"/>
      <point x="282" y="502"/>
      <point x="282" y="581" type="curve" smooth="yes"/>
      <point x="282" y="650.057"/>
      <point x="383.347" y="743.245"/>
      <point x="507.411" y="858.399" type="curve" smooth="yes"/>
      <point x="523.378" y="873.219"/>
      <point x="514.619" y="888.793"/>
      <point x="493.646" y="882.894" type="curve" smooth="yes"/>
      <point x="375.248" y="849.588"/>
      <point x="257.381" y="817"/>
      <point x="198" y="817" type="curve" smooth="yes"/>
      <point x="113" y="817"/>
      <point x="73" y="889"/>
      <point x="73" y="962" type="curve" smooth="yes"/>
      <point x="73" y="1037"/>
      <point x="116" y="1112"/>
      <point x="199" y="1112" type="curve" smooth="yes"/>
      <point x="259.964" y="1112"/>
      <point x="376.96" y="1077.32"/>
      <point x="493.646" y="1043.47" type="curve" smooth="yes"/>
      <point x="514.846" y="1037.32"/>
      <point x="523.91" y="1053.08"/>
      <point x="507.981" y="1068.31" type="curve" smooth="yes"/>
      <point x="380.255" y="1190.48"/>
      <point x="282" y="1282.51"/>
      <point x="282" y="1351" type="curve" smooth="yes"/>
      <point x="282" y="1431"/>
      <point x="369" y="1497"/>
      <point x="450" y="1497" type="curve" smooth="yes"/>
      <point x="490" y="1497"/>
      <point x="529" y="1480"/>
      <point x="553" y="1440" type="curve" smooth="yes"/>
      <point x="585.805" y="1384.75"/>
      <point x="617.119" y="1260.19"/>
      <point x="648.229" y="1137.74" type="curve" smooth="yes"/>
      <point x="653.785" y="1115.87"/>
      <point x="672.445" y="1115.82"/>
      <point x="678.1" y="1137.63" type="curve" smooth="yes"/>
      <point x="709.863" y="1260.12"/>
      <point x="741.186" y="1384.73"/>
      <point x="774" y="1440" type="curve" smooth="yes"/>
      <point x="798" y="1480"/>
      <point x="836" y="1497"/>
      <point x="877" y="1497" type="curve" smooth="yes"/>
      <point x="957" y="1497"/>
      <point x="1045" y="1430"/>
      <point x="1045" y="1351" type="curve" smooth="yes"/>
      <point x="1045" y="1282.58"/>
      <point x="944.5" y="1189.84"/>
      <point x="817.925" y="1068.42" type="curve" smooth="yes"/>
      <point x="801.972" y="1053.11"/>
      <point x="811.084" y="1037.32"/>
      <point x="832.308" y="1043.47" type="curve" smooth="yes"/>
      <point x="949.236" y="1077.33"/>
      <point x="1067.02" y="1112"/>
      <point x="1128" y="1112" type="curve" smooth="yes"/>
      <point x="1211" y="1112"/>
      <point x="1254" y="1037"/>
      <point x="1254" y="962" type="curve" smooth="yes"/>
      <point x="1254" y="889"/>
      <point x="1214" y="817"/>
      <point x="1128" y="817" type="curve" smooth="yes"/>
      <point x="1068.64" y="817"/>
      <point x="950.795" y="850.309"/>
      <point x="832.431" y="883.175" type="curve" smooth="yes"/>
      <point x="811.276" y="889.049"/>
      <point x="802.413" y="873.24"/>
      <point x="818.491" y="858.229" type="curve" smooth="yes"/>
      <point x="941.932" y="742.984"/>
      <point x="1044" y="649.133"/>
      <point x="1044" y="581" type="curve" smooth="yes"/>
      <point x="1044" y="500"/>
      <point x="957" y="430"/>
    </contour>
  </outline>
</glyph>
<glyph name="plus" format="1">
  <advance width="1328"/>
  <unicode hex="002B"/>
  <outline>
    <contour>
      <point x="179.887" y="811" type="line"/>
      <point x="409.404" y="811" type="line" smooth="yes"/>
      <point x="446.699" y="811"/>
      <point x="469" y="833.301"/>
      <point x="469" y="870.596" type="curve" smooth="yes"/>
      <point x="469" y="1116.11" type="line" smooth="yes"/>
      <point x="469" y="1163.6"/>
      <point x="497.397" y="1192"/>
      <point x="544.887" y="1192" type="curve" smooth="yes"/>
      <point x="785.113" y="1192" type="line" smooth="yes"/>
      <point x="832.603" y="1192"/>
      <point x="861" y="1163.6"/>
      <point x="861" y="1116.11" type="curve" smooth="yes"/>
      <point x="861" y="870.596" type="line" smooth="yes"/>
      <point x="861" y="833.301"/>
      <point x="883.301" y="811"/>
      <point x="920.596" y="811" type="curve" smooth="yes"/>
      <point x="1149.11" y="811" type="line" smooth="yes"/>
      <point x="1196.6" y="811"/>
      <point x="1225" y="782.603"/>
      <point x="1225" y="735.113" type="curve" smooth="yes"/>
      <point x="1225" y="553.887" type="line" smooth="yes"/>
      <point x="1225" y="506.397"/>
      <point x="1196.6" y="478"/>
      <point x="1149.11" y="478" type="curve" smooth="yes"/>
      <point x="920.596" y="478" type="line" smooth="yes"/>
      <point x="883.301" y="478"/>
      <point x="861" y="455.699"/>
      <point x="861" y="418.404" type="curve" smooth="yes"/>
      <point x="861" y="175.887" type="line" smooth="yes"/>
      <point x="861" y="128.397"/>
      <point x="832.603" y="100"/>
      <point x="785.113" y="100" type="curve" smooth="yes"/>
      <point x="544.887" y="100" type="line" smooth="yes"/>
      <point x="497.397" y="100"/>
      <point x="469" y="128.397"/>
      <point x="469" y="175.887" type="curve" smooth="yes"/>
      <point x="469" y="418.404" type="line" smooth="yes"/>
      <point x="469" y="455.699"/>
      <point x="446.699" y="478"/>
      <point x="409.404" y="478" type="curve" smooth="yes"/>
      <point x="179.887" y="478" type="line" smooth="yes"/>
      <point x="132.397" y="478"/>
      <point x="104" y="506.397"/>
      <point x="104" y="553.887" type="curve" smooth="yes"/>
      <point x="104" y="735.113" type="line" smooth="yes"/>
      <point x="104" y="782.603"/>
      <point x="132.397" y="811"/>
      <point x="179.887" y="811" type="curve"/>
    </contour>
  </outline>
</glyph>
<glyph name="comma" format="1">
  <advance width="711"/>
  <unicode hex="002C"/>
  <outline>
    <contour>
      <point x="262.191" y="14.5872" type="line"/>
      <point x="194.214" y="42.5593"/>
      <point x="141" y="107.526"/>
      <point x="141" y="209" type="curve" smooth="yes"/>
      <point x="141" y="342"/>
      <point x="243" y="409"/>
      <point x="345" y="409" type="curve" smooth="yes"/>
      <point x="489" y="409"/>
      <point x="555" y="298"/>
      <point x="555" y="169" type="curve" smooth="yes"/>
      <point x="555" y="-15"/>
      <point x="429" y="-234"/>
      <point x="208" y="-234" type="curve" smooth="yes"/>
      <point x="200.562" y="-234"/>
      <point x="192.843" y="-233.718"/>
      <point x="184.991" y="-233.153" type="curve" smooth="yes"/>
      <point x="172.169" y="-232.232"/>
      <point x="164" y="-223.454"/>
      <point x="164" y="-210.599" type="curve" smooth="yes"/>
      <point x="164" y="-182.905" type="line" smooth="yes"/>
      <point x="164" y="-142.475"/>
      <point x="176.587" y="-125.888"/>
      <point x="217.003" y="-114.594" type="curve" smooth="yes"/>
      <point x="240.538" y="-108.018"/>
      <point x="261.712" y="-97.1565"/>
      <point x="278.679" y="-82.3521" type="curve" smooth="yes"/>
      <point x="307.96" y="-56.8034"/>
      <point x="298.656" y="-0.418213"/>
      <point x="262.191" y="14.5872" type="curve"/>
    </contour>
  </outline>
</glyph>
<glyph name="hyphen" format="1">
  <advance width="1328"/>
  <unicode hex="002D"/>
  <outline>
    <contour>
      <point x="239.887" y="811" type="line"/>
      <point x="1089.11" y="811" type="line" smooth="yes"/>
      <point x="1136.6" y="811"/>
      <point x="1165" y="782.603"/>
      <point x="1165" y="735.113" type="curve" smooth="yes"/>
      <point x="1165" y="553.887" type="line" smooth="yes"/>
      <point x="1165" y="506.397"/>
      <point x="1136.6" y="478"/>
      <point x="1089.11" y="478" type="curve" smooth="yes"/>
      <point x="239.887" y="478" type="line" smooth="yes"/>
      <point x="192.397" y="478"/>
      <point x="164" y="506.397"/>
      <point x="164" y="553.887" type="curve" smooth="yes"/>
      <point x="164" y="735.113" type="line" smooth="yes"/>
      <point x="164" y="782.603"/>
      <point x="192.397" y="811"/>
      <point x="239.887" y="811" type="curve" smooth="yes"/>
    </contour>
  </outline>
</glyph>
<glyph name="slash" format="1">
  <advance width="1056"/>
  <unicode hex="002F"/>
  <outline>
    <contour>
      <point x="495.113" y="0" type="line"/>
      <point x="211.887" y="0" type="line" smooth="yes"/>
      <point x="166.815" y="0"/>
      <point x="142.641" y="30.0905"/>
      <point x="152.354" y="74.1042" type="curve" smooth="yes"/>
      <point x="471.646" y="1520.89" type="line" smooth="yes"/>
      <point x="482.266" y="1569.01"/>
      <point x="514.607" y="1595"/>
      <point x="563.887" y="1595" type="curve" smooth="yes"/>
      <point x="846.113" y="1595" type="line" smooth="yes"/>
      <point x="891.193" y="1595"/>
      <point x="915.379" y="1564.91"/>
      <point x="905.69" y="1520.89" type="curve" smooth="yes"/>
      <point x="587.31" y="74.1042" type="line" smooth="yes"/>
      <point x="576.719" y="25.9792"/>
      <point x="544.389" y="0"/>
      <point x="495.113" y="0" type="curve" smooth="yes"/>
    </contour>
  </outline>
</glyph>
<glyph name="zero" format="1">
  <advance width="1469"/>
  <unicode hex="0030"/>
  <outline>
    <contour>
      <point x="653" y="1299.4" type="line"/>
      <point x="653" y="292.596" type="line" smooth="yes"/>
      <point x="653" y="255.301"/>
      <point x="675.301" y="233"/>
      <point x="712.596" y="233" type="curve" smooth="yes"/>
      <point x="759.404" y="233" type="line" smooth="yes"/>
      <point x="796.699" y="233"/>
      <point x="819" y="255.301"/>
      <point x="819" y="292.596" type="curve" smooth="yes"/>
      <point x="819" y="1299.4" type="line" smooth="yes"/>
      <point x="819" y="1336.7"/>
      <point x="796.699" y="1359"/>
      <point x="759.404" y="1359" type="curve" smooth="yes"/>
      <point x="712.596" y="1359" type="line" smooth="yes"/>
      <point x="675.301" y="1359"/>
      <point x="653" y="1336.7"/>
      <point x="653" y="1299.4" type="curve" smooth="yes"/>
    </contour>
    <contour>
      <point x="1383" y="352" type="line" smooth="yes"/>
      <point x="1383" y="-25"/>
      <point x="1051" y="-39"/>
      <point x="739" y="-39" type="curve" smooth="yes"/>
      <point x="422" y="-39"/>
      <point x="89" y="-14"/>
      <point x="89" y="352" type="curve" smooth="yes"/>
      <point x="89" y="1242" type="line" smooth="yes"/>
      <point x="89" y="1610"/>
      <point x="429" y="1633"/>
      <point x="738" y="1633" type="curve" smooth="yes"/>
      <point x="1056" y="1633"/>
      <point x="1383" y="1603"/>
      <point x="1383" y="1242" type="curve" smooth="yes"/>
    </contour>
  </outline>
</glyph>
<glyph name="one" format="1">
  <advance width="961"/>
  <unicode hex="0031"/>
  <outline>
    <contour>
      <point x="41" y="1366.89" type="line"/>
      <point x="41" y="1431.57" type="line" smooth="yes"/>
      <point x="41" y="1482.3"/>
      <point x="66.2596" y="1509.85"/>
      <point x="116.794" y="1514.25" type="curve" smooth="yes"/>
      <point x="191.902" y="1520.79"/>
      <point x="260.869" y="1537.01"/>
      <point x="320.088" y="1561.2" type="curve" smooth="yes"/>
      <point x="381.753" y="1586.39"/>
      <point x="425.599" y="1595"/>
      <point x="492.212" y="1595" type="curve" smooth="yes"/>
      <point x="790.113" y="1595" type="line" smooth="yes"/>
      <point x="837.603" y="1595"/>
      <point x="866" y="1566.6"/>
      <point x="866" y="1519.11" type="curve" smooth="yes"/>
      <point x="866" y="75.8873" type="line" smooth="yes"/>
      <point x="866" y="28.397"/>
      <point x="837.603" y="-1.52588e-05"/>
      <point x="790.113" y="-1.52588e-05" type="curve" smooth="yes"/>
      <point x="337.887" y="-1.52588e-05" type="line" smooth="yes"/>
      <point x="290.397" y="-1.52588e-05"/>
      <point x="262" y="28.397"/>
      <point x="262" y="75.8873" type="curve" smooth="yes"/>
      <point x="262" y="1231.4" type="line" smooth="yes"/>
      <point x="262" y="1268.7"/>
      <point x="239.699" y="1291"/>
      <point x="202.404" y="1291" type="curve" smooth="yes"/>
      <point x="116.887" y="1291" type="line" smooth="yes"/>
      <point x="69.397" y="1291"/>
      <point x="41" y="1319.4"/>
      <point x="41" y="1366.89" type="curve"/>
    </contour>
  </outline>
</glyph>
<glyph name="two" format="1">
  <advance width="1403"/>
  <unicode hex="0032"/>
  <outline>
    <contour>
      <point x="554.113" y="1064" type="line"/>
      <point x="106.878" y="1064" type="line" smooth="yes"/>
      <point x="88.6316" y="1064"/>
      <point x="77.4643" y="1074.73"/>
      <point x="76.7383" y="1092.96" type="curve" smooth="yes"/>
      <point x="76.3012" y="1103.94"/>
      <point x="76" y="1114.12"/>
      <point x="76" y="1124" type="curve" smooth="yes"/>
      <point x="76" y="1536"/>
      <point x="347" y="1633"/>
      <point x="718" y="1633" type="curve" smooth="yes"/>
      <point x="1139" y="1633"/>
      <point x="1349" y="1500"/>
      <point x="1349" y="1125" type="curve" smooth="yes"/>
      <point x="1349" y="776"/>
      <point x="1076" y="650"/>
      <point x="858" y="545" type="curve" smooth="yes"/>
      <point x="770.271" y="502.791"/>
      <point x="671.581" y="446.881"/>
      <point x="640.167" y="359.698" type="curve" smooth="yes"/>
      <point x="630.07" y="331.677"/>
      <point x="651.624" y="301"/>
      <point x="681.409" y="301" type="curve" smooth="yes"/>
      <point x="1201.11" y="301" type="line" smooth="yes"/>
      <point x="1248.6" y="301"/>
      <point x="1277" y="272.603"/>
      <point x="1277" y="225.113" type="curve" smooth="yes"/>
      <point x="1277" y="76.8873" type="line" smooth="yes"/>
      <point x="1277" y="29.397"/>
      <point x="1248.6" y="1.00002"/>
      <point x="1201.11" y="1.00002" type="curve" smooth="yes"/>
      <point x="153.887" y="1.00002" type="line" smooth="yes"/>
      <point x="106.397" y="1.00002"/>
      <point x="78" y="29.397"/>
      <point x="78" y="76.8873" type="curve" smooth="yes"/>
      <point x="78" y="201" type="line" smooth="yes"/>
      <point x="78" y="599"/>
      <point x="289" y="758"/>
      <point x="573" y="890" type="curve"/>
      <point x="667" y="936"/>
      <point x="782" y="989"/>
      <point x="782" y="1086" type="curve" smooth="yes"/>
      <point x="782" y="1298.4" type="line" smooth="yes"/>
      <point x="782" y="1335.7"/>
      <point x="759.699" y="1358"/>
      <point x="722.404" y="1358" type="curve" smooth="yes"/>
      <point x="689.596" y="1358" type="line" smooth="yes"/>
      <point x="652.301" y="1358"/>
      <point x="630" y="1335.7"/>
      <point x="630" y="1298.4" type="curve" smooth="yes"/>
      <point x="630" y="1139.89" type="line" smooth="yes"/>
      <point x="630" y="1092.4"/>
      <point x="601.603" y="1064"/>
      <point x="554.113" y="1064" type="curve" smooth="yes"/>
    </contour>
  </outline>
</glyph>
<glyph name="three" format="1">
  <advance width="1436"/>
  <unicode hex="0033"/>
  <outline>
    <contour>
      <point x="72" y="1108" type="line" smooth="yes"/>
      <point x="72" y="1503"/>
      <point x="293" y="1632"/>
      <point x="714" y="1632" type="curve" smooth="yes"/>
      <point x="1147" y="1632"/>
      <point x="1364" y="1506"/>
      <point x="1364" y="1113" type="curve" smooth="yes"/>
      <point x="1364" y="988.161"/>
      <point x="1307.08" y="900.32"/>
      <point x="1216.65" y="846.477" type="curve" smooth="yes"/>
      <point x="1190.27" y="830.774"/>
      <point x="1190.47" y="810.206"/>
      <point x="1217.14" y="795.002" type="curve" smooth="yes"/>
      <point x="1316.8" y="738.198"/>
      <point x="1366" y="641.114"/>
      <point x="1366" y="522" type="curve" smooth="yes"/>
      <point x="1366" y="79"/>
      <point x="1111" y="-39"/>
      <point x="716" y="-39" type="curve" smooth="yes"/>
      <point x="270" y="-39"/>
      <point x="71" y="142"/>
      <point x="71" y="517" type="curve" smooth="yes"/>
      <point x="71" y="533.075"/>
      <point x="71.2689" y="549.419"/>
      <point x="71.9461" y="566.032" type="curve" smooth="yes"/>
      <point x="73.1209" y="594.85"/>
      <point x="92.0264" y="613"/>
      <point x="120.868" y="613" type="curve" smooth="yes"/>
      <point x="551.113" y="613" type="line" smooth="yes"/>
      <point x="598.603" y="613"/>
      <point x="627" y="584.603"/>
      <point x="627" y="537.113" type="curve" smooth="yes"/>
      <point x="627" y="294.596" type="line" smooth="yes"/>
      <point x="627" y="257.301"/>
      <point x="649.301" y="235"/>
      <point x="686.596" y="235" type="curve" smooth="yes"/>
      <point x="739.404" y="235" type="line" smooth="yes"/>
      <point x="776.699" y="235"/>
      <point x="799" y="257.301"/>
      <point x="799" y="294.596" type="curve" smooth="yes"/>
      <point x="799" y="647.404" type="line" smooth="yes"/>
      <point x="799" y="684.699"/>
      <point x="776.699" y="707"/>
      <point x="739.404" y="707" type="curve" smooth="yes"/>
      <point x="615.887" y="707" type="line" smooth="yes"/>
      <point x="568.397" y="707"/>
      <point x="540" y="735.397"/>
      <point x="540" y="782.887" type="curve" smooth="yes"/>
      <point x="540" y="855.113" type="line" smooth="yes"/>
      <point x="540" y="902.603"/>
      <point x="568.397" y="931"/>
      <point x="615.887" y="931" type="curve" smooth="yes"/>
      <point x="739.404" y="931" type="line" smooth="yes"/>
      <point x="776.699" y="931"/>
      <point x="799" y="953.301"/>
      <point x="799" y="990.596" type="curve" smooth="yes"/>
      <point x="799" y="1301.4" type="line" smooth="yes"/>
      <point x="799" y="1338.7"/>
      <point x="776.699" y="1361"/>
      <point x="739.404" y="1361" type="curve" smooth="yes"/>
      <point x="686.596" y="1361" type="line" smooth="yes"/>
      <point x="649.301" y="1361"/>
      <point x="627" y="1338.7"/>
      <point x="627" y="1301.4" type="curve" smooth="yes"/>
      <point x="627" y="1099.89" type="line" smooth="yes"/>
      <point x="627" y="1052.4"/>
      <point x="598.603" y="1024"/>
      <point x="551.113" y="1024" type="curve" smooth="yes"/>
      <point x="115.311" y="1024" type="line" smooth="yes"/>
      <point x="89.9287" y="1024"/>
      <point x="73.7592" y="1039.58"/>
      <point x="72.8158" y="1064.94" type="curve" smooth="yes"/>
      <point x="72.2719" y="1079.57"/>
      <point x="72" y="1093.92"/>
      <point x="72" y="1108" type="curve" smooth="yes"/>
    </contour>
  </outline>
</glyph>
<glyph name="four" format="1">
  <advance width="1459"/>
  <unicode hex="0034"/>
  <outline>
    <contour>
      <point x="1377" y="862.113" type="line"/>
      <point x="1377" y="75.8873" type="line" smooth="yes"/>
      <point x="1377" y="28.397"/>
      <point x="1348.6" y="1.52588e-05"/>
      <point x="1301.11" y="1.52588e-05" type="curve" smooth="yes"/>
      <point x="940.887" y="1.52588e-05" type="line" smooth="yes"/>
      <point x="893.397" y="1.52588e-05"/>
      <point x="865" y="28.397"/>
      <point x="865" y="75.8873" type="curve" smooth="yes"/>
      <point x="865" y="180.404" type="line" smooth="yes"/>
      <point x="865" y="217.699"/>
      <point x="842.699" y="240"/>
      <point x="805.404" y="240" type="curve" smooth="yes"/>
      <point x="148.887" y="240" type="line" smooth="yes"/>
      <point x="101.397" y="240"/>
      <point x="73" y="268.397"/>
      <point x="73" y="315.887" type="curve" smooth="yes"/>
      <point x="73" y="581.113" type="line" smooth="yes"/>
      <point x="73" y="626.057"/>
      <point x="81.0877" y="686.867"/>
      <point x="92.8351" y="730.249" type="curve" smooth="yes"/>
      <point x="307.165" y="1521.75" type="line" smooth="yes"/>
      <point x="320.125" y="1569.61"/>
      <point x="353.303" y="1595"/>
      <point x="402.887" y="1595" type="curve" smooth="yes"/>
      <point x="824.113" y="1595" type="line" smooth="yes"/>
      <point x="868.615" y="1595"/>
      <point x="891.887" y="1564.68"/>
      <point x="880.383" y="1521.69" type="curve" smooth="yes"/>
      <point x="655.721" y="682.116" type="line" smooth="yes"/>
      <point x="651.746" y="667.261"/>
      <point x="649" y="646.378"/>
      <point x="649" y="631" type="curve" smooth="yes"/>
      <point x="649" y="629" type="line" smooth="yes"/>
      <point x="649" y="612.729"/>
      <point x="658.729" y="603"/>
      <point x="675" y="603" type="curve" smooth="yes"/>
      <point x="805.404" y="603" type="line" smooth="yes"/>
      <point x="842.699" y="603"/>
      <point x="865" y="625.301"/>
      <point x="865" y="662.596" type="curve" smooth="yes"/>
      <point x="865" y="862.113" type="line" smooth="yes"/>
      <point x="865" y="909.603"/>
      <point x="893.397" y="938"/>
      <point x="940.887" y="938" type="curve" smooth="yes"/>
      <point x="1301.11" y="938" type="line" smooth="yes"/>
      <point x="1348.6" y="938"/>
      <point x="1377" y="909.603"/>
      <point x="1377" y="862.113" type="curve" smooth="yes"/>
    </contour>
  </outline>
</glyph>
<glyph name="five" format="1">
  <advance width="1429"/>
  <unicode hex="0035"/>
  <outline>
    <contour>
      <point x="648.536" y="1037.57" type="line"/>
      <point x="720.241" y="1086.6"/>
      <point x="826.123" y="1105"/>
      <point x="955" y="1105" type="curve" smooth="yes"/>
      <point x="1281" y="1105"/>
      <point x="1364" y="881"/>
      <point x="1364" y="553" type="curve" smooth="yes"/>
      <point x="1364" y="87"/>
      <point x="1187" y="-39"/>
      <point x="714" y="-39" type="curve" smooth="yes"/>
      <point x="369" y="-39"/>
      <point x="113" y="30"/>
      <point x="75" y="331" type="curve" smooth="yes"/>
      <point x="71.8828" y="354.379"/>
      <point x="69.5754" y="378.568"/>
      <point x="68.0777" y="403.426" type="curve" smooth="yes"/>
      <point x="65.5335" y="445.653"/>
      <point x="92.2244" y="474"/>
      <point x="134.528" y="474" type="curve" smooth="yes"/>
      <point x="540.113" y="474" type="line" smooth="yes"/>
      <point x="587.603" y="474"/>
      <point x="616" y="445.603"/>
      <point x="616" y="398.113" type="curve" smooth="yes"/>
      <point x="616" y="295.596" type="line" smooth="yes"/>
      <point x="616" y="258.301"/>
      <point x="638.301" y="236"/>
      <point x="675.596" y="236" type="curve" smooth="yes"/>
      <point x="737.404" y="236" type="line" smooth="yes"/>
      <point x="774.699" y="236"/>
      <point x="797" y="258.301"/>
      <point x="797" y="295.596" type="curve" smooth="yes"/>
      <point x="797" y="778.404" type="line" smooth="yes"/>
      <point x="797" y="815.699"/>
      <point x="774.699" y="838"/>
      <point x="737.404" y="838" type="curve" smooth="yes"/>
      <point x="675.596" y="838" type="line" smooth="yes"/>
      <point x="638.301" y="838"/>
      <point x="616" y="815.699"/>
      <point x="616" y="778.404" type="curve" smooth="yes"/>
      <point x="616" y="730.887" type="line" smooth="yes"/>
      <point x="616" y="683.397"/>
      <point x="587.603" y="655"/>
      <point x="540.113" y="655" type="curve" smooth="yes"/>
      <point x="158.887" y="655" type="line" smooth="yes"/>
      <point x="111.963" y="655"/>
      <point x="84.6287" y="683.917"/>
      <point x="87.2674" y="730.767" type="curve" smooth="yes"/>
      <point x="131.733" y="1520.23" type="line" smooth="yes"/>
      <point x="134.433" y="1568.17"/>
      <point x="163.873" y="1596"/>
      <point x="211.887" y="1596" type="curve" smooth="yes"/>
      <point x="1153.11" y="1596" type="line" smooth="yes"/>
      <point x="1200.6" y="1596"/>
      <point x="1229" y="1567.6"/>
      <point x="1229" y="1520.11" type="curve" smooth="yes"/>
      <point x="1229" y="1374.89" type="line" smooth="yes"/>
      <point x="1229" y="1327.4"/>
      <point x="1200.6" y="1299"/>
      <point x="1153.11" y="1299" type="curve" smooth="yes"/>
      <point x="697.596" y="1299" type="line" smooth="yes"/>
      <point x="659.51" y="1299"/>
      <point x="635.586" y="1277.63"/>
      <point x="631.311" y="1239.78" type="curve" smooth="yes"/>
      <point x="611.019" y="1060.14" type="line" smooth="yes"/>
      <point x="607.892" y="1032.46"/>
      <point x="625.539" y="1021.84"/>
      <point x="648.536" y="1037.57" type="curve"/>
    </contour>
  </outline>
</glyph>
<glyph name="six" format="1">
  <advance width="1448"/>
  <unicode hex="0036"/>
  <outline>
    <contour>
      <point x="636" y="738.404" type="curve" smooth="yes"/>
      <point x="636" y="295.596" type="line" smooth="yes"/>
      <point x="636" y="258.301"/>
      <point x="658.301" y="236"/>
      <point x="695.596" y="236" type="curve" smooth="yes"/>
      <point x="756.404" y="236" type="line" smooth="yes"/>
      <point x="793.699" y="236"/>
      <point x="816" y="258.301"/>
      <point x="816" y="295.596" type="curve" smooth="yes"/>
      <point x="816" y="738.404" type="line" smooth="yes"/>
      <point x="816" y="775.699"/>
      <point x="793.699" y="798"/>
      <point x="756.404" y="798" type="curve" smooth="yes"/>
      <point x="695.596" y="798" type="line" smooth="yes"/>
      <point x="658.301" y="798"/>
      <point x="636" y="775.699"/>
    </contour>
    <contour>
      <point x="1382" y="523" type="line"/>
      <point x="1382" y="62"/>
      <point x="1130" y="-36"/>
      <point x="718" y="-39" type="curve"/>
      <point x="312" y="-39"/>
      <point x="85" y="93"/>
      <point x="85" y="476" type="curve" smooth="yes"/>
      <point x="85" y="1056" type="line" smooth="yes"/>
      <point x="85" y="1496"/>
      <point x="312" y="1632"/>
      <point x="717" y="1632" type="curve" smooth="yes"/>
      <point x="966" y="1632"/>
      <point x="1329" y="1608"/>
      <point x="1329" y="1237" type="curve" smooth="yes"/>
      <point x="1329" y="1222.67"/>
      <point x="1329.49" y="1209.32"/>
      <point x="1329.98" y="1196.46" type="curve" smooth="yes"/>
      <point x="1330.88" y="1173.07"/>
      <point x="1316.38" y="1158"/>
      <point x="1292.97" y="1158" type="curve" smooth="yes"/>
      <point x="875.887" y="1158" type="line" smooth="yes"/>
      <point x="828.397" y="1158"/>
      <point x="800" y="1186.4"/>
      <point x="800" y="1233.89" type="curve" smooth="yes"/>
      <point x="800" y="1309.4" type="line" smooth="yes"/>
      <point x="800" y="1346.7"/>
      <point x="777.699" y="1369"/>
      <point x="740.404" y="1369" type="curve" smooth="yes"/>
      <point x="696.596" y="1369" type="line" smooth="yes"/>
      <point x="659.301" y="1369"/>
      <point x="637" y="1346.7"/>
      <point x="637" y="1309.4" type="curve" smooth="yes"/>
      <point x="637" y="1127.6" type="line" smooth="yes"/>
      <point x="637" y="1090.3"/>
      <point x="659.301" y="1068"/>
      <point x="696.596" y="1068" type="curve" smooth="yes"/>
      <point x="761" y="1068" type="line" smooth="yes"/>
      <point x="1223" y="1068"/>
      <point x="1382" y="941"/>
      <point x="1382" y="523" type="curve"/>
    </contour>
  </outline>
</glyph>
<glyph name="seven" format="1">
  <advance width="991"/>
  <unicode hex="0037"/>
  <outline>
    <contour>
      <point x="115.887" y="1595" type="line"/>
      <point x="866.113" y="1595" type="line" smooth="yes"/>
      <point x="913.603" y="1595"/>
      <point x="942" y="1566.6"/>
      <point x="942" y="1519.11" type="curve" smooth="yes"/>
      <point x="942" y="1426.89" type="line" smooth="yes"/>
      <point x="942" y="1384.15"/>
      <point x="936.531" y="1318.3"/>
      <point x="929.479" y="1276.15" type="curve" smooth="yes"/>
      <point x="728.521" y="74.8473" type="line" smooth="yes"/>
      <point x="720.45" y="26.6037"/>
      <point x="689.027" y="-1.52588e-05"/>
      <point x="640.113" y="-1.52588e-05" type="curve" smooth="yes"/>
      <point x="187.887" y="-1.52588e-05" type="line" smooth="yes"/>
      <point x="142.146" y="-1.52588e-05"/>
      <point x="116.878" y="29.7492"/>
      <point x="124.278" y="74.8874" type="curve" smooth="yes"/>
      <point x="324.358" y="1295.19" type="line" smooth="yes"/>
      <point x="330.169" y="1330.64"/>
      <point x="310.325" y="1354"/>
      <point x="274.404" y="1354" type="curve" smooth="yes"/>
      <point x="115.887" y="1354" type="line" smooth="yes"/>
      <point x="68.397" y="1354"/>
      <point x="40" y="1382.4"/>
      <point x="40" y="1429.89" type="curve" smooth="yes"/>
      <point x="40" y="1519.11" type="line" smooth="yes"/>
      <point x="40" y="1566.6"/>
      <point x="68.397" y="1595"/>
      <point x="115.887" y="1595" type="curve" smooth="yes"/>
    </contour>
  </outline>
</glyph>
<glyph name="eight" format="1">
  <advance width="1427"/>
  <unicode hex="0038"/>
  <outline>
    <contour>
      <point x="200.049" y="894.936" type="line"/>
      <point x="138.615" y="952.083"/>
      <point x="119" y="1062.95"/>
      <point x="119" y="1181" type="curve" smooth="yes"/>
      <point x="119" y="1529"/>
      <point x="366" y="1631"/>
      <point x="719" y="1631" type="curve" smooth="yes"/>
      <point x="1071" y="1631"/>
      <point x="1310" y="1528"/>
      <point x="1310" y="1180" type="curve" smooth="yes"/>
      <point x="1310" y="1048.92"/>
      <point x="1279.03" y="941.249"/>
      <point x="1202.25" y="888.945" type="curve" smooth="yes"/>
      <point x="1178.98" y="873.1"/>
      <point x="1180.12" y="856.942"/>
      <point x="1205.34" y="844.512" type="curve" smooth="yes"/>
      <point x="1320.36" y="787.828"/>
      <point x="1368" y="644.795"/>
      <point x="1368" y="470" type="curve" smooth="yes"/>
      <point x="1368" y="34"/>
      <point x="1100" y="-40"/>
      <point x="721" y="-40" type="curve" smooth="yes"/>
      <point x="287" y="-40"/>
      <point x="64" y="75"/>
      <point x="64" y="470" type="curve" smooth="yes"/>
      <point x="64" y="590.379"/>
      <point x="82.2624" y="765.546"/>
      <point x="195.121" y="838.849" type="curve" smooth="yes"/>
      <point x="223.838" y="857.501"/>
      <point x="225.067" y="871.663"/>
      <point x="200.049" y="894.936" type="curve"/>
    </contour>
    <contour>
      <point x="734.404" y="1355" type="curve" smooth="yes"/>
      <point x="699.596" y="1355" type="line" smooth="yes"/>
      <point x="662.301" y="1355"/>
      <point x="640" y="1332.7"/>
      <point x="640" y="1295.4" type="curve" smooth="yes"/>
      <point x="640" y="1019.6" type="line" smooth="yes"/>
      <point x="640" y="982.301"/>
      <point x="662.301" y="960"/>
      <point x="699.596" y="960" type="curve" smooth="yes"/>
      <point x="734.404" y="960" type="line" smooth="yes"/>
      <point x="771.699" y="960"/>
      <point x="794" y="982.301"/>
      <point x="794" y="1019.6" type="curve" smooth="yes"/>
      <point x="794" y="1295.4" type="line" smooth="yes"/>
      <point x="794" y="1332.7"/>
      <point x="771.699" y="1355"/>
    </contour>
    <contour>
      <point x="628" y="660.404" type="curve" smooth="yes"/>
      <point x="628" y="294.596" type="line" smooth="yes"/>
      <point x="628" y="257.301"/>
      <point x="650.301" y="235"/>
      <point x="687.596" y="235" type="curve" smooth="yes"/>
      <point x="734.404" y="235" type="line" smooth="yes"/>
      <point x="771.699" y="235"/>
      <point x="794" y="257.301"/>
      <point x="794" y="294.596" type="curve" smooth="yes"/>
      <point x="794" y="660.404" type="line" smooth="yes"/>
      <point x="794" y="697.699"/>
      <point x="771.699" y="720"/>
      <point x="734.404" y="720" type="curve" smooth="yes"/>
      <point x="687.596" y="720" type="line" smooth="yes"/>
      <point x="650.301" y="720"/>
      <point x="628" y="697.699"/>
    </contour>
  </outline>
</glyph>
<glyph name="nine" format="1">
  <advance width="1445"/>
  <unicode hex="0039"/>
  <outline>
    <contour>
      <point x="799" y="838.596" type="line"/>
      <point x="799" y="1298.4" type="line" smooth="yes"/>
      <point x="799" y="1335.7"/>
      <point x="776.699" y="1358"/>
      <point x="739.404" y="1358" type="curve" smooth="yes"/>
      <point x="687.596" y="1358" type="line" smooth="yes"/>
      <point x="650.301" y="1358"/>
      <point x="628" y="1335.7"/>
      <point x="628" y="1298.4" type="curve" smooth="yes"/>
      <point x="628" y="838.596" type="line" smooth="yes"/>
      <point x="628" y="801.301"/>
      <point x="650.301" y="779"/>
      <point x="687.596" y="779" type="curve" smooth="yes"/>
      <point x="739.404" y="779" type="line" smooth="yes"/>
      <point x="776.699" y="779"/>
      <point x="799" y="801.301"/>
      <point x="799" y="838.596" type="curve" smooth="yes"/>
    </contour>
    <contour>
      <point x="576" y="508" type="line" smooth="yes"/>
      <point x="178" y="508"/>
      <point x="68" y="688"/>
      <point x="68" y="1071" type="curve" smooth="yes"/>
      <point x="68" y="1551"/>
      <point x="325" y="1629"/>
      <point x="722" y="1629" type="curve" smooth="yes"/>
      <point x="1130" y="1629"/>
      <point x="1365" y="1508"/>
      <point x="1365" y="1116" type="curve" smooth="yes"/>
      <point x="1365" y="520" type="line" smooth="yes"/>
      <point x="1365" y="84"/>
      <point x="1131" y="-40"/>
      <point x="733" y="-40" type="curve" smooth="yes"/>
      <point x="490" y="-40"/>
      <point x="124" y="-1.52588e-05"/>
      <point x="115" y="328" type="curve" smooth="yes"/>
      <point x="114.505" y="344.834"/>
      <point x="114.255" y="361.178"/>
      <point x="114.129" y="377.031" type="curve" smooth="yes"/>
      <point x="113.896" y="406.252"/>
      <point x="131.504" y="424"/>
      <point x="160.725" y="424" type="curve" smooth="yes"/>
      <point x="569.113" y="424" type="line" smooth="yes"/>
      <point x="616.603" y="424"/>
      <point x="645" y="395.603"/>
      <point x="645" y="348.113" type="curve" smooth="yes"/>
      <point x="645" y="284.596" type="line" smooth="yes"/>
      <point x="645" y="247.301"/>
      <point x="667.301" y="225"/>
      <point x="704.596" y="225" type="curve" smooth="yes"/>
      <point x="743.404" y="225" type="line" smooth="yes"/>
      <point x="780.699" y="225"/>
      <point x="803" y="247.301"/>
      <point x="803" y="284.596" type="curve" smooth="yes"/>
      <point x="803" y="448.404" type="line" smooth="yes"/>
      <point x="803" y="485.699"/>
      <point x="780.699" y="508"/>
      <point x="743.404" y="508" type="curve" smooth="yes"/>
    </contour>
  </outline>
</glyph>
<glyph name="colon" format="1">
  <advance width="691"/>
  <unicode hex="003A"/>
  <outline>
    <contour>
      <point x="345" y="113" type="curve" smooth="yes"/>
      <point x="243" y="113"/>
      <point x="141" y="183"/>
      <point x="141" y="323" type="curve" smooth="yes"/>
      <point x="141" y="463"/>
      <point x="243" y="533"/>
      <point x="345" y="533" type="curve" smooth="yes"/>
      <point x="447" y="533"/>
      <point x="549" y="463"/>
      <point x="549" y="323" type="curve" smooth="yes"/>
      <point x="549" y="183"/>
      <point x="447" y="113"/>
    </contour>
    <contour>
      <point x="345" y="923" type="curve" smooth="yes"/>
      <point x="243" y="923"/>
      <point x="141" y="993"/>
      <point x="141" y="1133" type="curve" smooth="yes"/>
      <point x="141" y="1273"/>
      <point x="243" y="1343"/>
      <point x="345" y="1343" type="curve" smooth="yes"/>
      <point x="447" y="1343"/>
      <point x="549" y="1273"/>
      <point x="549" y="1133" type="curve" smooth="yes"/>
      <point x="549" y="993"/>
      <point x="447" y="923"/>
    </contour>
  </outline>
</glyph>
<glyph name="semicolon" format="1">
  <advance width="710"/>
  <unicode hex="003B"/>
  <outline>
    <contour>
      <point x="262.191" y="128.587" type="line"/>
      <point x="194.214" y="156.559"/>
      <point x="141" y="221.526"/>
      <point x="141" y="323" type="curve" smooth="yes"/>
      <point x="141" y="456"/>
      <point x="243" y="523"/>
      <point x="345" y="523" type="curve" smooth="yes"/>
      <point x="489" y="523"/>
      <point x="555" y="412"/>
      <point x="555" y="283" type="curve" smooth="yes"/>
      <point x="555" y="99"/>
      <point x="429" y="-120"/>
      <point x="208" y="-120" type="curve" smooth="yes"/>
      <point x="200.562" y="-120"/>
      <point x="192.843" y="-119.718"/>
      <point x="184.991" y="-119.153" type="curve" smooth="yes"/>
      <point x="172.169" y="-118.232"/>
      <point x="164" y="-109.454"/>
      <point x="164" y="-96.5994" type="curve" smooth="yes"/>
      <point x="164" y="-68.9055" type="line" smooth="yes"/>
      <point x="164" y="-28.4746"/>
      <point x="176.587" y="-11.8882"/>
      <point x="217.003" y="-0.594391" type="curve" smooth="yes"/>
      <point x="240.538" y="5.98218"/>
      <point x="261.712" y="16.8435"/>
      <point x="278.679" y="31.6479" type="curve" smooth="yes"/>
      <point x="307.96" y="57.1966"/>
      <point x="298.656" y="113.582"/>
      <point x="262.191" y="128.587" type="curve"/>
    </contour>
    <contour>
      <point x="345" y="923" type="curve" smooth="yes"/>
      <point x="243" y="923"/>
      <point x="141" y="993"/>
      <point x="141" y="1133" type="curve" smooth="yes"/>
      <point x="141" y="1273"/>
      <point x="243" y="1343"/>
      <point x="345" y="1343" type="curve" smooth="yes"/>
      <point x="447" y="1343"/>
      <point x="549" y="1273"/>
      <point x="549" y="1133" type="curve" smooth="yes"/>
      <point x="549" y="993"/>
      <point x="447" y="923"/>
    </contour>
  </outline>
</glyph>
<glyph name="less" format="1">
  <advance width="1036"/>
  <unicode hex="003C"/>
  <outline>
    <contour>
      <point x="75" y="564.887" type="line"/>
      <point x="75" y="1022.11" type="line" smooth="yes"/>
      <point x="75" y="1072.76"/>
      <point x="96.9308" y="1110.49"/>
      <point x="140.94" y="1135.56" type="curve" smooth="yes"/>
      <point x="885.06" y="1559.44" type="line" smooth="yes"/>
      <point x="920.322" y="1579.52"/>
      <point x="951" y="1561.69"/>
      <point x="951" y="1521.11" type="curve" smooth="yes"/>
      <point x="951" y="1167.89" type="line" smooth="yes"/>
      <point x="951" y="1117.4"/>
      <point x="928.195" y="1080.81"/>
      <point x="882.877" y="1058.56" type="curve" smooth="yes"/>
      <point x="403.498" y="823.26" type="line" smooth="yes"/>
      <point x="376.749" y="810.13"/>
      <point x="376.784" y="783.942"/>
      <point x="403.569" y="770.884" type="curve" smooth="yes"/>
      <point x="882.787" y="537.255" type="line" smooth="yes"/>
      <point x="928.157" y="515.136"/>
      <point x="951" y="478.587"/>
      <point x="951" y="428.113" type="curve" smooth="yes"/>
      <point x="951" y="75.8873" type="line" smooth="yes"/>
      <point x="951" y="35.1639"/>
      <point x="920.296" y="17.1395"/>
      <point x="884.738" y="36.9889" type="curve" smooth="yes"/>
      <point x="141.262" y="452.011" type="line" smooth="yes"/>
      <point x="97.0551" y="476.688"/>
      <point x="75" y="514.259"/>
      <point x="75" y="564.887" type="curve"/>
    </contour>
  </outline>
</glyph>
<glyph name="equal" format="1">
  <advance width="1008"/>
  <unicode hex="003D"/>
  <outline>
    <contour>
      <point x="164.887" y="336" type="curve" smooth="yes"/>
      <point x="847.113" y="336" type="line" smooth="yes"/>
      <point x="894.603" y="336"/>
      <point x="923" y="307.603"/>
      <point x="923" y="260.113" type="curve" smooth="yes"/>
      <point x="923" y="75.8873" type="line" smooth="yes"/>
      <point x="923" y="28.397"/>
      <point x="894.603" y="1.52588e-05"/>
      <point x="847.113" y="1.52588e-05" type="curve" smooth="yes"/>
      <point x="164.887" y="1.52588e-05" type="line" smooth="yes"/>
      <point x="117.397" y="1.52588e-05"/>
      <point x="89" y="28.397"/>
      <point x="89" y="75.8873" type="curve" smooth="yes"/>
      <point x="89" y="260.113" type="line" smooth="yes"/>
      <point x="89" y="307.603"/>
      <point x="117.397" y="336"/>
    </contour>
    <contour>
      <point x="164.887" y="897" type="curve" smooth="yes"/>
      <point x="847.113" y="897" type="line" smooth="yes"/>
      <point x="894.603" y="897"/>
      <point x="923" y="868.603"/>
      <point x="923" y="821.113" type="curve" smooth="yes"/>
      <point x="923" y="636.887" type="line" smooth="yes"/>
      <point x="923" y="589.397"/>
      <point x="894.603" y="561"/>
      <point x="847.113" y="561" type="curve" smooth="yes"/>
      <point x="164.887" y="561" type="line" smooth="yes"/>
      <point x="117.397" y="561"/>
      <point x="89" y="589.397"/>
      <point x="89" y="636.887" type="curve" smooth="yes"/>
      <point x="89" y="821.113" type="line" smooth="yes"/>
      <point x="89" y="868.603"/>
      <point x="117.397" y="897"/>
    </contour>
  </outline>
</glyph>
<glyph name="greater" format="1">
  <advance width="1035"/>
  <unicode hex="003E"/>
  <outline>
    <contour>
      <point x="963" y="1022.11" type="line"/>
      <point x="963" y="564.887" type="line" smooth="yes"/>
      <point x="963" y="514.26"/>
      <point x="940.938" y="476.699"/>
      <point x="896.72" y="452.043" type="curve" smooth="yes"/>
      <point x="152.28" y="36.9568" type="line" smooth="yes"/>
      <point x="116.705" y="17.1208"/>
      <point x="86" y="35.1559"/>
      <point x="86" y="75.8873" type="curve" smooth="yes"/>
      <point x="86" y="428.113" type="line" smooth="yes"/>
      <point x="86" y="478.587"/>
      <point x="108.843" y="515.136"/>
      <point x="154.213" y="537.255" type="curve" smooth="yes"/>
      <point x="633.431" y="770.884" type="line" smooth="yes"/>
      <point x="660.216" y="783.942"/>
      <point x="660.251" y="810.13"/>
      <point x="633.502" y="823.26" type="curve" smooth="yes"/>
      <point x="154.123" y="1058.56" type="line" smooth="yes"/>
      <point x="108.805" y="1080.81"/>
      <point x="86" y="1117.4"/>
      <point x="86" y="1167.89" type="curve" smooth="yes"/>
      <point x="86" y="1521.11" type="line" smooth="yes"/>
      <point x="86" y="1561.7"/>
      <point x="116.68" y="1579.54"/>
      <point x="151.958" y="1559.47" type="curve" smooth="yes"/>
      <point x="897.042" y="1135.53" type="line" smooth="yes"/>
      <point x="941.062" y="1110.48"/>
      <point x="963" y="1072.76"/>
      <point x="963" y="1022.11" type="curve"/>
    </contour>
  </outline>
</glyph>
<glyph name="question" format="1">
  <advance width="955"/>
  <unicode hex="003F"/>
  <outline>
    <contour>
      <point x="922.977" y="1313" type="line"/>
      <point x="922.977" y="1009"/>
      <point x="506.977" y="912"/>
      <point x="466.977" y="567" type="curve" smooth="yes"/>
      <point x="461.977" y="524"/>
      <point x="431.977" y="510"/>
      <point x="404.977" y="510" type="curve" smooth="yes"/>
      <point x="363.977" y="510"/>
      <point x="343.977" y="536"/>
      <point x="343.977" y="582" type="curve" smooth="yes"/>
      <point x="343.977" y="814"/>
      <point x="461.977" y="979"/>
      <point x="488.977" y="1123" type="curve" smooth="yes"/>
      <point x="489.977" y="1132"/>
      <point x="490.977" y="1141"/>
      <point x="490.977" y="1150" type="curve" smooth="yes"/>
      <point x="490.977" y="1212"/>
      <point x="451.977" y="1264"/>
      <point x="348.977" y="1264" type="curve" smooth="yes"/>
      <point x="315.743" y="1264"/>
      <point x="275.317" y="1257.29"/>
      <point x="226.042" y="1241.54" type="curve" smooth="yes"/>
      <point x="181.653" y="1227.36"/>
      <point x="151.661" y="1246.97"/>
      <point x="146.851" y="1293.32" type="curve" smooth="yes"/>
      <point x="126.633" y="1488.2" type="line" smooth="yes"/>
      <point x="121.707" y="1535.68"/>
      <point x="145.722" y="1570.99"/>
      <point x="191.696" y="1583.86" type="curve" smooth="yes"/>
      <point x="311.251" y="1617.32"/>
      <point x="409.704" y="1632"/>
      <point x="489.977" y="1632" type="curve" smooth="yes"/>
      <point x="824.977" y="1632"/>
      <point x="922.977" y="1473"/>
      <point x="922.977" y="1313" type="curve"/>
    </contour>
    <contour>
      <point x="406.977" y="-39" type="line" smooth="yes"/>
      <point x="304.977" y="-39"/>
      <point x="202.977" y="31"/>
      <point x="202.977" y="171" type="curve" smooth="yes"/>
      <point x="202.977" y="311"/>
      <point x="304.977" y="381"/>
      <point x="406.977" y="381" type="curve" smooth="yes"/>
      <point x="508.977" y="381"/>
      <point x="610.977" y="311"/>
      <point x="610.977" y="171" type="curve" smooth="yes"/>
      <point x="610.977" y="31"/>
      <point x="508.977" y="-39"/>
      <point x="406.977" y="-39" type="curve" smooth="yes"/>
    </contour>
  </outline>
</glyph>
<glyph name="at" format="1">
  <advance width="2198"/>
  <unicode hex="0040"/>
  <outline>
    <contour>
      <point x="2133" y="878" type="line" smooth="yes"/>
      <point x="2133" y="421.939"/>
      <point x="2050.73" y="105.824"/>
      <point x="1592.88" y="88.7293" type="curve" smooth="yes"/>
      <point x="1564.31" y="87.6624"/>
      <point x="1501.29" y="90.1133"/>
      <point x="1477.23" y="92.8945" type="curve" smooth="yes"/>
      <point x="1374.94" y="104.717"/>
      <point x="1292.6" y="137.524"/>
      <point x="1237.56" y="193.463" type="curve" smooth="yes"/>
      <point x="1209.64" y="221.839"/>
      <point x="1190.73" y="222.326"/>
      <point x="1161.39" y="195.427" type="curve" smooth="yes"/>
      <point x="1110.49" y="148.757"/>
      <point x="1041.86" y="113"/>
      <point x="950" y="113" type="curve" smooth="yes"/>
      <point x="733" y="113"/>
      <point x="620" y="199"/>
      <point x="613" y="405" type="curve" smooth="yes"/>
      <point x="612" y="435"/>
      <point x="612" y="464"/>
      <point x="612" y="493" type="curve" smooth="yes"/>
      <point x="612" y="732"/>
      <point x="708" y="836"/>
      <point x="950" y="836" type="curve" smooth="yes"/>
      <point x="1019.03" y="836"/>
      <point x="1075.42" y="829.193"/>
      <point x="1121.2" y="813.547" type="curve" smooth="yes"/>
      <point x="1155.3" y="801.894"/>
      <point x="1175" y="815.983"/>
      <point x="1175" y="852.015" type="curve" smooth="yes"/>
      <point x="1175" y="993.5" type="line" smooth="yes"/>
      <point x="1175" y="1011.34"/>
      <point x="1164.34" y="1022"/>
      <point x="1146.5" y="1022" type="curve" smooth="yes"/>
      <point x="1144.5" y="1022" type="line" smooth="yes"/>
      <point x="1126.66" y="1022"/>
      <point x="1116" y="1011.34"/>
      <point x="1116" y="993.5" type="curve" smooth="yes"/>
      <point x="1116" y="953.5" type="line" smooth="yes"/>
      <point x="1116" y="911.884"/>
      <point x="1091.12" y="887"/>
      <point x="1049.5" y="887" type="curve" smooth="yes"/>
      <point x="697.747" y="887" type="line" smooth="yes"/>
      <point x="676.446" y="887"/>
      <point x="663.984" y="899.194"/>
      <point x="663.522" y="920.489" type="curve" smooth="yes"/>
      <point x="663.265" y="932.326"/>
      <point x="663" y="944.163"/>
      <point x="663" y="956" type="curve" smooth="yes"/>
      <point x="663" y="1204"/>
      <point x="858" y="1248"/>
      <point x="1138" y="1248" type="curve" smooth="yes"/>
      <point x="1496" y="1248"/>
      <point x="1607" y="1146"/>
      <point x="1607" y="837" type="curve" smooth="yes"/>
      <point x="1607" y="389.596" type="line" smooth="yes"/>
      <point x="1607" y="352.301"/>
      <point x="1629.3" y="330"/>
      <point x="1666.6" y="330" type="curve" smooth="yes"/>
      <point x="1717.4" y="330" type="line" smooth="yes"/>
      <point x="1754.7" y="330"/>
      <point x="1777" y="352.301"/>
      <point x="1777" y="389.596" type="curve" smooth="yes"/>
      <point x="1777" y="832" type="line" smooth="yes"/>
      <point x="1777" y="1339"/>
      <point x="1587" y="1424"/>
      <point x="1152" y="1424" type="curve" smooth="yes"/>
      <point x="565" y="1424"/>
      <point x="428" y="1204"/>
      <point x="428" y="692" type="curve" smooth="yes"/>
      <point x="428" y="59"/>
      <point x="589" y="-58"/>
      <point x="1222" y="-58" type="curve" smooth="yes"/>
      <point x="1312.04" y="-58"/>
      <point x="1419.1" y="-43.4073"/>
      <point x="1630.06" y="4.75665" type="curve" smooth="yes"/>
      <point x="1676.59" y="15.3807"/>
      <point x="1710.33" y="-5.83838"/>
      <point x="1720.92" y="-52.3791" type="curve" smooth="yes"/>
      <point x="1746.06" y="-162.902" type="line" smooth="yes"/>
      <point x="1756.4" y="-208.39"/>
      <point x="1737.88" y="-249.684"/>
      <point x="1697.02" y="-272.204" type="curve" smooth="yes"/>
      <point x="1572.47" y="-340.865"/>
      <point x="1414.09" y="-393"/>
      <point x="1240" y="-393" type="curve" smooth="yes"/>
      <point x="425" y="-393"/>
      <point x="74" y="-177"/>
      <point x="74" y="687" type="curve" smooth="yes"/>
      <point x="74" y="1495"/>
      <point x="440" y="1741"/>
      <point x="1148" y="1741" type="curve" smooth="yes"/>
      <point x="1840" y="1741"/>
      <point x="2133" y="1508"/>
      <point x="2133" y="878" type="curve" smooth="yes"/>
    </contour>
    <contour>
      <point x="1128.5" y="641" type="curve" smooth="yes"/>
      <point x="1126.5" y="641" type="line" smooth="yes"/>
      <point x="1098.03" y="641"/>
      <point x="1081" y="623.974"/>
      <point x="1081" y="595.5" type="curve" smooth="yes"/>
      <point x="1081" y="381.5" type="line" smooth="yes"/>
      <point x="1081" y="353.026"/>
      <point x="1098.03" y="336"/>
      <point x="1126.5" y="336" type="curve" smooth="yes"/>
      <point x="1128.5" y="336" type="line" smooth="yes"/>
      <point x="1156.97" y="336"/>
      <point x="1174" y="353.026"/>
      <point x="1174" y="381.5" type="curve" smooth="yes"/>
      <point x="1174" y="595.5" type="line" smooth="yes"/>
      <point x="1174" y="623.974"/>
      <point x="1156.97" y="641"/>
    </contour>
  </outline>
</glyph>
<glyph name="C" format="1">
  <advance width="1692"/>
  <unicode hex="0043"/>
  <outline>
    <contour>
      <point x="981" y="568" type="curve" smooth="yes"/>
      <point x="981" y="616"/>
      <point x="1015" y="670"/>
      <point x="1084" y="670" type="curve" smooth="yes"/>
      <point x="1493" y="670" type="line" smooth="yes"/>
      <point x="1563" y="670"/>
      <point x="1583" y="619"/>
      <point x="1583" y="575" type="curve"/>
      <point x="1558" y="-29"/>
      <point x="1391.55" y="-39"/>
      <point x="843" y="-39" type="curve" smooth="yes"/>
      <point x="223" y="-39"/>
      <point x="105" y="19"/>
      <point x="105" y="805" type="curve" smooth="yes"/>
      <point x="105" y="1568"/>
      <point x="242" y="1631"/>
      <point x="843" y="1631" type="curve" smooth="yes"/>
      <point x="1365.78" y="1631"/>
      <point x="1554" y="1603"/>
      <point x="1583" y="1010" type="curve"/>
      <point x="1583" y="958"/>
      <point x="1561" y="922"/>
      <point x="1489" y="922" type="curve" smooth="yes"/>
      <point x="1091" y="922" type="line" smooth="yes"/>
      <point x="1005" y="922"/>
      <point x="981" y="970"/>
      <point x="981" y="1018" type="curve" smooth="yes"/>
      <point x="979" y="1267"/>
      <point x="962.895" y="1282"/>
      <point x="866" y="1282" type="curve" smooth="yes"/>
      <point x="830" y="1282" type="line" smooth="yes"/>
      <point x="728" y="1282"/>
      <point x="727" y="1240"/>
      <point x="727" y="796" type="curve" smooth="yes"/>
      <point x="727" y="314"/>
      <point x="728" y="315"/>
      <point x="830" y="315" type="curve" smooth="yes"/>
      <point x="866" y="315" type="line" smooth="yes"/>
      <point x="961.567" y="315"/>
      <point x="978" y="295"/>
    </contour>
  </outline>
</glyph>
<glyph name="D" format="1">
  <advance width="1751"/>
  <unicode hex="0044"/>
  <outline>
    <contour>
      <point x="774" y="1242" type="curve" smooth="yes"/>
      <point x="774" y="354" type="line" smooth="yes"/>
      <point x="774" y="316"/>
      <point x="776" y="314"/>
      <point x="814" y="314" type="curve" smooth="yes"/>
      <point x="909" y="314" type="line" smooth="yes"/>
      <point x="947" y="314"/>
      <point x="1001" y="338"/>
      <point x="1006" y="374" type="curve" smooth="yes"/>
      <point x="1022" y="491"/>
      <point x="1030" y="649"/>
      <point x="1030" y="804" type="curve" smooth="yes"/>
      <point x="1030" y="962"/>
      <point x="1022" y="1117"/>
      <point x="1006" y="1222" type="curve" smooth="yes"/>
      <point x="1001" y="1259"/>
      <point x="947" y="1282"/>
      <point x="909" y="1282" type="curve" smooth="yes"/>
      <point x="814" y="1282" type="line" smooth="yes"/>
      <point x="776" y="1282"/>
      <point x="774" y="1280"/>
    </contour>
    <contour>
      <point x="240" y="1595" type="curve" smooth="yes"/>
      <point x="983" y="1595" type="line" smooth="yes"/>
      <point x="1299" y="1595"/>
      <point x="1559" y="1549"/>
      <point x="1609" y="1204" type="curve" smooth="yes"/>
      <point x="1628" y="1076"/>
      <point x="1637" y="936"/>
      <point x="1637" y="797" type="curve" smooth="yes"/>
      <point x="1637" y="657"/>
      <point x="1628" y="519"/>
      <point x="1609" y="393" type="curve" smooth="yes"/>
      <point x="1556" y="34"/>
      <point x="1294" y="0"/>
      <point x="983" y="0" type="curve" smooth="yes"/>
      <point x="240" y="0" type="line" smooth="yes"/>
      <point x="192" y="0"/>
      <point x="169" y="29"/>
      <point x="164" y="76" type="curve" smooth="yes"/>
      <point x="141" y="316"/>
      <point x="140" y="547"/>
      <point x="140" y="783" type="curve" smooth="yes"/>
      <point x="140" y="1018"/>
      <point x="141" y="1259"/>
      <point x="164" y="1519" type="curve" smooth="yes"/>
      <point x="168" y="1567"/>
      <point x="192" y="1595"/>
    </contour>
  </outline>
</glyph>
<glyph name="F" format="1">
  <advance width="1102"/>
  <unicode hex="0046"/>
  <outline>
    <contour>
      <point x="179.887" y="1595" type="line"/>
      <point x="973.113" y="1595" type="line" smooth="yes"/>
      <point x="1020.6" y="1595"/>
      <point x="1049" y="1566.6"/>
      <point x="1049" y="1519.11" type="curve" smooth="yes"/>
      <point x="1049" y="1421.89" type="line" smooth="yes"/>
      <point x="1049" y="1374.4"/>
      <point x="1020.6" y="1346"/>
      <point x="973.113" y="1346" type="curve" smooth="yes"/>
      <point x="767.596" y="1346" type="line" smooth="yes"/>
      <point x="730.301" y="1346"/>
      <point x="708" y="1323.7"/>
      <point x="708" y="1286.4" type="curve" smooth="yes"/>
      <point x="708" y="1013.6" type="line" smooth="yes"/>
      <point x="708" y="976.301"/>
      <point x="730.301" y="954"/>
      <point x="767.596" y="954" type="curve" smooth="yes"/>
      <point x="950.113" y="954" type="line" smooth="yes"/>
      <point x="997.603" y="954"/>
      <point x="1026" y="925.603"/>
      <point x="1026" y="878.113" type="curve" smooth="yes"/>
      <point x="1026" y="780.887" type="line" smooth="yes"/>
      <point x="1026" y="733.397"/>
      <point x="997.603" y="705"/>
      <point x="950.113" y="705" type="curve" smooth="yes"/>
      <point x="767.596" y="705" type="line" smooth="yes"/>
      <point x="730.301" y="705"/>
      <point x="708" y="682.699"/>
      <point x="708" y="645.404" type="curve" smooth="yes"/>
      <point x="708" y="75.8873" type="line" smooth="yes"/>
      <point x="708" y="28.397"/>
      <point x="679.603" y="0"/>
      <point x="632.113" y="0" type="curve" smooth="yes"/>
      <point x="179.887" y="0" type="line" smooth="yes"/>
      <point x="132.397" y="0"/>
      <point x="104" y="28.397"/>
      <point x="104" y="75.8873" type="curve" smooth="yes"/>
      <point x="104" y="1519.11" type="line" smooth="yes"/>
      <point x="104" y="1566.6"/>
      <point x="132.397" y="1595"/>
      <point x="179.887" y="1595" type="curve"/>
    </contour>
  </outline>
</glyph>
<glyph name="G" format="1">
  <advance width="1695"/>
  <unicode hex="0047"/>
  <outline>
    <contour>
      <point x="1444" y="0" type="curve" smooth="yes"/>
      <point x="1326" y="110" type="line"/>
      <point x="1279" y="35"/>
      <point x="1143" y="-39"/>
      <point x="852" y="-39" type="curve" smooth="yes"/>
      <point x="232" y="-39"/>
      <point x="114" y="69"/>
      <point x="114" y="805" type="curve" smooth="yes"/>
      <point x="114" y="1568"/>
      <point x="251" y="1631"/>
      <point x="852" y="1631" type="curve" smooth="yes"/>
      <point x="1375" y="1631"/>
      <point x="1563" y="1603"/>
      <point x="1592" y="1010" type="curve"/>
      <point x="1592" y="958"/>
      <point x="1570" y="922"/>
      <point x="1528" y="922" type="curve" smooth="yes"/>
      <point x="1060" y="922" type="line" smooth="yes"/>
      <point x="1014" y="922"/>
      <point x="990" y="950"/>
      <point x="990" y="998" type="curve" smooth="yes"/>
      <point x="988" y="1277"/>
      <point x="980" y="1282"/>
      <point x="905" y="1282" type="curve" smooth="yes"/>
      <point x="839" y="1282" type="line" smooth="yes"/>
      <point x="737" y="1282"/>
      <point x="736" y="1280"/>
      <point x="736" y="796" type="curve" smooth="yes"/>
      <point x="736" y="314"/>
      <point x="737" y="315"/>
      <point x="839" y="315" type="curve" smooth="yes"/>
      <point x="995" y="315" type="line" smooth="yes"/>
      <point x="1052" y="315"/>
      <point x="1070" y="339"/>
      <point x="1075" y="393" type="curve"/>
      <point x="1075" y="534" type="line" smooth="yes"/>
      <point x="1075" y="557"/>
      <point x="1074" y="575"/>
      <point x="1025" y="575" type="curve" smooth="yes"/>
      <point x="944" y="575" type="line"/>
      <point x="942" y="575" type="line" smooth="yes"/>
      <point x="916" y="575"/>
      <point x="900" y="591"/>
      <point x="900" y="617" type="curve" smooth="yes"/>
      <point x="900" y="730" type="line" smooth="yes"/>
      <point x="900" y="778"/>
      <point x="928" y="806"/>
      <point x="976" y="806" type="curve" smooth="yes"/>
      <point x="1514" y="806" type="line" smooth="yes"/>
      <point x="1562" y="806"/>
      <point x="1590" y="778"/>
      <point x="1590" y="730" type="curve" smooth="yes"/>
      <point x="1590" y="76" type="line" smooth="yes"/>
      <point x="1590" y="28"/>
      <point x="1478" y="-31"/>
    </contour>
  </outline>
</glyph>
<glyph name="H" format="1">
  <advance width="1788"/>
  <unicode hex="0048"/>
  <outline>
    <contour>
      <point x="1089" y="1595" type="curve" smooth="yes"/>
      <point x="1551" y="1595" type="line" smooth="yes"/>
      <point x="1599" y="1595"/>
      <point x="1622" y="1566"/>
      <point x="1627" y="1519" type="curve" smooth="yes"/>
      <point x="1648" y="1325"/>
      <point x="1648" y="1069"/>
      <point x="1648" y="810" type="curve" smooth="yes"/>
      <point x="1648" y="548"/>
      <point x="1648" y="283"/>
      <point x="1627" y="76" type="curve" smooth="yes"/>
      <point x="1622" y="28"/>
      <point x="1599" y="0"/>
      <point x="1551" y="0" type="curve" smooth="yes"/>
      <point x="1089" y="0" type="line" smooth="yes"/>
      <point x="1041" y="0"/>
      <point x="1013" y="28"/>
      <point x="1013" y="76" type="curve" smooth="yes"/>
      <point x="1013" y="648" type="line" smooth="yes"/>
      <point x="1013" y="686"/>
      <point x="1011" y="688"/>
      <point x="973" y="688" type="curve" smooth="yes"/>
      <point x="814" y="688" type="line" smooth="yes"/>
      <point x="776" y="688"/>
      <point x="774" y="686"/>
      <point x="774" y="648" type="curve" smooth="yes"/>
      <point x="774" y="76" type="line" smooth="yes"/>
      <point x="774" y="28"/>
      <point x="746" y="0"/>
      <point x="698" y="0" type="curve" smooth="yes"/>
      <point x="236" y="0" type="line" smooth="yes"/>
      <point x="188" y="0"/>
      <point x="164" y="29"/>
      <point x="160" y="76" type="curve" smooth="yes"/>
      <point x="141" y="305"/>
      <point x="140" y="543"/>
      <point x="140" y="790" type="curve" smooth="yes"/>
      <point x="140" y="1025"/>
      <point x="140" y="1268"/>
      <point x="160" y="1519" type="curve" smooth="yes"/>
      <point x="164" y="1565"/>
      <point x="188" y="1595"/>
      <point x="236" y="1595" type="curve" smooth="yes"/>
      <point x="698" y="1595" type="line" smooth="yes"/>
      <point x="746" y="1595"/>
      <point x="774" y="1567"/>
      <point x="774" y="1519" type="curve" smooth="yes"/>
      <point x="774" y="950" type="line" smooth="yes"/>
      <point x="774" y="912"/>
      <point x="776" y="908"/>
      <point x="814" y="908" type="curve" smooth="yes"/>
      <point x="973" y="908" type="line" smooth="yes"/>
      <point x="1011" y="908"/>
      <point x="1013" y="912"/>
      <point x="1013" y="950" type="curve" smooth="yes"/>
      <point x="1013" y="1519" type="line" smooth="yes"/>
      <point x="1013" y="1567"/>
      <point x="1041" y="1595"/>
    </contour>
  </outline>
</glyph>
<glyph name="M" format="1">
  <advance width="2052"/>
  <unicode hex="004D"/>
  <outline>
    <contour>
      <point x="1473" y="76" type="curve"/>
      <point x="1445" y="939" type="line"/>
      <point x="1282" y="75" type="line" smooth="yes"/>
      <point x="1273" y="27"/>
      <point x="1244" y="0"/>
      <point x="1195" y="0" type="curve" smooth="yes"/>
      <point x="860" y="0" type="line" smooth="yes"/>
      <point x="811" y="0"/>
      <point x="782" y="27"/>
      <point x="774" y="75" type="curve" smooth="yes"/>
      <point x="621" y="939" type="line"/>
      <point x="594" y="76" type="line"/>
      <point x="591" y="28"/>
      <point x="561" y="0"/>
      <point x="513" y="0" type="curve" smooth="yes"/>
      <point x="214" y="0" type="line" smooth="yes"/>
      <point x="169" y="0"/>
      <point x="141" y="27"/>
      <point x="141" y="71" type="curve" smooth="yes"/>
      <point x="141" y="71"/>
      <point x="140" y="105"/>
      <point x="140" y="176" type="curve" smooth="yes"/>
      <point x="140" y="358"/>
      <point x="148" y="788"/>
      <point x="208" y="1519" type="curve" smooth="yes"/>
      <point x="212" y="1567"/>
      <point x="240" y="1595"/>
      <point x="288" y="1595" type="curve" smooth="yes"/>
      <point x="816" y="1595" type="line" smooth="yes"/>
      <point x="865" y="1595"/>
      <point x="896" y="1568"/>
      <point x="903" y="1520" type="curve" smooth="yes"/>
      <point x="1020" y="719" type="line" smooth="yes"/>
      <point x="1021" y="714"/>
      <point x="1026" y="711"/>
      <point x="1032" y="711" type="curve" smooth="yes"/>
      <point x="1037" y="711"/>
      <point x="1043" y="714"/>
      <point x="1043" y="719" type="curve" smooth="yes"/>
      <point x="1148" y="1520" type="line" smooth="yes"/>
      <point x="1155" y="1568"/>
      <point x="1186" y="1595"/>
      <point x="1235" y="1595" type="curve" smooth="yes"/>
      <point x="1764" y="1595" type="line" smooth="yes"/>
      <point x="1812" y="1595"/>
      <point x="1840" y="1567"/>
      <point x="1844" y="1519" type="curve" smooth="yes"/>
      <point x="1904" y="760"/>
      <point x="1912" y="338"/>
      <point x="1912" y="165" type="curve" smooth="yes"/>
      <point x="1912" y="105"/>
      <point x="1911" y="75"/>
      <point x="1911" y="71" type="curve" smooth="yes"/>
      <point x="1911" y="27"/>
      <point x="1883" y="0"/>
      <point x="1838" y="0" type="curve" smooth="yes"/>
      <point x="1554" y="0" type="line" smooth="yes"/>
      <point x="1506" y="0"/>
      <point x="1476" y="28"/>
    </contour>
  </outline>
</glyph>
<glyph name="Q" format="1">
  <advance width="1710"/>
  <unicode hex="0051"/>
  <outline>
    <contour>
      <point x="1106" y="-491" type="curve" smooth="yes"/>
      <point x="828" y="-491"/>
      <point x="606" y="-455"/>
      <point x="604" y="-222" type="curve" smooth="yes"/>
      <point x="604" y="-188"/>
      <point x="606" y="-134"/>
      <point x="606" y="-114" type="curve" smooth="yes"/>
      <point x="606" y="-68"/>
      <point x="594" y="-42"/>
      <point x="511" y="-24" type="curve" smooth="yes"/>
      <point x="508" y="-23"/>
      <point x="506" y="-23"/>
      <point x="503" y="-22" type="curve" smooth="yes"/>
      <point x="185" y="25"/>
      <point x="114" y="197"/>
      <point x="114" y="805" type="curve" smooth="yes"/>
      <point x="114" y="1568"/>
      <point x="251" y="1631"/>
      <point x="852" y="1631" type="curve" smooth="yes"/>
      <point x="1424" y="1631"/>
      <point x="1596" y="1573"/>
      <point x="1596" y="808" type="curve" smooth="yes"/>
      <point x="1596" y="117"/>
      <point x="1487" y="-13"/>
      <point x="1053" y="-36" type="curve"/>
      <point x="1054" y="-80"/>
      <point x="1048" y="-153"/>
      <point x="1061" y="-159" type="curve" smooth="yes"/>
      <point x="1090" y="-173"/>
      <point x="1216" y="-179"/>
      <point x="1264" y="-179" type="curve" smooth="yes"/>
      <point x="1303" y="-179"/>
      <point x="1346" y="-175"/>
      <point x="1387" y="-169" type="curve" smooth="yes"/>
      <point x="1391" y="-168"/>
      <point x="1395" y="-168"/>
      <point x="1399" y="-168" type="curve" smooth="yes"/>
      <point x="1430" y="-168"/>
      <point x="1449" y="-187"/>
      <point x="1449" y="-217" type="curve" smooth="yes"/>
      <point x="1449" y="-222"/>
      <point x="1449" y="-228"/>
      <point x="1448" y="-233" type="curve" smooth="yes"/>
      <point x="1416" y="-406" type="line" smooth="yes"/>
      <point x="1407" y="-453"/>
      <point x="1405" y="-472"/>
      <point x="1356" y="-475" type="curve" smooth="yes"/>
      <point x="1303" y="-479"/>
      <point x="1153" y="-491"/>
    </contour>
    <contour>
      <point x="838" y="315" type="curve" smooth="yes"/>
      <point x="875" y="315" type="line" smooth="yes"/>
      <point x="988" y="315"/>
      <point x="991" y="315"/>
      <point x="991" y="799" type="curve" smooth="yes"/>
      <point x="991" y="1281"/>
      <point x="988" y="1282"/>
      <point x="876" y="1282" type="curve" smooth="yes"/>
      <point x="839" y="1282" type="line" smooth="yes"/>
      <point x="737" y="1282"/>
      <point x="736" y="1280"/>
      <point x="736" y="796" type="curve" smooth="yes"/>
      <point x="736" y="316"/>
      <point x="737" y="315"/>
    </contour>
  </outline>
</glyph>
<glyph name="T" format="1">
  <advance width="1313"/>
  <unicode hex="0054"/>
  <outline>
    <contour>
      <point x="957" y="76" type="curve" smooth="yes"/>
      <point x="954" y="29"/>
      <point x="929" y="0"/>
      <point x="881" y="0" type="curve" smooth="yes"/>
      <point x="429" y="0" type="line" smooth="yes"/>
      <point x="381" y="0"/>
      <point x="357" y="30"/>
      <point x="353" y="76" type="curve" smooth="yes"/>
      <point x="340" y="216"/>
      <point x="332" y="531"/>
      <point x="332" y="842" type="curve" smooth="yes"/>
      <point x="332" y="1031"/>
      <point x="335" y="1204"/>
      <point x="341" y="1326" type="curve"/>
      <point x="76" y="1326" type="line" smooth="yes"/>
      <point x="28" y="1326"/>
      <point x="0" y="1354"/>
      <point x="0" y="1402" type="curve" smooth="yes"/>
      <point x="0" y="1519" type="line" smooth="yes"/>
      <point x="0" y="1567"/>
      <point x="28" y="1595"/>
      <point x="76" y="1595" type="curve" smooth="yes"/>
      <point x="1237" y="1595" type="line" smooth="yes"/>
      <point x="1285" y="1595"/>
      <point x="1313" y="1567"/>
      <point x="1313" y="1519" type="curve" smooth="yes"/>
      <point x="1313" y="1402" type="line" smooth="yes"/>
      <point x="1313" y="1354"/>
      <point x="1285" y="1326"/>
      <point x="1237" y="1326" type="curve" smooth="yes"/>
      <point x="968" y="1326" type="line"/>
      <point x="975" y="1198"/>
      <point x="978" y="1033"/>
      <point x="978" y="842" type="curve" smooth="yes"/>
      <point x="978" y="562"/>
      <point x="971" y="265"/>
    </contour>
  </outline>
</glyph>
<glyph name="V" format="1">
  <advance width="1610"/>
  <unicode hex="0056"/>
  <outline>
    <contour>
      <point x="667" y="1520" type="curve" smooth="yes"/>
      <point x="805" y="600" type="line" smooth="yes"/>
      <point x="806" y="594"/>
      <point x="811" y="591"/>
      <point x="815" y="591" type="curve" smooth="yes"/>
      <point x="819" y="591"/>
      <point x="823" y="593"/>
      <point x="823" y="598" type="curve" smooth="yes"/>
      <point x="943" y="1520" type="line"/>
      <point x="948" y="1568"/>
      <point x="979" y="1595"/>
      <point x="1028" y="1595" type="curve" smooth="yes"/>
      <point x="1468" y="1595" type="line" smooth="yes"/>
      <point x="1508" y="1595"/>
      <point x="1530" y="1571"/>
      <point x="1530" y="1535" type="curve" smooth="yes"/>
      <point x="1530" y="1530"/>
      <point x="1530" y="1526"/>
      <point x="1529" y="1521" type="curve" smooth="yes"/>
      <point x="1454" y="1012"/>
      <point x="1335" y="454"/>
      <point x="1241" y="74" type="curve" smooth="yes"/>
      <point x="1229" y="26"/>
      <point x="1199" y="0"/>
      <point x="1150" y="0" type="curve" smooth="yes"/>
      <point x="460" y="0" type="line" smooth="yes"/>
      <point x="411" y="0"/>
      <point x="382" y="29"/>
      <point x="369" y="74" type="curve" smooth="yes"/>
      <point x="260" y="459"/>
      <point x="157" y="1019"/>
      <point x="81" y="1521" type="curve" smooth="yes"/>
      <point x="80" y="1526"/>
      <point x="80" y="1531"/>
      <point x="80" y="1536" type="curve" smooth="yes"/>
      <point x="80" y="1572"/>
      <point x="102" y="1595"/>
      <point x="142" y="1595" type="curve" smooth="yes"/>
      <point x="581" y="1595" type="line" smooth="yes"/>
      <point x="630" y="1595"/>
      <point x="660" y="1568"/>
    </contour>
  </outline>
</glyph>
<glyph name="X" format="1">
  <advance width="1586"/>
  <unicode hex="0058"/>
  <outline>
    <contour>
      <point x="784" y="514" type="line"/>
      <point x="631" y="72" type="line" smooth="yes"/>
      <point x="615" y="25"/>
      <point x="581" y="0"/>
      <point x="531" y="0" type="curve" smooth="yes"/>
      <point x="97" y="0" type="line" smooth="yes"/>
      <point x="64" y="0"/>
      <point x="45" y="18"/>
      <point x="45" y="44" type="curve" smooth="yes"/>
      <point x="45" y="52"/>
      <point x="46" y="61"/>
      <point x="50" y="70" type="curve" smooth="yes"/>
      <point x="325" y="727" type="line" smooth="yes"/>
      <point x="333" y="746"/>
      <point x="337" y="765"/>
      <point x="337" y="784" type="curve" smooth="yes"/>
      <point x="337" y="801"/>
      <point x="333" y="819"/>
      <point x="326" y="837" type="curve" smooth="yes"/>
      <point x="49" y="1525" type="line" smooth="yes"/>
      <point x="45" y="1534"/>
      <point x="44" y="1542"/>
      <point x="44" y="1550" type="curve" smooth="yes"/>
      <point x="44" y="1576"/>
      <point x="64" y="1595"/>
      <point x="97" y="1595" type="curve" smooth="yes"/>
      <point x="535" y="1595" type="line" smooth="yes"/>
      <point x="585" y="1595"/>
      <point x="619" y="1570"/>
      <point x="635" y="1523" type="curve" smooth="yes"/>
      <point x="789" y="1071" type="line"/>
      <point x="791" y="1071" type="line"/>
      <point x="946" y="1523" type="line" smooth="yes"/>
      <point x="963" y="1570"/>
      <point x="997" y="1595"/>
      <point x="1047" y="1595" type="curve" smooth="yes"/>
      <point x="1489" y="1595" type="line" smooth="yes"/>
      <point x="1522" y="1595"/>
      <point x="1542" y="1576"/>
      <point x="1542" y="1550" type="curve" smooth="yes"/>
      <point x="1542" y="1542"/>
      <point x="1541" y="1534"/>
      <point x="1537" y="1525" type="curve" smooth="yes"/>
      <point x="1257" y="837" type="line" smooth="yes"/>
      <point x="1250" y="819"/>
      <point x="1247" y="801"/>
      <point x="1247" y="783" type="curve" smooth="yes"/>
      <point x="1247" y="764"/>
      <point x="1250" y="746"/>
      <point x="1258" y="727" type="curve" smooth="yes"/>
      <point x="1536" y="70" type="line" smooth="yes"/>
      <point x="1540" y="61"/>
      <point x="1541" y="52"/>
      <point x="1541" y="44" type="curve" smooth="yes"/>
      <point x="1541" y="18"/>
      <point x="1522" y="0"/>
      <point x="1489" y="0" type="curve" smooth="yes"/>
      <point x="1043" y="0" type="line" smooth="yes"/>
      <point x="993" y="0"/>
      <point x="959" y="25"/>
      <point x="942" y="72" type="curve" smooth="yes"/>
      <point x="786" y="514" type="line"/>
    </contour>
  </outline>
</glyph>
<glyph name="Y" format="1">
  <advance width="1509"/>
  <unicode hex="0059"/>
  <outline>
    <contour>
      <point x="982.352" y="0" type="line"/>
      <point x="530.352" y="0" type="line" smooth="yes"/>
      <point x="482.352" y="0"/>
      <point x="458.352" y="30"/>
      <point x="454.352" y="76" type="curve" smooth="yes"/>
      <point x="445.352" y="169"/>
      <point x="439.352" y="338"/>
      <point x="436.352" y="532" type="curve"/>
      <point x="36.3518" y="1524" type="line" smooth="yes"/>
      <point x="20.3518" y="1564"/>
      <point x="41.3518" y="1595"/>
      <point x="84.3518" y="1595" type="curve" smooth="yes"/>
      <point x="492.352" y="1595" type="line" smooth="yes"/>
      <point x="542.352" y="1595"/>
      <point x="575.352" y="1570"/>
      <point x="588.352" y="1522" type="curve" smooth="yes"/>
      <point x="738.352" y="988" type="line"/>
      <point x="739.352" y="980"/>
      <point x="744.352" y="975"/>
      <point x="753.352" y="975" type="curve" smooth="yes"/>
      <point x="755.352" y="975" type="line" smooth="yes"/>
      <point x="763.352" y="975"/>
      <point x="768.352" y="980"/>
      <point x="769.352" y="988" type="curve"/>
      <point x="924.352" y="1522" type="line" smooth="yes"/>
      <point x="937.352" y="1570"/>
      <point x="970.352" y="1595"/>
      <point x="1020.35" y="1595" type="curve" smooth="yes"/>
      <point x="1424.35" y="1595" type="line" smooth="yes"/>
      <point x="1467.35" y="1595"/>
      <point x="1489.35" y="1564"/>
      <point x="1473.35" y="1524" type="curve" smooth="yes"/>
      <point x="1076.35" y="528" type="line"/>
      <point x="1073.35" y="355"/>
      <point x="1067.35" y="194"/>
      <point x="1058.35" y="76" type="curve" smooth="yes"/>
      <point x="1055.35" y="29"/>
      <point x="1030.35" y="0"/>
      <point x="982.352" y="0" type="curve" smooth="yes"/>
    </contour>
  </outline>
</glyph>
<glyph name="bracketleft" format="1">
  <advance width="1108"/>
  <unicode hex="005B"/>
  <outline>
    <contour>
      <point x="85" y="-243" type="curve" smooth="yes"/>
      <point x="85" y="1743" type="line" smooth="yes"/>
      <point x="85" y="1791"/>
      <point x="113" y="1819"/>
      <point x="161" y="1819" type="curve" smooth="yes"/>
      <point x="1004" y="1819" type="line" smooth="yes"/>
      <point x="1052" y="1819"/>
      <point x="1060" y="1791"/>
      <point x="1060" y="1743" type="curve" smooth="yes"/>
      <point x="1060" y="1653" type="line" smooth="yes"/>
      <point x="1060" y="1605"/>
      <point x="1052" y="1577"/>
      <point x="1004" y="1577" type="curve" smooth="yes"/>
      <point x="759" y="1577" type="line" smooth="yes"/>
      <point x="721" y="1577"/>
      <point x="719" y="1565"/>
      <point x="719" y="1527" type="curve" smooth="yes"/>
      <point x="719" y="-28" type="line" smooth="yes"/>
      <point x="719" y="-66"/>
      <point x="721" y="-78"/>
      <point x="759" y="-78" type="curve" smooth="yes"/>
      <point x="1004" y="-78" type="line" smooth="yes"/>
      <point x="1052" y="-78"/>
      <point x="1060" y="-106"/>
      <point x="1060" y="-154" type="curve" smooth="yes"/>
      <point x="1060" y="-243" type="line" smooth="yes"/>
      <point x="1060" y="-291"/>
      <point x="1052" y="-319"/>
      <point x="1004" y="-319" type="curve" smooth="yes"/>
      <point x="161" y="-319" type="line" smooth="yes"/>
      <point x="113" y="-319"/>
      <point x="85" y="-291"/>
    </contour>
  </outline>
</glyph>
<glyph name="backslash" format="1">
  <advance width="1053"/>
  <unicode hex="005C"/>
  <outline>
    <contour>
      <point x="188.887" y="1595" type="line"/>
      <point x="511.113" y="1595" type="line" smooth="yes"/>
      <point x="560.393" y="1595"/>
      <point x="592.734" y="1569.01"/>
      <point x="603.354" y="1520.89" type="curve" smooth="yes"/>
      <point x="922.646" y="74.1042" type="line" smooth="yes"/>
      <point x="932.359" y="30.0905"/>
      <point x="908.185" y="1.52588e-05"/>
      <point x="863.113" y="1.52588e-05" type="curve" smooth="yes"/>
      <point x="539.887" y="1.52588e-05" type="line" smooth="yes"/>
      <point x="490.611" y="1.52588e-05"/>
      <point x="458.281" y="25.9792"/>
      <point x="447.69" y="74.1042" type="curve" smooth="yes"/>
      <point x="129.31" y="1520.89" type="line" smooth="yes"/>
      <point x="119.621" y="1564.91"/>
      <point x="143.807" y="1595"/>
      <point x="188.887" y="1595" type="curve" smooth="yes"/>
    </contour>
  </outline>
</glyph>
<glyph name="bracketright" format="1">
  <advance width="1108"/>
  <unicode hex="005D"/>
  <outline>
    <contour>
      <point x="1010" y="1743.11" type="curve" smooth="yes"/>
      <point x="1010" y="-243.113" type="line" smooth="yes"/>
      <point x="1010" y="-290.603"/>
      <point x="981.603" y="-319"/>
      <point x="934.113" y="-319" type="curve" smooth="yes"/>
      <point x="91" y="-319" type="line" smooth="yes"/>
      <point x="43" y="-319"/>
      <point x="35" y="-290.603"/>
      <point x="35" y="-243.113" type="curve" smooth="yes"/>
      <point x="35" y="-152.887" type="line" smooth="yes"/>
      <point x="35" y="-105.397"/>
      <point x="43" y="-77"/>
      <point x="91" y="-77" type="curve" smooth="yes"/>
      <point x="336" y="-77" type="line" smooth="yes"/>
      <point x="374" y="-77"/>
      <point x="376" y="-65"/>
      <point x="376" y="-27" type="curve" smooth="yes"/>
      <point x="376" y="1528" type="line" smooth="yes"/>
      <point x="376" y="1566"/>
      <point x="374" y="1578"/>
      <point x="336" y="1578" type="curve" smooth="yes"/>
      <point x="91" y="1578" type="line" smooth="yes"/>
      <point x="43" y="1578"/>
      <point x="35" y="1606.4"/>
      <point x="35" y="1653.89" type="curve" smooth="yes"/>
      <point x="35" y="1743.11" type="line" smooth="yes"/>
      <point x="35" y="1790.6"/>
      <point x="43" y="1819"/>
      <point x="91" y="1819" type="curve" smooth="yes"/>
      <point x="934.113" y="1819" type="line" smooth="yes"/>
      <point x="981.603" y="1819"/>
      <point x="1010" y="1790.6"/>
    </contour>
  </outline>
</glyph>
<glyph name="asciicircum" format="1">
  <advance width="1222"/>
  <unicode hex="005E"/>
  <outline>
    <contour>
      <point x="393.887" y="676" type="line"/>
      <point x="820.113" y="676" type="line" smooth="yes"/>
      <point x="870.511" y="676"/>
      <point x="906.655" y="652.845"/>
      <point x="927.723" y="607.061" type="curve" smooth="yes"/>
      <point x="1147.28" y="129.939" type="line" smooth="yes"/>
      <point x="1164.84" y="91.7724"/>
      <point x="1145.13" y="61"/>
      <point x="1103.11" y="61" type="curve" smooth="yes"/>
      <point x="773.887" y="61" type="line" smooth="yes"/>
      <point x="724.279" y="61"/>
      <point x="691.032" y="86.3382"/>
      <point x="677.878" y="134.171" type="curve" smooth="yes"/>
      <point x="625.802" y="323.538" type="line" smooth="yes"/>
      <point x="619.724" y="345.64"/>
      <point x="600.689" y="345.529"/>
      <point x="594.869" y="323.357" type="curve" smooth="yes"/>
      <point x="545.268" y="134.401" type="line" smooth="yes"/>
      <point x="532.69" y="86.4869"/>
      <point x="499.65" y="61"/>
      <point x="450.113" y="61" type="curve" smooth="yes"/>
      <point x="121.887" y="61" type="line" smooth="yes"/>
      <point x="79.6465" y="61"/>
      <point x="59.6094" y="91.7713"/>
      <point x="76.6951" y="130.402" type="curve" smooth="yes"/>
      <point x="287.305" y="606.598" type="line" smooth="yes"/>
      <point x="307.668" y="652.638"/>
      <point x="343.545" y="676"/>
      <point x="393.887" y="676" type="curve"/>
    </contour>
  </outline>
</glyph>
<glyph name="underscore" format="1">
  <advance width="1042"/>
  <unicode hex="005F"/>
  <outline>
    <contour>
      <point x="153.887" y="1" type="curve" smooth="yes"/>
      <point x="891.113" y="1" type="line" smooth="yes"/>
      <point x="938.603" y="1"/>
      <point x="967" y="-27.397"/>
      <point x="967" y="-74.8873" type="curve" smooth="yes"/>
      <point x="967" y="-359.113" type="line" smooth="yes"/>
      <point x="967" y="-406.603"/>
      <point x="938.603" y="-435"/>
      <point x="891.113" y="-435" type="curve" smooth="yes"/>
      <point x="153.887" y="-435" type="line" smooth="yes"/>
      <point x="106.397" y="-435"/>
      <point x="78" y="-406.603"/>
      <point x="78" y="-359.113" type="curve" smooth="yes"/>
      <point x="78" y="-74.8873" type="line" smooth="yes"/>
      <point x="78" y="-27.397"/>
      <point x="106.397" y="1"/>
    </contour>
  </outline>
</glyph>
<glyph name="grave" format="1">
  <advance width="873"/>
  <unicode hex="0060"/>
  <outline>
    <contour>
      <point x="340" y="1893" type="curve" smooth="yes"/>
      <point x="441" y="1835"/>
      <point x="651" y="1629"/>
      <point x="814" y="1480" type="curve" smooth="yes"/>
      <point x="838" y="1459"/>
      <point x="848" y="1438"/>
      <point x="848" y="1420" type="curve" smooth="yes"/>
      <point x="848" y="1391"/>
      <point x="820" y="1371"/>
      <point x="785" y="1371" type="curve" smooth="yes"/>
      <point x="775" y="1371"/>
      <point x="764" y="1372"/>
      <point x="753" y="1376" type="curve" smooth="yes"/>
      <point x="548" y="1438"/>
      <point x="261" y="1510"/>
      <point x="157" y="1570" type="curve" smooth="yes"/>
      <point x="76" y="1617"/>
      <point x="41" y="1687"/>
      <point x="41" y="1752" type="curve" smooth="yes"/>
      <point x="41" y="1846"/>
      <point x="112" y="1930"/>
      <point x="215" y="1930" type="curve" smooth="yes"/>
      <point x="253" y="1930"/>
      <point x="295" y="1919"/>
    </contour>
  </outline>
</glyph>
<glyph name="b" format="1">
  <advance width="1563"/>
  <unicode hex="0062"/>
  <outline>
    <contour>
      <point x="1471" y="650" type="curve" smooth="yes"/>
      <point x="1471" y="566"/>
      <point x="1465" y="486"/>
      <point x="1452" y="377" type="curve" smooth="yes"/>
      <point x="1421" y="109"/>
      <point x="1313" y="-27"/>
      <point x="1035" y="-27" type="curve" smooth="yes"/>
      <point x="916" y="-27"/>
      <point x="807" y="8"/>
      <point x="739" y="70" type="curve" smooth="yes"/>
      <point x="729" y="79"/>
      <point x="719" y="83"/>
      <point x="710" y="83" type="curve" smooth="yes"/>
      <point x="697" y="83"/>
      <point x="687" y="73"/>
      <point x="681" y="54" type="curve"/>
      <point x="681" y="56" type="line"/>
      <point x="669" y="19"/>
      <point x="643" y="0"/>
      <point x="604" y="0" type="curve" smooth="yes"/>
      <point x="219" y="0" type="line" smooth="yes"/>
      <point x="171" y="0"/>
      <point x="145" y="29"/>
      <point x="143" y="76" type="curve" smooth="yes"/>
      <point x="132" y="290"/>
      <point x="128" y="534"/>
      <point x="128" y="768" type="curve" smooth="yes"/>
      <point x="128" y="1124"/>
      <point x="137" y="1458"/>
      <point x="143" y="1634" type="curve" smooth="yes"/>
      <point x="145" y="1681"/>
      <point x="171" y="1710"/>
      <point x="219" y="1710" type="curve" smooth="yes"/>
      <point x="638" y="1710" type="line" smooth="yes"/>
      <point x="686" y="1710"/>
      <point x="714" y="1682"/>
      <point x="714" y="1634" type="curve" smooth="yes"/>
      <point x="714" y="1278" type="line" smooth="yes"/>
      <point x="714" y="1258"/>
      <point x="723" y="1247"/>
      <point x="736" y="1247" type="curve" smooth="yes"/>
      <point x="742" y="1247"/>
      <point x="750" y="1249"/>
      <point x="758" y="1255" type="curve" smooth="yes"/>
      <point x="824" y="1304"/>
      <point x="917" y="1327"/>
      <point x="1038" y="1327" type="curve" smooth="yes"/>
      <point x="1307" y="1327"/>
      <point x="1424" y="1201"/>
      <point x="1452" y="940" type="curve" smooth="yes"/>
      <point x="1465" y="819"/>
      <point x="1471" y="732"/>
    </contour>
    <contour>
      <point x="774" y="199" type="curve" smooth="yes"/>
      <point x="821" y="199" type="line" smooth="yes"/>
      <point x="859" y="199"/>
      <point x="876" y="223"/>
      <point x="881" y="259" type="curve" smooth="yes"/>
      <point x="896" y="372"/>
      <point x="903" y="517"/>
      <point x="903" y="658" type="curve" smooth="yes"/>
      <point x="903" y="803"/>
      <point x="896" y="944"/>
      <point x="881" y="1045" type="curve" smooth="yes"/>
      <point x="876" y="1078"/>
      <point x="859" y="1105"/>
      <point x="821" y="1105" type="curve" smooth="yes"/>
      <point x="774" y="1105" type="line" smooth="yes"/>
      <point x="736" y="1105"/>
      <point x="714" y="1083"/>
      <point x="714" y="1045" type="curve" smooth="yes"/>
      <point x="714" y="259" type="line" smooth="yes"/>
      <point x="714" y="221"/>
      <point x="736" y="199"/>
    </contour>
  </outline>
</glyph>
<glyph name="d" format="1">
  <advance width="1478"/>
  <unicode hex="0064"/>
  <outline>
    <contour>
      <point x="85" y="940" type="line" smooth="yes"/>
      <point x="85" y="1203"/>
      <point x="228" y="1327"/>
      <point x="500" y="1327" type="curve" smooth="yes"/>
      <point x="620.667" y="1327"/>
      <point x="712.859" y="1304.35"/>
      <point x="779.181" y="1255.41" type="curve" smooth="yes"/>
      <point x="803.181" y="1237.7"/>
      <point x="823" y="1247.7"/>
      <point x="823" y="1277.53" type="curve" smooth="yes"/>
      <point x="823" y="1634.11" type="line" smooth="yes"/>
      <point x="823" y="1681.6"/>
      <point x="851.397" y="1710"/>
      <point x="898.887" y="1710" type="curve" smooth="yes"/>
      <point x="1318.11" y="1710" type="line" smooth="yes"/>
      <point x="1365.6" y="1710"/>
      <point x="1394" y="1681.6"/>
      <point x="1394" y="1634.11" type="curve" smooth="yes"/>
      <point x="1394" y="75.8873" type="line" smooth="yes"/>
      <point x="1394" y="28.397"/>
      <point x="1365.6" y="1.52588e-05"/>
      <point x="1318.11" y="1.52588e-05" type="curve" smooth="yes"/>
      <point x="932.927" y="1.52588e-05" type="line" smooth="yes"/>
      <point x="894.82" y="1.52588e-05"/>
      <point x="868.592" y="18.6101"/>
      <point x="856.375" y="54.3037" type="curve" smooth="yes"/>
      <point x="845.892" y="86.604"/>
      <point x="822.997" y="92.7907"/>
      <point x="797.672" y="70.1668" type="curve" smooth="yes"/>
      <point x="728.873" y="8.70685"/>
      <point x="621.837" y="-27"/>
      <point x="502" y="-27" type="curve" smooth="yes"/>
      <point x="224" y="-27"/>
      <point x="85" y="106"/>
      <point x="85" y="377" type="curve" smooth="yes"/>
    </contour>
    <contour>
      <point x="822" y="258.596" type="line"/>
      <point x="822" y="1045.4" type="line" smooth="yes"/>
      <point x="822" y="1082.7"/>
      <point x="799.699" y="1105"/>
      <point x="762.404" y="1105" type="curve" smooth="yes"/>
      <point x="714.596" y="1105" type="line" smooth="yes"/>
      <point x="677.301" y="1105"/>
      <point x="655" y="1082.7"/>
      <point x="655" y="1045.4" type="curve" smooth="yes"/>
      <point x="655" y="258.596" type="line" smooth="yes"/>
      <point x="655" y="221.301"/>
      <point x="677.301" y="199"/>
      <point x="714.596" y="199" type="curve" smooth="yes"/>
      <point x="762.404" y="199" type="line" smooth="yes"/>
      <point x="799.699" y="199"/>
      <point x="822" y="221.301"/>
      <point x="822" y="258.596" type="curve" smooth="yes"/>
    </contour>
  </outline>
</glyph>
<glyph name="e" format="1">
  <advance width="1513"/>
  <unicode hex="0065"/>
  <outline>
    <contour>
      <point x="783" y="-27" type="curve" smooth="yes"/>
      <point x="1190" y="-27"/>
      <point x="1266" y="134"/>
      <point x="1283" y="272" type="curve" smooth="yes"/>
      <point x="1284" y="280"/>
      <point x="1288" y="310"/>
      <point x="1288" y="319" type="curve" smooth="yes"/>
      <point x="1288" y="328"/>
      <point x="1287" y="336"/>
      <point x="1287" y="342" type="curve" smooth="yes"/>
      <point x="1284" y="373"/>
      <point x="1253" y="379"/>
      <point x="1222" y="379" type="curve" smooth="yes"/>
      <point x="1191" y="379" type="line" smooth="yes"/>
      <point x="1147" y="379"/>
      <point x="1132" y="371"/>
      <point x="1125" y="323" type="curve" smooth="yes"/>
      <point x="1104" y="170"/>
      <point x="1049" y="117"/>
      <point x="781" y="117" type="curve" smooth="yes"/>
      <point x="399" y="117"/>
      <point x="369" y="220"/>
      <point x="369" y="514" type="curve" smooth="yes"/>
      <point x="369" y="575" type="line" smooth="yes"/>
      <point x="369" y="613"/>
      <point x="371" y="615"/>
      <point x="409" y="615" type="curve" smooth="yes"/>
      <point x="1221" y="615" type="line" smooth="yes"/>
      <point x="1285" y="615"/>
      <point x="1299" y="678"/>
      <point x="1299" y="758" type="curve" smooth="yes"/>
      <point x="1299" y="782"/>
      <point x="1297" y="809"/>
      <point x="1296" y="835" type="curve" smooth="yes"/>
      <point x="1278" y="1164"/>
      <point x="1201" y="1327"/>
      <point x="781" y="1327" type="curve" smooth="yes"/>
      <point x="405" y="1327"/>
      <point x="253" y="1240"/>
      <point x="203" y="983" type="curve" smooth="yes"/>
      <point x="189" y="912"/>
      <point x="184" y="773"/>
      <point x="184" y="658" type="curve" smooth="yes"/>
      <point x="184" y="545"/>
      <point x="188" y="381"/>
      <point x="208" y="303" type="curve" smooth="yes"/>
      <point x="260" y="97"/>
      <point x="349" y="-27"/>
    </contour>
    <contour>
      <point x="409" y="748" type="line" smooth="yes"/>
      <point x="371" y="748"/>
      <point x="369" y="750"/>
      <point x="369" y="788" type="curve" smooth="yes"/>
      <point x="369" y="845" type="line" smooth="yes"/>
      <point x="369" y="1056"/>
      <point x="381" y="1183"/>
      <point x="782" y="1183" type="curve" smooth="yes"/>
      <point x="1100" y="1183"/>
      <point x="1126" y="1060"/>
      <point x="1126" y="835" type="curve" smooth="yes"/>
      <point x="1126" y="788" type="line" smooth="yes"/>
      <point x="1126" y="750"/>
      <point x="1124" y="748"/>
      <point x="1086" y="748" type="curve" smooth="yes"/>
    </contour>
  </outline>
</glyph>
<glyph name="f" format="1">
  <advance width="1205"/>
  <unicode hex="0066"/>
  <outline>
    <contour>
      <point x="131.887" y="1300" type="line"/>
      <point x="241" y="1300" type="line" smooth="yes"/>
      <point x="260" y="1300"/>
      <point x="264" y="1308"/>
      <point x="265" y="1330" type="curve" smooth="yes"/>
      <point x="278" y="1609"/>
      <point x="465.98" y="1731"/>
      <point x="773" y="1731" type="curve" smooth="yes"/>
      <point x="870.01" y="1731"/>
      <point x="969.55" y="1723.41"/>
      <point x="1065.58" y="1702.2" type="curve" smooth="yes"/>
      <point x="1110.99" y="1692.18"/>
      <point x="1139" y="1657.3"/>
      <point x="1139" y="1610.81" type="curve" smooth="yes"/>
      <point x="1139" y="1552.89" type="line" smooth="yes"/>
      <point x="1139" y="1505.4"/>
      <point x="1111" y="1477"/>
      <point x="1063.11" y="1477" type="curve" smooth="yes"/>
      <point x="994" y="1477" type="line" smooth="yes"/>
      <point x="846" y="1477"/>
      <point x="834" y="1425"/>
      <point x="834" y="1323" type="curve" smooth="yes"/>
      <point x="834" y="1305"/>
      <point x="846" y="1300"/>
      <point x="864" y="1300" type="curve" smooth="yes"/>
      <point x="1072.11" y="1300" type="line" smooth="yes"/>
      <point x="1120" y="1300"/>
      <point x="1148" y="1271.6"/>
      <point x="1148" y="1224.11" type="curve" smooth="yes"/>
      <point x="1148" y="1173.89" type="line" smooth="yes"/>
      <point x="1148" y="1126.4"/>
      <point x="1120" y="1098"/>
      <point x="1072.11" y="1098" type="curve" smooth="yes"/>
      <point x="854" y="1098" type="line" smooth="yes"/>
      <point x="836" y="1098"/>
      <point x="834" y="1086"/>
      <point x="834" y="1068" type="curve" smooth="yes"/>
      <point x="834" y="75.8873" type="line" smooth="yes"/>
      <point x="834" y="28"/>
      <point x="805.603" y="-3.05176e-05"/>
      <point x="758.113" y="-3.05176e-05" type="curve" smooth="yes"/>
      <point x="338.887" y="-3.05176e-05" type="line" smooth="yes"/>
      <point x="291.397" y="-3.05176e-05"/>
      <point x="263" y="28"/>
      <point x="263" y="75.8873" type="curve" smooth="yes"/>
      <point x="263" y="1068" type="line" smooth="yes"/>
      <point x="263" y="1096"/>
      <point x="261" y="1098"/>
      <point x="233" y="1098" type="curve" smooth="yes"/>
      <point x="131.887" y="1098" type="line" smooth="yes"/>
      <point x="84" y="1098"/>
      <point x="56" y="1126.4"/>
      <point x="56" y="1173.89" type="curve" smooth="yes"/>
      <point x="56" y="1224.11" type="line" smooth="yes"/>
      <point x="56" y="1271.6"/>
      <point x="84" y="1300"/>
      <point x="131.887" y="1300" type="curve"/>
    </contour>
  </outline>
</glyph>
<glyph name="h" format="1">
  <advance width="1591"/>
  <unicode hex="0068"/>
  <outline>
    <contour>
      <point x="215" y="0" type="line" smooth="yes"/>
      <point x="167" y="0"/>
      <point x="140" y="28"/>
      <point x="139" y="76" type="curve" smooth="yes"/>
      <point x="136" y="183"/>
      <point x="133" y="290"/>
      <point x="131" y="395" type="curve" smooth="yes"/>
      <point x="130" y="454"/>
      <point x="129" y="513"/>
      <point x="128" y="570" type="curve" smooth="yes"/>
      <point x="127" y="686"/>
      <point x="126" y="801"/>
      <point x="126" y="913" type="curve" smooth="yes"/>
      <point x="126" y="1167"/>
      <point x="130" y="1409"/>
      <point x="139" y="1634" type="curve" smooth="yes"/>
      <point x="141" y="1679"/>
      <point x="167" y="1710"/>
      <point x="215" y="1710" type="curve" smooth="yes"/>
      <point x="634" y="1710" type="line" smooth="yes"/>
      <point x="682" y="1710"/>
      <point x="708" y="1681"/>
      <point x="710" y="1634" type="curve" smooth="yes"/>
      <point x="715" y="1512"/>
      <point x="718" y="1369"/>
      <point x="720" y="1224" type="curve"/>
      <point x="723" y="1226"/>
      <point x="726" y="1228"/>
      <point x="729" y="1231" type="curve" smooth="yes"/>
      <point x="798" y="1290"/>
      <point x="950" y="1327"/>
      <point x="1073" y="1327" type="curve" smooth="yes"/>
      <point x="1346" y="1326"/>
      <point x="1444" y="1195"/>
      <point x="1464" y="944" type="curve" smooth="yes"/>
      <point x="1472" y="841"/>
      <point x="1477" y="684"/>
      <point x="1477" y="516" type="curve" smooth="yes"/>
      <point x="1477" y="370"/>
      <point x="1473" y="214"/>
      <point x="1464" y="76" type="curve" smooth="yes"/>
      <point x="1461" y="28"/>
      <point x="1436" y="0"/>
      <point x="1388" y="0" type="curve" smooth="yes"/>
      <point x="969" y="0" type="line" smooth="yes"/>
      <point x="921" y="0"/>
      <point x="893" y="28"/>
      <point x="893" y="76" type="curve" smooth="yes"/>
      <point x="893" y="1045" type="line" smooth="yes"/>
      <point x="893" y="1083"/>
      <point x="871" y="1105"/>
      <point x="833" y="1105" type="curve" smooth="yes"/>
      <point x="774" y="1105" type="line" smooth="yes"/>
      <point x="750" y="1105"/>
      <point x="732" y="1096"/>
      <point x="722" y="1079" type="curve"/>
      <point x="723" y="1021"/>
      <point x="723" y="963"/>
      <point x="723" y="907" type="curve" smooth="yes"/>
      <point x="723" y="681"/>
      <point x="719" y="476"/>
      <point x="714" y="249" type="curve"/>
      <point x="714" y="76" type="line" smooth="yes"/>
      <point x="714" y="28"/>
      <point x="686" y="0"/>
      <point x="638" y="0" type="curve" smooth="yes"/>
    </contour>
  </outline>
</glyph>
<glyph name="i" format="1">
  <advance width="759"/>
  <unicode hex="0069"/>
  <outline>
    <contour>
      <point x="294" y="1543" type="curve" smooth="yes"/>
      <point x="294" y="1501" type="line" smooth="yes"/>
      <point x="294" y="1453"/>
      <point x="322" y="1425"/>
      <point x="370" y="1425" type="curve" smooth="yes"/>
      <point x="409" y="1425" type="line" smooth="yes"/>
      <point x="457" y="1425"/>
      <point x="485" y="1453"/>
      <point x="485" y="1501" type="curve" smooth="yes"/>
      <point x="485" y="1543" type="line" smooth="yes"/>
      <point x="485" y="1591"/>
      <point x="457" y="1619"/>
      <point x="409" y="1619" type="curve" smooth="yes"/>
      <point x="370" y="1619" type="line" smooth="yes"/>
      <point x="322" y="1619"/>
      <point x="294" y="1591"/>
    </contour>
    <contour>
      <point x="410" y="0" type="line" smooth="yes"/>
      <point x="458" y="0"/>
      <point x="476" y="17"/>
      <point x="480" y="76" type="curve" smooth="yes"/>
      <point x="492" y="243"/>
      <point x="493" y="571"/>
      <point x="493" y="691" type="curve" smooth="yes"/>
      <point x="493" y="838"/>
      <point x="487" y="979"/>
      <point x="475" y="1224" type="curve"/>
      <point x="468" y="1272"/>
      <point x="456" y="1300"/>
      <point x="408" y="1300" type="curve" smooth="yes"/>
      <point x="389" y="1300" type="line" smooth="yes"/>
      <point x="341" y="1300"/>
      <point x="323" y="1283"/>
      <point x="319" y="1224" type="curve" smooth="yes"/>
      <point x="307" y="1057"/>
      <point x="306" y="809"/>
      <point x="306" y="689" type="curve" smooth="yes"/>
      <point x="306" y="542"/>
      <point x="312" y="321"/>
      <point x="324" y="76" type="curve"/>
      <point x="331" y="28"/>
      <point x="343" y="0"/>
      <point x="391" y="0" type="curve" smooth="yes"/>
    </contour>
  </outline>
</glyph>
<glyph name="j" format="1">
  <advance width="868"/>
  <unicode hex="006A"/>
  <outline>
    <contour>
      <point x="784" y="1224.11" type="line"/>
      <point x="784" y="94" type="line" smooth="yes"/>
      <point x="784" y="-199"/>
      <point x="620" y="-326"/>
      <point x="323" y="-326" type="curve" smooth="yes"/>
      <point x="247.371" y="-326"/>
      <point x="185.703" y="-323.593"/>
      <point x="127.975" y="-316.774" type="curve" smooth="yes"/>
      <point x="81.6765" y="-311.306"/>
      <point x="49.8222" y="-279.683"/>
      <point x="44.0159" y="-233.426" type="curve" smooth="yes"/>
      <point x="32.4514" y="-141.296" type="line" smooth="yes"/>
      <point x="26.7003" y="-95.4787"/>
      <point x="52.71" y="-66"/>
      <point x="98.8873" y="-66" type="curve" smooth="yes"/>
      <point x="152.404" y="-66" type="line" smooth="yes"/>
      <point x="189.699" y="-66"/>
      <point x="212" y="-43.6994"/>
      <point x="212" y="-6.40437" type="curve" smooth="yes"/>
      <point x="212" y="1224.11" type="line" smooth="yes"/>
      <point x="212" y="1271.6"/>
      <point x="240.397" y="1300"/>
      <point x="287.887" y="1300" type="curve" smooth="yes"/>
      <point x="708.113" y="1300" type="line" smooth="yes"/>
      <point x="755.603" y="1300"/>
      <point x="784" y="1271.6"/>
      <point x="784" y="1224.11" type="curve" smooth="yes"/>
    </contour>
    <contour>
      <point x="287.887" y="1709" type="curve" smooth="yes"/>
      <point x="708.113" y="1709" type="line" smooth="yes"/>
      <point x="755.603" y="1709"/>
      <point x="784" y="1680.6"/>
      <point x="784" y="1633.11" type="curve" smooth="yes"/>
      <point x="784" y="1500.89" type="line" smooth="yes"/>
      <point x="784" y="1453.4"/>
      <point x="755.603" y="1425"/>
      <point x="708.113" y="1425" type="curve" smooth="yes"/>
      <point x="287.887" y="1425" type="line" smooth="yes"/>
      <point x="240.397" y="1425"/>
      <point x="212" y="1453.4"/>
      <point x="212" y="1500.89" type="curve" smooth="yes"/>
      <point x="212" y="1633.11" type="line" smooth="yes"/>
      <point x="212" y="1680.6"/>
      <point x="240.397" y="1709"/>
    </contour>
  </outline>
</glyph>
<glyph name="k" format="1">
  <advance width="1637"/>
  <unicode hex="006B"/>
  <outline>
    <contour>
      <point x="635" y="0" type="curve" smooth="yes"/>
      <point x="216" y="0" type="line" smooth="yes"/>
      <point x="168" y="0"/>
      <point x="142" y="29"/>
      <point x="140" y="76" type="curve" smooth="yes"/>
      <point x="134" y="216"/>
      <point x="128" y="493"/>
      <point x="128" y="841" type="curve" smooth="yes"/>
      <point x="128" y="1100"/>
      <point x="131" y="1421"/>
      <point x="140" y="1634" type="curve" smooth="yes"/>
      <point x="142" y="1682"/>
      <point x="168" y="1710"/>
      <point x="216" y="1710" type="curve" smooth="yes"/>
      <point x="635" y="1710" type="line" smooth="yes"/>
      <point x="683" y="1710"/>
      <point x="711" y="1682"/>
      <point x="711" y="1634" type="curve"/>
      <point x="728" y="858" type="line" smooth="yes"/>
      <point x="728" y="845"/>
      <point x="734" y="838"/>
      <point x="741" y="838" type="curve" smooth="yes"/>
      <point x="746" y="838"/>
      <point x="752" y="842"/>
      <point x="756" y="851" type="curve" smooth="yes"/>
      <point x="961" y="1233" type="line" smooth="yes"/>
      <point x="985" y="1278"/>
      <point x="1022" y="1300"/>
      <point x="1073" y="1300" type="curve" smooth="yes"/>
      <point x="1507" y="1300" type="line" smooth="yes"/>
      <point x="1537" y="1300"/>
      <point x="1555" y="1284"/>
      <point x="1555" y="1261" type="curve" smooth="yes"/>
      <point x="1555" y="1253"/>
      <point x="1552" y="1243"/>
      <point x="1547" y="1233" type="curve" smooth="yes"/>
      <point x="1296" y="762" type="line" smooth="yes"/>
      <point x="1287" y="744"/>
      <point x="1282" y="726"/>
      <point x="1282" y="708" type="curve" smooth="yes"/>
      <point x="1282" y="691"/>
      <point x="1286" y="674"/>
      <point x="1294" y="656" type="curve" smooth="yes"/>
      <point x="1573" y="68" type="line" smooth="yes"/>
      <point x="1577" y="59"/>
      <point x="1580" y="49"/>
      <point x="1580" y="41" type="curve" smooth="yes"/>
      <point x="1580" y="17"/>
      <point x="1561" y="0"/>
      <point x="1530" y="0" type="curve" smooth="yes"/>
      <point x="1086" y="0" type="line" smooth="yes"/>
      <point x="1036" y="0"/>
      <point x="1000" y="24"/>
      <point x="981" y="70" type="curve" smooth="yes"/>
      <point x="791" y="527" type="line" smooth="yes"/>
      <point x="786" y="538"/>
      <point x="770" y="565"/>
      <point x="750" y="554" type="curve" smooth="yes"/>
      <point x="732" y="544"/>
      <point x="729" y="495"/>
      <point x="728" y="466" type="curve" smooth="yes"/>
      <point x="711" y="76" type="line" smooth="yes"/>
      <point x="709" y="28"/>
      <point x="683" y="0"/>
    </contour>
  </outline>
</glyph>
<glyph name="l" format="1">
  <advance width="853"/>
  <unicode hex="006C"/>
  <outline>
    <contour>
      <point x="636" y="1710" type="line" smooth="yes"/>
      <point x="684" y="1710"/>
      <point x="710" y="1681"/>
      <point x="712" y="1634" type="curve" smooth="yes"/>
      <point x="720" y="1422"/>
      <point x="725" y="1146"/>
      <point x="725" y="907" type="curve" smooth="yes"/>
      <point x="725" y="625"/>
      <point x="719" y="377"/>
      <point x="712" y="76" type="curve" smooth="yes"/>
      <point x="711" y="28"/>
      <point x="684" y="0"/>
      <point x="636" y="0" type="curve" smooth="yes"/>
      <point x="217" y="0" type="line" smooth="yes"/>
      <point x="169" y="0"/>
      <point x="142" y="28"/>
      <point x="141" y="76" type="curve" smooth="yes"/>
      <point x="133" y="363"/>
      <point x="128" y="644"/>
      <point x="128" y="913" type="curve" smooth="yes"/>
      <point x="128" y="1167"/>
      <point x="132" y="1409"/>
      <point x="141" y="1634" type="curve" smooth="yes"/>
      <point x="143" y="1679"/>
      <point x="169" y="1710"/>
      <point x="217" y="1710" type="curve" smooth="yes"/>
    </contour>
  </outline>
</glyph>
<glyph name="m" format="1">
  <advance width="2322"/>
  <unicode hex="006D"/>
  <outline>
    <contour>
      <point x="708" y="76" type="line" smooth="yes"/>
      <point x="708" y="28"/>
      <point x="680" y="0"/>
      <point x="632" y="0" type="curve" smooth="yes"/>
      <point x="219" y="0" type="line" smooth="yes"/>
      <point x="171" y="0"/>
      <point x="150" y="28"/>
      <point x="143" y="76" type="curve"/>
      <point x="133" y="284"/>
      <point x="128" y="481"/>
      <point x="128" y="672" type="curve" smooth="yes"/>
      <point x="128" y="862"/>
      <point x="133" y="1046"/>
      <point x="143" y="1224" type="curve"/>
      <point x="150" y="1283"/>
      <point x="171" y="1300"/>
      <point x="219" y="1300" type="curve" smooth="yes"/>
      <point x="595" y="1300" type="line" smooth="yes"/>
      <point x="633" y="1300"/>
      <point x="659" y="1281"/>
      <point x="671" y="1245" type="curve"/>
      <point x="671" y="1247" type="line"/>
      <point x="677" y="1228"/>
      <point x="688" y="1217"/>
      <point x="701" y="1217" type="curve" smooth="yes"/>
      <point x="709" y="1217"/>
      <point x="719" y="1222"/>
      <point x="729" y="1231" type="curve" smooth="yes"/>
      <point x="798" y="1290"/>
      <point x="978" y="1327"/>
      <point x="1101" y="1327" type="curve" smooth="yes"/>
      <point x="1256" y="1326"/>
      <point x="1354" y="1284"/>
      <point x="1414" y="1202" type="curve"/>
      <point x="1470" y="1246"/>
      <point x="1558" y="1327"/>
      <point x="1804" y="1327" type="curve" smooth="yes"/>
      <point x="2077" y="1327"/>
      <point x="2175" y="1215"/>
      <point x="2195" y="964" type="curve" smooth="yes"/>
      <point x="2203" y="861"/>
      <point x="2208" y="694"/>
      <point x="2208" y="526" type="curve" smooth="yes"/>
      <point x="2208" y="380"/>
      <point x="2204" y="214"/>
      <point x="2195" y="76" type="curve" smooth="yes"/>
      <point x="2192" y="28"/>
      <point x="2167" y="0"/>
      <point x="2119" y="0" type="curve" smooth="yes"/>
      <point x="1706" y="0" type="line" smooth="yes"/>
      <point x="1658" y="0"/>
      <point x="1630" y="28"/>
      <point x="1630" y="76" type="curve" smooth="yes"/>
      <point x="1630" y="1045" type="line" smooth="yes"/>
      <point x="1630" y="1083"/>
      <point x="1608" y="1105"/>
      <point x="1570" y="1105" type="curve" smooth="yes"/>
      <point x="1511" y="1105" type="line" smooth="yes"/>
      <point x="1448" y="1105"/>
      <point x="1446" y="1074"/>
      <point x="1446" y="997" type="curve" smooth="yes"/>
      <point x="1446" y="76" type="line" smooth="yes"/>
      <point x="1446" y="28"/>
      <point x="1418" y="0"/>
      <point x="1370" y="0" type="curve" smooth="yes"/>
      <point x="963" y="0" type="line" smooth="yes"/>
      <point x="915" y="0"/>
      <point x="887" y="28"/>
      <point x="887" y="76" type="curve" smooth="yes"/>
      <point x="887" y="1045" type="line" smooth="yes"/>
      <point x="887" y="1083"/>
      <point x="865" y="1105"/>
      <point x="827" y="1105" type="curve" smooth="yes"/>
      <point x="768" y="1105" type="line" smooth="yes"/>
      <point x="730" y="1105"/>
      <point x="708" y="1083"/>
      <point x="708" y="1045" type="curve" smooth="yes"/>
    </contour>
  </outline>
</glyph>
<glyph name="n" format="1">
  <advance width="1579"/>
  <unicode hex="006E"/>
  <outline>
    <contour>
      <point x="391" y="0" type="curve" smooth="yes"/>
      <point x="422" y="0" type="line" smooth="yes"/>
      <point x="470" y="0"/>
      <point x="492" y="28"/>
      <point x="492" y="76" type="curve" smooth="yes"/>
      <point x="492" y="917" type="line" smooth="yes"/>
      <point x="492" y="1135"/>
      <point x="608" y="1183"/>
      <point x="845" y="1183" type="curve" smooth="yes"/>
      <point x="1046" y="1183"/>
      <point x="1143" y="1142"/>
      <point x="1143" y="904" type="curve" smooth="yes"/>
      <point x="1143" y="76" type="line" smooth="yes"/>
      <point x="1143" y="28"/>
      <point x="1171" y="0"/>
      <point x="1219" y="0" type="curve" smooth="yes"/>
      <point x="1248" y="0" type="line" smooth="yes"/>
      <point x="1296" y="0"/>
      <point x="1312" y="28"/>
      <point x="1315" y="76" type="curve" smooth="yes"/>
      <point x="1324" y="214"/>
      <point x="1329" y="370"/>
      <point x="1329" y="516" type="curve" smooth="yes"/>
      <point x="1329" y="684"/>
      <point x="1324" y="882"/>
      <point x="1317" y="985" type="curve" smooth="yes"/>
      <point x="1298" y="1258"/>
      <point x="1133" y="1327"/>
      <point x="892" y="1327" type="curve" smooth="yes"/>
      <point x="697" y="1327"/>
      <point x="570" y="1258"/>
      <point x="529" y="1222" type="curve" smooth="yes"/>
      <point x="513" y="1208"/>
      <point x="500" y="1199"/>
      <point x="490" y="1199" type="curve" smooth="yes"/>
      <point x="480" y="1199"/>
      <point x="473" y="1210"/>
      <point x="469" y="1237" type="curve" smooth="yes"/>
      <point x="464" y="1274"/>
      <point x="447" y="1300"/>
      <point x="409" y="1300" type="curve" smooth="yes"/>
      <point x="389" y="1300" type="line" smooth="yes"/>
      <point x="341" y="1300"/>
      <point x="323" y="1283"/>
      <point x="319" y="1224" type="curve" smooth="yes"/>
      <point x="307" y="1057"/>
      <point x="306" y="839"/>
      <point x="306" y="719" type="curve" smooth="yes"/>
      <point x="306" y="572"/>
      <point x="312" y="321"/>
      <point x="324" y="76" type="curve"/>
      <point x="331" y="28"/>
      <point x="343" y="0"/>
    </contour>
  </outline>
</glyph>
<glyph name="o" format="1">
  <advance width="1525"/>
  <unicode hex="006F"/>
  <outline>
    <contour>
      <point x="742" y="-27" type="curve" smooth="yes"/>
      <point x="1060" y="-27"/>
      <point x="1258" y="3"/>
      <point x="1298" y="363" type="curve" smooth="yes"/>
      <point x="1303" y="409"/>
      <point x="1307" y="523"/>
      <point x="1307" y="648" type="curve" smooth="yes"/>
      <point x="1307" y="774"/>
      <point x="1302" y="891"/>
      <point x="1298" y="943" type="curve" smooth="yes"/>
      <point x="1270" y="1283"/>
      <point x="1039" y="1327"/>
      <point x="742" y="1327" type="curve" smooth="yes"/>
      <point x="448" y="1327"/>
      <point x="215" y="1283"/>
      <point x="187" y="943" type="curve" smooth="yes"/>
      <point x="183" y="891"/>
      <point x="178" y="774"/>
      <point x="178" y="648" type="curve" smooth="yes"/>
      <point x="178" y="523"/>
      <point x="182" y="409"/>
      <point x="187" y="363" type="curve" smooth="yes"/>
      <point x="227" y="3"/>
      <point x="427" y="-27"/>
    </contour>
    <contour>
      <point x="742" y="117" type="curve" smooth="yes"/>
      <point x="495" y="117"/>
      <point x="364" y="148"/>
      <point x="364" y="383" type="curve" smooth="yes"/>
      <point x="364" y="945" type="line" smooth="yes"/>
      <point x="364" y="1133"/>
      <point x="486" y="1183"/>
      <point x="742" y="1183" type="curve" smooth="yes"/>
      <point x="1001" y="1183"/>
      <point x="1121" y="1133"/>
      <point x="1121" y="945" type="curve" smooth="yes"/>
      <point x="1121" y="383" type="line" smooth="yes"/>
      <point x="1121" y="148"/>
      <point x="992" y="117"/>
    </contour>
  </outline>
</glyph>
<glyph name="p" format="1">
  <advance width="1476"/>
  <unicode hex="0070"/>
  <outline>
    <contour>
      <point x="1409" y="365" type="line" smooth="yes"/>
      <point x="1409" y="99"/>
      <point x="1263" y="-27"/>
      <point x="989" y="-27" type="curve" smooth="yes"/>
      <point x="877.42" y="-27"/>
      <point x="778.727" y="-4.44661"/>
      <point x="712.579" y="45.3156" type="curve" smooth="yes"/>
      <point x="689.039" y="63.024"/>
      <point x="670" y="53.5217"/>
      <point x="670" y="24.0649" type="curve" smooth="yes"/>
      <point x="670" y="-332.113" type="line" smooth="yes"/>
      <point x="670" y="-379.603"/>
      <point x="641.603" y="-408"/>
      <point x="594.113" y="-408" type="curve" smooth="yes"/>
      <point x="174.887" y="-408" type="line" smooth="yes"/>
      <point x="127.397" y="-408"/>
      <point x="99" y="-379.603"/>
      <point x="99" y="-332.113" type="curve" smooth="yes"/>
      <point x="99" y="1224.11" type="line" smooth="yes"/>
      <point x="99" y="1271.6"/>
      <point x="127.397" y="1300"/>
      <point x="174.887" y="1300" type="curve" smooth="yes"/>
      <point x="531.023" y="1300" type="line" smooth="yes"/>
      <point x="568.488" y="1300"/>
      <point x="594.347" y="1281.79"/>
      <point x="606.575" y="1246.8" type="curve" smooth="yes"/>
      <point x="617.282" y="1214.39"/>
      <point x="639.934" y="1207.93"/>
      <point x="666.123" y="1229.83" type="curve" smooth="yes"/>
      <point x="741.096" y="1292.51"/>
      <point x="859.754" y="1327"/>
      <point x="986" y="1327" type="curve" smooth="yes"/>
      <point x="1262" y="1327"/>
      <point x="1409" y="1198"/>
      <point x="1409" y="926" type="curve" smooth="yes"/>
    </contour>
    <contour>
      <point x="670" y="1045.4" type="line"/>
      <point x="670" y="258.596" type="line" smooth="yes"/>
      <point x="670" y="221.301"/>
      <point x="692.301" y="199"/>
      <point x="729.596" y="199" type="curve" smooth="yes"/>
      <point x="777.404" y="199" type="line" smooth="yes"/>
      <point x="814.699" y="199"/>
      <point x="837" y="221.301"/>
      <point x="837" y="258.596" type="curve" smooth="yes"/>
      <point x="837" y="1045.4" type="line" smooth="yes"/>
      <point x="837" y="1082.7"/>
      <point x="814.699" y="1105"/>
      <point x="777.404" y="1105" type="curve" smooth="yes"/>
      <point x="729.596" y="1105" type="line" smooth="yes"/>
      <point x="692.301" y="1105"/>
      <point x="670" y="1082.7"/>
      <point x="670" y="1045.4" type="curve" smooth="yes"/>
    </contour>
  </outline>
</glyph>
<glyph name="q" format="1">
  <advance width="1459"/>
  <unicode hex="0071"/>
  <outline>
    <contour>
      <point x="86" y="365" type="curve" smooth="yes"/>
      <point x="86" y="926" type="line"/>
      <point x="85" y="926" type="line"/>
      <point x="85" y="1194"/>
      <point x="226" y="1327"/>
      <point x="502" y="1327" type="curve" smooth="yes"/>
      <point x="608" y="1327"/>
      <point x="702" y="1292"/>
      <point x="768" y="1248" type="curve" smooth="yes"/>
      <point x="781" y="1239.5"/>
      <point x="792.75" y="1230.25"/>
      <point x="803.25" y="1220.25" type="curve" smooth="yes"/>
      <point x="820.761" y="1203.57"/>
      <point x="837.698" y="1207.74"/>
      <point x="845.468" y="1230.64" type="curve" smooth="yes"/>
      <point x="850.321" y="1244.95" type="line" smooth="yes"/>
      <point x="862.613" y="1281.18"/>
      <point x="888.879" y="1300"/>
      <point x="927.135" y="1300" type="curve" smooth="yes"/>
      <point x="1305.11" y="1300" type="line" smooth="yes"/>
      <point x="1352.6" y="1300"/>
      <point x="1381" y="1271.6"/>
      <point x="1381" y="1224.11" type="curve" smooth="yes"/>
      <point x="1381" y="-332.113" type="line" smooth="yes"/>
      <point x="1381" y="-379.603"/>
      <point x="1352.6" y="-408"/>
      <point x="1305.11" y="-408" type="curve" smooth="yes"/>
      <point x="907.887" y="-408" type="line" smooth="yes"/>
      <point x="860.397" y="-408"/>
      <point x="832" y="-379.603"/>
      <point x="832" y="-332.113" type="curve" smooth="yes"/>
      <point x="832" y="24.3936" type="line" smooth="yes"/>
      <point x="832" y="54.4909"/>
      <point x="812.27" y="64.6132"/>
      <point x="787.823" y="47.0584" type="curve" smooth="yes"/>
      <point x="717.584" y="-3.37698"/>
      <point x="616.838" y="-27"/>
      <point x="501" y="-27" type="curve" smooth="yes"/>
      <point x="227" y="-27"/>
      <point x="86" y="99"/>
    </contour>
    <contour>
      <point x="817" y="258.596" type="line"/>
      <point x="817" y="1045.4" type="line" smooth="yes"/>
      <point x="817" y="1082.7"/>
      <point x="794.699" y="1105"/>
      <point x="757.404" y="1105" type="curve" smooth="yes"/>
      <point x="711.596" y="1105" type="line" smooth="yes"/>
      <point x="674.301" y="1105"/>
      <point x="652" y="1082.7"/>
      <point x="652" y="1045.4" type="curve" smooth="yes"/>
      <point x="652" y="258.596" type="line" smooth="yes"/>
      <point x="652" y="221.301"/>
      <point x="674.301" y="199"/>
      <point x="711.596" y="199" type="curve" smooth="yes"/>
      <point x="757.404" y="199" type="line" smooth="yes"/>
      <point x="794.699" y="199"/>
      <point x="817" y="221.301"/>
      <point x="817" y="258.596" type="curve" smooth="yes"/>
    </contour>
  </outline>
</glyph>
<glyph name="t" format="1">
  <advance width="968"/>
  <unicode hex="0074"/>
  <outline>
    <contour>
      <point x="764" y="1060" type="curve" smooth="yes"/>
      <point x="764" y="75.8873" type="line" smooth="yes"/>
      <point x="764" y="28.397"/>
      <point x="735.603" y="0"/>
      <point x="688.113" y="0" type="curve" smooth="yes"/>
      <point x="268.887" y="0" type="line" smooth="yes"/>
      <point x="221.397" y="0"/>
      <point x="193" y="28.397"/>
      <point x="193" y="75.8873" type="curve" smooth="yes"/>
      <point x="193" y="1060" type="line" smooth="yes"/>
      <point x="193" y="1098"/>
      <point x="191" y="1100"/>
      <point x="153" y="1100" type="curve" smooth="yes"/>
      <point x="123.5" y="1100" type="line" smooth="yes"/>
      <point x="81.2584" y="1100"/>
      <point x="56" y="1125.26"/>
      <point x="56" y="1167.5" type="curve" smooth="yes"/>
      <point x="56" y="1232.5" type="line" smooth="yes"/>
      <point x="56" y="1274.74"/>
      <point x="81.2584" y="1300"/>
      <point x="123.5" y="1300" type="curve" smooth="yes"/>
      <point x="153" y="1300" type="line" smooth="yes"/>
      <point x="191" y="1300"/>
      <point x="193" y="1302"/>
      <point x="193" y="1340" type="curve" smooth="yes"/>
      <point x="193" y="1519.11" type="line" smooth="yes"/>
      <point x="193" y="1566.6"/>
      <point x="221.397" y="1595"/>
      <point x="268.887" y="1595" type="curve" smooth="yes"/>
      <point x="688.113" y="1595" type="line" smooth="yes"/>
      <point x="735.603" y="1595"/>
      <point x="764" y="1566.6"/>
      <point x="764" y="1519.11" type="curve" smooth="yes"/>
      <point x="764" y="1340" type="line" smooth="yes"/>
      <point x="764" y="1302"/>
      <point x="766" y="1300"/>
      <point x="804" y="1300" type="curve" smooth="yes"/>
      <point x="847.113" y="1300" type="line" smooth="yes"/>
      <point x="894.603" y="1300"/>
      <point x="923" y="1271.6"/>
      <point x="923" y="1224.11" type="curve" smooth="yes"/>
      <point x="923" y="1175.89" type="line" smooth="yes"/>
      <point x="923" y="1128.4"/>
      <point x="894.603" y="1100"/>
      <point x="847.113" y="1100" type="curve" smooth="yes"/>
      <point x="804" y="1100" type="line" smooth="yes"/>
      <point x="766" y="1100"/>
      <point x="764" y="1098"/>
    </contour>
  </outline>
</glyph>
<glyph name="v" format="1">
  <advance width="1348"/>
  <unicode hex="0076"/>
  <outline>
    <contour>
      <point x="554" y="1225" type="curve" smooth="yes"/>
      <point x="625" y="716" type="line"/>
      <point x="668" y="353" type="line" smooth="yes"/>
      <point x="669" y="347"/>
      <point x="673" y="344"/>
      <point x="677" y="344" type="curve" smooth="yes"/>
      <point x="681" y="344"/>
      <point x="685" y="347"/>
      <point x="685" y="353" type="curve" smooth="yes"/>
      <point x="728" y="716" type="line"/>
      <point x="798" y="1225" type="line" smooth="yes"/>
      <point x="805" y="1273"/>
      <point x="823" y="1300"/>
      <point x="872" y="1300" type="curve" smooth="yes"/>
      <point x="1271" y="1300" type="line" smooth="yes"/>
      <point x="1310" y="1300"/>
      <point x="1333" y="1278"/>
      <point x="1333" y="1244" type="curve" smooth="yes"/>
      <point x="1333" y="1238"/>
      <point x="1333" y="1232"/>
      <point x="1331" y="1226" type="curve" smooth="yes"/>
      <point x="1089" y="74" type="line" smooth="yes"/>
      <point x="1079" y="26"/>
      <point x="1046" y="0"/>
      <point x="997" y="0" type="curve" smooth="yes"/>
      <point x="355" y="0" type="line" smooth="yes"/>
      <point x="306" y="0"/>
      <point x="273" y="26"/>
      <point x="263" y="74" type="curve" smooth="yes"/>
      <point x="20" y="1226" type="line" smooth="yes"/>
      <point x="18" y="1232"/>
      <point x="18" y="1238"/>
      <point x="18" y="1244" type="curve" smooth="yes"/>
      <point x="18" y="1278"/>
      <point x="41" y="1300"/>
      <point x="80" y="1300" type="curve" smooth="yes"/>
      <point x="479" y="1300" type="line" smooth="yes"/>
      <point x="528" y="1300"/>
      <point x="547" y="1273"/>
    </contour>
  </outline>
</glyph>
<glyph name="x" format="1">
  <advance width="1395"/>
  <unicode hex="0078"/>
  <outline>
    <contour>
      <point x="536.113" y="0" type="line"/>
      <point x="120.887" y="0" type="line" smooth="yes"/>
      <point x="80.3368" y="0"/>
      <point x="62.5472" y="30.6723"/>
      <point x="82.6833" y="65.87" type="curve" smooth="yes"/>
      <point x="388.407" y="600.271" type="line" smooth="yes"/>
      <point x="408.167" y="634.811"/>
      <point x="408.121" y="669.163"/>
      <point x="388.269" y="703.65" type="curve" smooth="yes"/>
      <point x="82.8581" y="1234.23" type="line" smooth="yes"/>
      <point x="62.6505" y="1269.34"/>
      <point x="80.3808" y="1300"/>
      <point x="120.887" y="1300" type="curve" smooth="yes"/>
      <point x="541.113" y="1300" type="line" smooth="yes"/>
      <point x="591.067" y="1300"/>
      <point x="625.406" y="1275.47"/>
      <point x="641.597" y="1228.21" type="curve" smooth="yes"/>
      <point x="683.683" y="1105.38" type="line" smooth="yes"/>
      <point x="692.032" y="1081.01"/>
      <point x="714.082" y="1080.97"/>
      <point x="722.517" y="1105.31" type="curve" smooth="yes"/>
      <point x="765.147" y="1228.3" type="line" smooth="yes"/>
      <point x="781.513" y="1275.51"/>
      <point x="815.915" y="1300"/>
      <point x="865.887" y="1300" type="curve" smooth="yes"/>
      <point x="1285.11" y="1300" type="line" smooth="yes"/>
      <point x="1325.62" y="1300"/>
      <point x="1343.35" y="1269.34"/>
      <point x="1323.14" y="1234.23" type="curve" smooth="yes"/>
      <point x="1017.73" y="703.65" type="line" smooth="yes"/>
      <point x="997.879" y="669.163"/>
      <point x="997.833" y="634.811"/>
      <point x="1017.59" y="600.271" type="curve" smooth="yes"/>
      <point x="1323.32" y="65.87" type="line" smooth="yes"/>
      <point x="1343.45" y="30.6723"/>
      <point x="1325.66" y="0"/>
      <point x="1285.11" y="0" type="curve" smooth="yes"/>
      <point x="869.887" y="0" type="line" smooth="yes"/>
      <point x="819.887" y="0"/>
      <point x="785.389" y="24.4132"/>
      <point x="768.758" y="71.5661" type="curve" smooth="yes"/>
      <point x="722.823" y="201.798" type="line" smooth="yes"/>
      <point x="714.166" y="226.343"/>
      <point x="691.834" y="226.343"/>
      <point x="683.177" y="201.798" type="curve" smooth="yes"/>
      <point x="637.242" y="71.5661" type="line" smooth="yes"/>
      <point x="620.611" y="24.4132"/>
      <point x="586.113" y="0"/>
      <point x="536.113" y="0" type="curve" smooth="yes"/>
    </contour>
  </outline>
</glyph>
<glyph name="z" format="1">
  <advance width="1169"/>
  <unicode hex="007A"/>
  <outline>
    <contour>
      <point x="130" y="1126.89" type="line"/>
      <point x="130" y="1224.11" type="line" smooth="yes"/>
      <point x="130" y="1271.6"/>
      <point x="158.397" y="1300"/>
      <point x="205.887" y="1300" type="curve" smooth="yes"/>
      <point x="1006.11" y="1300" type="line" smooth="yes"/>
      <point x="1053.6" y="1300"/>
      <point x="1082" y="1271.6"/>
      <point x="1082" y="1224.11" type="curve" smooth="yes"/>
      <point x="1082" y="1154.89" type="line" smooth="yes"/>
      <point x="1082" y="1107.54"/>
      <point x="1070.78" y="1052.76"/>
      <point x="1052.18" y="1009.22" type="curve" smooth="yes"/>
      <point x="749.42" y="300.801" type="line" smooth="yes"/>
      <point x="736.326" y="270.161"/>
      <point x="752.274" y="246"/>
      <point x="785.596" y="246" type="curve" smooth="yes"/>
      <point x="1013.11" y="246" type="line" smooth="yes"/>
      <point x="1060.6" y="246"/>
      <point x="1089" y="217.603"/>
      <point x="1089" y="170.113" type="curve" smooth="yes"/>
      <point x="1089" y="75.8873" type="line" smooth="yes"/>
      <point x="1089" y="28.397"/>
      <point x="1060.6" y="1.52588e-05"/>
      <point x="1013.11" y="1.52588e-05" type="curve" smooth="yes"/>
      <point x="181.887" y="1.52588e-05" type="line" smooth="yes"/>
      <point x="134.397" y="1.52588e-05"/>
      <point x="106" y="28.397"/>
      <point x="106" y="75.8873" type="curve" smooth="yes"/>
      <point x="106" y="157.113" type="line" smooth="yes"/>
      <point x="106" y="204.614"/>
      <point x="117.434" y="258.982"/>
      <point x="136.568" y="302.458" type="curve" smooth="yes"/>
      <point x="441.994" y="996.453" type="line" smooth="yes"/>
      <point x="455.365" y="1026.84"/>
      <point x="439.599" y="1051"/>
      <point x="406.404" y="1051" type="curve" smooth="yes"/>
      <point x="205.887" y="1051" type="line" smooth="yes"/>
      <point x="158.397" y="1051"/>
      <point x="130" y="1079.4"/>
      <point x="130" y="1126.89" type="curve"/>
    </contour>
  </outline>
</glyph>
<glyph name="braceleft" format="1">
  <advance width="1132"/>
  <unicode hex="007B"/>
  <outline>
    <contour>
      <point x="274" y="1228" type="line"/>
      <point x="340.62" y="1726.7"/>
      <point x="540.39" y="1907.48"/>
      <point x="1024.17" y="1923.77" type="curve" smooth="yes"/>
      <point x="1070.45" y="1925.33"/>
      <point x="1100" y="1896.76"/>
      <point x="1100" y="1850.45" type="curve" smooth="yes"/>
      <point x="1100" y="1727.4" type="line" smooth="yes"/>
      <point x="1100" y="1675.12"/>
      <point x="1076.09" y="1648.06"/>
      <point x="1024.21" y="1641.62" type="curve" smooth="yes"/>
      <point x="597.191" y="1588.61"/>
      <point x="841.051" y="1068.76"/>
      <point x="652.554" y="837.913" type="curve" smooth="yes"/>
      <point x="625.081" y="804.268"/>
      <point x="625.332" y="789.633"/>
      <point x="653.969" y="756.919" type="curve" smooth="yes"/>
      <point x="839.856" y="544.568"/>
      <point x="598.256" y="8.27802"/>
      <point x="1025.24" y="-46.47" type="curve" smooth="yes"/>
      <point x="1077.25" y="-53.1383"/>
      <point x="1101" y="-80.1277"/>
      <point x="1101" y="-132.561" type="curve" smooth="yes"/>
      <point x="1101" y="-255.291" type="line" smooth="yes"/>
      <point x="1101" y="-301.718"/>
      <point x="1071.49" y="-330.311"/>
      <point x="1025.08" y="-328.839" type="curve" smooth="yes"/>
      <point x="537.351" y="-313.373"/>
      <point x="308.22" y="-140.413"/>
      <point x="273" y="366" type="curve"/>
      <point x="258.673" y="474.718"/>
      <point x="269.911" y="607.585"/>
      <point x="160.068" y="646.677" type="curve" smooth="yes"/>
      <point x="100.166" y="667.996"/>
      <point x="85" y="689.497"/>
      <point x="85" y="753.08" type="curve" smooth="yes"/>
      <point x="85" y="842.673" type="line" smooth="yes"/>
      <point x="85" y="905.577"/>
      <point x="100.593" y="927.438"/>
      <point x="160.068" y="947.92" type="curve" smooth="yes"/>
      <point x="268.48" y="985.255"/>
      <point x="258.861" y="1111.93"/>
      <point x="274" y="1228" type="curve"/>
    </contour>
  </outline>
</glyph>
<glyph name="bar" format="1">
  <advance width="831"/>
  <unicode hex="007C"/>
  <outline>
    <contour>
      <point x="204.887" y="1795" type="line"/>
      <point x="624.113" y="1795" type="line" smooth="yes"/>
      <point x="671.603" y="1795"/>
      <point x="700" y="1766.6"/>
      <point x="700" y="1719.11" type="curve" smooth="yes"/>
      <point x="700" y="-24.1127" type="line" smooth="yes"/>
      <point x="700" y="-71.603"/>
      <point x="671.603" y="-100"/>
      <point x="624.113" y="-100" type="curve" smooth="yes"/>
      <point x="204.887" y="-100" type="line" smooth="yes"/>
      <point x="157.397" y="-100"/>
      <point x="129" y="-71.603"/>
      <point x="129" y="-24.1127" type="curve" smooth="yes"/>
      <point x="129" y="1719.11" type="line" smooth="yes"/>
      <point x="129" y="1766.6"/>
      <point x="157.397" y="1795"/>
      <point x="204.887" y="1795" type="curve"/>
    </contour>
  </outline>
</glyph>
<glyph name="braceright" format="1">
  <advance width="1131"/>
  <unicode hex="007D"/>
  <outline>
    <contour>
      <point x="506.989" y="837.25" type="line"/>
      <point x="317.479" y="1067.76"/>
      <point x="562.225" y="1588.57"/>
      <point x="134.772" y="1641.62" type="curve" smooth="yes"/>
      <point x="82.9053" y="1648.05"/>
      <point x="59" y="1675.11"/>
      <point x="59" y="1727.37" type="curve" smooth="yes"/>
      <point x="59" y="1850.45" type="line" smooth="yes"/>
      <point x="59" y="1896.76"/>
      <point x="88.5492" y="1925.33"/>
      <point x="134.835" y="1923.77" type="curve" smooth="yes"/>
      <point x="618.61" y="1907.48"/>
      <point x="818.38" y="1726.7"/>
      <point x="885" y="1228" type="curve" smooth="yes"/>
      <point x="900.139" y="1111.93"/>
      <point x="890.516" y="985.255"/>
      <point x="998.928" y="947.92" type="curve" smooth="yes"/>
      <point x="1058.41" y="927.438"/>
      <point x="1074" y="905.577"/>
      <point x="1074" y="842.673" type="curve" smooth="yes"/>
      <point x="1074" y="753.08" type="line" smooth="yes"/>
      <point x="1074" y="689.497"/>
      <point x="1058.83" y="667.996"/>
      <point x="998.928" y="646.677" type="curve" smooth="yes"/>
      <point x="889.085" y="607.585"/>
      <point x="900.327" y="474.718"/>
      <point x="886" y="366" type="curve"/>
      <point x="850.78" y="-140.413"/>
      <point x="621.649" y="-313.373"/>
      <point x="133.918" y="-328.839" type="curve" smooth="yes"/>
      <point x="87.5135" y="-330.311"/>
      <point x="58" y="-301.718"/>
      <point x="58" y="-255.291" type="curve" smooth="yes"/>
      <point x="58" y="-132.55" type="line" smooth="yes"/>
      <point x="58" y="-80.1241"/>
      <point x="81.7477" y="-53.1376"/>
      <point x="133.748" y="-46.4711" type="curve" smooth="yes"/>
      <point x="561.18" y="8.32605"/>
      <point x="318.652" y="545.654"/>
      <point x="505.598" y="757.564" type="curve" smooth="yes"/>
      <point x="533.846" y="789.585"/>
      <point x="534.102" y="804.271"/>
      <point x="506.989" y="837.25" type="curve"/>
    </contour>
  </outline>
</glyph>
<glyph name="asciitilde" format="1">
  <advance width="1424"/>
  <unicode hex="007E"/>
  <outline>
    <contour>
      <point x="1278.99" y="642" type="line"/>
      <point x="1146.23" y="642" type="line" smooth="yes"/>
      <point x="1087.39" y="642"/>
      <point x="1063.26" y="660.534"/>
      <point x="1048.1" y="717.383" type="curve" smooth="yes"/>
      <point x="1034.39" y="768.765"/>
      <point x="1003.89" y="806"/>
      <point x="950" y="806" type="curve" smooth="yes"/>
      <point x="784" y="806"/>
      <point x="715" y="616"/>
      <point x="480" y="616" type="curve" smooth="yes"/>
      <point x="165.238" y="616"/>
      <point x="86.0421" y="839.913"/>
      <point x="74.5776" y="1100.16" type="curve" smooth="yes"/>
      <point x="72.5542" y="1146.09"/>
      <point x="101.175" y="1176"/>
      <point x="147.152" y="1176" type="curve" smooth="yes"/>
      <point x="280.872" y="1176" type="line" smooth="yes"/>
      <point x="338.582" y="1176"/>
      <point x="363.311" y="1156.57"/>
      <point x="376.955" y="1100.49" type="curve" smooth="yes"/>
      <point x="389.904" y="1047.27"/>
      <point x="420.423" y="1008"/>
      <point x="481" y="1008" type="curve" smooth="yes"/>
      <point x="670" y="1008"/>
      <point x="754" y="1201"/>
      <point x="1008" y="1201" type="curve" smooth="yes"/>
      <point x="1289.33" y="1201"/>
      <point x="1346.28" y="1022.01"/>
      <point x="1353.21" y="717.933" type="curve" smooth="yes"/>
      <point x="1354.27" y="671.21"/>
      <point x="1325.72" y="642"/>
      <point x="1278.99" y="642" type="curve" smooth="yes"/>
    </contour>
  </outline>
</glyph>
<glyph name="exclamdown" format="1">
  <advance width="801"/>
  <unicode hex="00A1"/>
  <outline>
    <contour>
      <point x="402" y="923" type="curve" smooth="yes"/>
      <point x="427" y="923"/>
      <point x="452" y="901"/>
      <point x="463" y="855" type="curve" smooth="yes"/>
      <point x="527" y="582"/>
      <point x="655" y="203"/>
      <point x="655" y="49" type="curve" smooth="yes"/>
      <point x="655" y="-98"/>
      <point x="530" y="-169"/>
      <point x="404" y="-169" type="curve" smooth="yes"/>
      <point x="275" y="-169"/>
      <point x="144" y="-94"/>
      <point x="144" y="51" type="curve" smooth="yes"/>
      <point x="144" y="209"/>
      <point x="279" y="588"/>
      <point x="342" y="855" type="curve" smooth="yes"/>
      <point x="353" y="900"/>
      <point x="377" y="923"/>
    </contour>
    <contour>
      <point x="402" y="1501" type="curve" smooth="yes"/>
      <point x="504" y="1501"/>
      <point x="606" y="1431"/>
      <point x="606" y="1291" type="curve" smooth="yes"/>
      <point x="606" y="1151"/>
      <point x="504" y="1081"/>
      <point x="402" y="1081" type="curve" smooth="yes"/>
      <point x="300" y="1081"/>
      <point x="198" y="1151"/>
      <point x="198" y="1291" type="curve" smooth="yes"/>
      <point x="198" y="1431"/>
      <point x="300" y="1501"/>
    </contour>
  </outline>
</glyph>
<glyph name="cent" format="1">
  <advance width="1462"/>
  <unicode hex="00A2"/>
  <outline>
    <contour>
      <point x="960.887" y="633" type="line"/>
      <point x="1342" y="633" type="line" smooth="yes"/>
      <point x="1375.79" y="633"/>
      <point x="1396" y="612.793"/>
      <point x="1396" y="579" type="curve" smooth="yes"/>
      <point x="1396" y="523" type="line" smooth="yes"/>
      <point x="1396" y="203.238"/>
      <point x="1118.76" y="154.632"/>
      <point x="844.612" y="147.894" type="curve" smooth="yes"/>
      <point x="806.764" y="146.963"/>
      <point x="785" y="124.658"/>
      <point x="785" y="86.7982" type="curve" smooth="yes"/>
      <point x="785" y="-35.5" type="line" smooth="yes"/>
      <point x="785" y="-59.5933"/>
      <point x="770.593" y="-74"/>
      <point x="746.5" y="-74" type="curve" smooth="yes"/>
      <point x="744.5" y="-74" type="line" smooth="yes"/>
      <point x="720.407" y="-74"/>
      <point x="706" y="-59.5933"/>
      <point x="706" y="-35.5" type="curve" smooth="yes"/>
      <point x="706" y="86.7603" type="line" smooth="yes"/>
      <point x="706" y="124.664"/>
      <point x="684.298" y="146.947"/>
      <point x="646.408" y="147.949" type="curve" smooth="yes"/>
      <point x="365.892" y="155.366"/>
      <point x="86" y="209.648"/>
      <point x="86" y="529" type="curve" smooth="yes"/>
      <point x="86" y="969" type="line" smooth="yes"/>
      <point x="86" y="1286.19"/>
      <point x="379.295" y="1335.16"/>
      <point x="646.408" y="1342.06" type="curve" smooth="yes"/>
      <point x="684.262" y="1343.04"/>
      <point x="706" y="1365.33"/>
      <point x="706" y="1403.2" type="curve" smooth="yes"/>
      <point x="706" y="1539.5" type="line" smooth="yes"/>
      <point x="706" y="1563.59"/>
      <point x="720.407" y="1578"/>
      <point x="744.5" y="1578" type="curve" smooth="yes"/>
      <point x="746.5" y="1578" type="line" smooth="yes"/>
      <point x="770.593" y="1578"/>
      <point x="785" y="1563.59"/>
      <point x="785" y="1539.5" type="curve" smooth="yes"/>
      <point x="785" y="1403.31" type="line" smooth="yes"/>
      <point x="785" y="1365.3"/>
      <point x="806.564" y="1342.96"/>
      <point x="844.554" y="1341.63" type="curve" smooth="yes"/>
      <point x="1082.39" y="1333.28"/>
      <point x="1396" y="1283.85"/>
      <point x="1396" y="992" type="curve" smooth="yes"/>
      <point x="1396" y="935.5" type="line" smooth="yes"/>
      <point x="1396" y="901.394"/>
      <point x="1375.61" y="881"/>
      <point x="1341.5" y="881" type="curve" smooth="yes"/>
      <point x="960.887" y="881" type="line" smooth="yes"/>
      <point x="913.397" y="881"/>
      <point x="885" y="909.397"/>
      <point x="885" y="956.887" type="curve" smooth="yes"/>
      <point x="885" y="1070" type="line" smooth="yes"/>
      <point x="885" y="1100.66"/>
      <point x="866.664" y="1119"/>
      <point x="836" y="1119" type="curve" smooth="yes"/>
      <point x="834" y="1119" type="line" smooth="yes"/>
      <point x="803.336" y="1119"/>
      <point x="785" y="1100.66"/>
      <point x="785" y="1070" type="curve" smooth="yes"/>
      <point x="785" y="422" type="line" smooth="yes"/>
      <point x="785" y="391.336"/>
      <point x="803.336" y="373"/>
      <point x="834" y="373" type="curve" smooth="yes"/>
      <point x="836" y="373" type="line" smooth="yes"/>
      <point x="866.664" y="373"/>
      <point x="885" y="391.336"/>
      <point x="885" y="422" type="curve" smooth="yes"/>
      <point x="885" y="557.113" type="line" smooth="yes"/>
      <point x="885" y="604.603"/>
      <point x="913.397" y="633"/>
      <point x="960.887" y="633" type="curve"/>
    </contour>
    <contour>
      <point x="653" y="1119" type="curve" smooth="yes"/>
      <point x="651" y="1119" type="line" smooth="yes"/>
      <point x="617.833" y="1119"/>
      <point x="598" y="1099.17"/>
      <point x="598" y="1066" type="curve" smooth="yes"/>
      <point x="598" y="426" type="line" smooth="yes"/>
      <point x="598" y="392.833"/>
      <point x="617.833" y="373"/>
      <point x="651" y="373" type="curve" smooth="yes"/>
      <point x="653" y="373" type="line" smooth="yes"/>
      <point x="686.167" y="373"/>
      <point x="706" y="392.833"/>
      <point x="706" y="426" type="curve" smooth="yes"/>
      <point x="706" y="1066" type="line" smooth="yes"/>
      <point x="706" y="1099.17"/>
      <point x="686.167" y="1119"/>
    </contour>
  </outline>
</glyph>
<glyph name="sterling" format="1">
  <advance width="1598"/>
  <unicode hex="00A3"/>
  <outline>
    <contour>
      <point x="74" y="75.8873" type="line"/>
      <point x="74" y="264.882" type="line" smooth="yes"/>
      <point x="74" y="264.941"/>
      <point x="74.0528" y="265.026"/>
      <point x="74.1056" y="265.053" type="curve" smooth="yes"/>
      <point x="75.9062" y="265.953" type="line" smooth="yes"/>
      <point x="75.9531" y="265.977"/>
      <point x="76.052" y="266.007"/>
      <point x="76.104" y="266.013" type="curve" smooth="yes"/>
      <point x="147.085" y="275.021"/>
      <point x="234" y="297.039"/>
      <point x="234" y="376" type="curve" smooth="yes"/>
      <point x="234" y="659.404" type="line" smooth="yes"/>
      <point x="234" y="696.699"/>
      <point x="211.699" y="719"/>
      <point x="174.404" y="719" type="curve" smooth="yes"/>
      <point x="151.887" y="719" type="line" smooth="yes"/>
      <point x="104.397" y="719"/>
      <point x="76" y="747.397"/>
      <point x="76" y="794.887" type="curve" smooth="yes"/>
      <point x="76" y="865.113" type="line" smooth="yes"/>
      <point x="76" y="912.603"/>
      <point x="104.397" y="941"/>
      <point x="151.887" y="941" type="curve" smooth="yes"/>
      <point x="174.404" y="941" type="line" smooth="yes"/>
      <point x="211.699" y="941"/>
      <point x="234" y="963.301"/>
      <point x="234" y="1000.6" type="curve" smooth="yes"/>
      <point x="234" y="1065" type="line" smooth="yes"/>
      <point x="234" y="1260"/>
      <point x="248" y="1417"/>
      <point x="346" y="1511" type="curve" smooth="yes"/>
      <point x="458" y="1618"/>
      <point x="664" y="1632"/>
      <point x="893" y="1632" type="curve" smooth="yes"/>
      <point x="1069" y="1632"/>
      <point x="1210" y="1616"/>
      <point x="1322" y="1568" type="curve" smooth="yes"/>
      <point x="1423" y="1524"/>
      <point x="1494" y="1456"/>
      <point x="1504" y="1331" type="curve" smooth="yes"/>
      <point x="1506" y="1302"/>
      <point x="1507" y="1274"/>
      <point x="1507" y="1247" type="curve" smooth="yes"/>
      <point x="1507" y="1145.89" type="line" smooth="yes"/>
      <point x="1507" y="1098.4"/>
      <point x="1478.6" y="1070"/>
      <point x="1431.11" y="1070" type="curve" smooth="yes"/>
      <point x="1001.89" y="1070" type="line" smooth="yes"/>
      <point x="954.397" y="1070"/>
      <point x="926" y="1098.4"/>
      <point x="926" y="1145.89" type="curve" smooth="yes"/>
      <point x="926" y="1311.5" type="line" smooth="yes"/>
      <point x="926" y="1344.35"/>
      <point x="906.355" y="1364"/>
      <point x="873.5" y="1364" type="curve" smooth="yes"/>
      <point x="871.5" y="1364" type="line" smooth="yes"/>
      <point x="838.645" y="1364"/>
      <point x="819" y="1344.35"/>
      <point x="819" y="1311.5" type="curve" smooth="yes"/>
      <point x="819" y="999.596" type="line" smooth="yes"/>
      <point x="819" y="962.301"/>
      <point x="841.301" y="940"/>
      <point x="878.596" y="940" type="curve" smooth="yes"/>
      <point x="1170.11" y="940" type="line" smooth="yes"/>
      <point x="1217.6" y="940"/>
      <point x="1246" y="911.603"/>
      <point x="1246" y="864.113" type="curve" smooth="yes"/>
      <point x="1246" y="793.887" type="line" smooth="yes"/>
      <point x="1246" y="746.397"/>
      <point x="1217.6" y="718"/>
      <point x="1170.11" y="718" type="curve" smooth="yes"/>
      <point x="878.596" y="718" type="line" smooth="yes"/>
      <point x="841.301" y="718"/>
      <point x="819" y="695.699"/>
      <point x="819" y="658.404" type="curve" smooth="yes"/>
      <point x="819" y="327.596" type="line" smooth="yes"/>
      <point x="819" y="290.301"/>
      <point x="841.301" y="268"/>
      <point x="878.596" y="268" type="curve" smooth="yes"/>
      <point x="887.404" y="268" type="line" smooth="yes"/>
      <point x="924.699" y="268"/>
      <point x="947" y="290.301"/>
      <point x="947" y="327.596" type="curve" smooth="yes"/>
      <point x="947" y="486.113" type="line" smooth="yes"/>
      <point x="947" y="533.603"/>
      <point x="975.397" y="562"/>
      <point x="1022.89" y="562" type="curve" smooth="yes"/>
      <point x="1452.11" y="562" type="line" smooth="yes"/>
      <point x="1499.6" y="562"/>
      <point x="1528" y="533.603"/>
      <point x="1528" y="486.113" type="curve" smooth="yes"/>
      <point x="1528" y="385" type="line" smooth="yes"/>
      <point x="1528" y="228"/>
      <point x="1498" y="126"/>
      <point x="1399" y="65" type="curve" smooth="yes"/>
      <point x="1325" y="19"/>
      <point x="1225" y="-3.05176e-05"/>
      <point x="1097" y="-3.05176e-05" type="curve" smooth="yes"/>
      <point x="971" y="-3.05176e-05"/>
      <point x="877" y="29"/>
      <point x="819" y="91" type="curve" smooth="yes"/>
      <point x="815.117" y="95.1602"/>
      <point x="811.311" y="99.1665"/>
      <point x="807.604" y="103.019" type="curve" smooth="yes"/>
      <point x="800.585" y="110.312"/>
      <point x="765.392" y="111.977"/>
      <point x="738.141" y="88.5546" type="curve" smooth="yes"/>
      <point x="696.544" y="52.8021"/>
      <point x="650.992" y="28.6172"/>
      <point x="579" y="16" type="curve" smooth="yes"/>
      <point x="497" y="1.99997"/>
      <point x="407" y="0.999969"/>
      <point x="301" y="-3.05176e-05" type="curve"/>
      <point x="149.887" y="-3.05176e-05" type="line" smooth="yes"/>
      <point x="102.397" y="-3.05176e-05"/>
      <point x="74" y="28.397"/>
      <point x="74" y="75.8873" type="curve"/>
    </contour>
  </outline>
</glyph>
<glyph name="currency" format="1">
  <advance width="1390"/>
  <unicode hex="00A4"/>
  <outline>
    <contour>
      <point x="978.727" y="329.367" type="line"/>
      <point x="897.033" y="308.772"/>
      <point x="806.962" y="299"/>
      <point x="698" y="299" type="curve" smooth="yes"/>
      <point x="586.65" y="299.807"/>
      <point x="492.879" y="309.729"/>
      <point x="410.907" y="331.392" type="curve" smooth="yes"/>
      <point x="369.35" y="342.375"/>
      <point x="339.969" y="333.831"/>
      <point x="310.781" y="302.276" type="curve" smooth="yes"/>
      <point x="244.705" y="230.844" type="line" smooth="yes"/>
      <point x="220.81" y="205.011"/>
      <point x="190.959" y="204.794"/>
      <point x="166.69" y="230.276" type="curve" smooth="yes"/>
      <point x="165.31" y="231.724" type="line" smooth="yes"/>
      <point x="140.398" y="257.882"/>
      <point x="140.151" y="288.35"/>
      <point x="164.635" y="314.909" type="curve" smooth="yes"/>
      <point x="200.727" y="354.06" type="line" smooth="yes"/>
      <point x="227.634" y="383.247"/>
      <point x="226.164" y="410.619"/>
      <point x="196.288" y="436.757" type="curve" smooth="yes"/>
      <point x="104.538" y="517.027"/>
      <point x="68" y="629.568"/>
      <point x="68" y="804" type="curve" smooth="yes"/>
      <point x="68" y="976.07"/>
      <point x="92.4268" y="1102.25"/>
      <point x="174.396" y="1189.54" type="curve" smooth="yes"/>
      <point x="202.918" y="1219.91"/>
      <point x="203.119" y="1246.43"/>
      <point x="175.061" y="1277.24" type="curve" smooth="yes"/>
      <point x="165.384" y="1287.86" type="line" smooth="yes"/>
      <point x="141.032" y="1314.6"/>
      <point x="141.371" y="1345.09"/>
      <point x="166.31" y="1371.28" type="curve" smooth="yes"/>
      <point x="167.69" y="1372.72" type="line" smooth="yes"/>
      <point x="191.949" y="1398.2"/>
      <point x="221.792" y="1397.95"/>
      <point x="245.635" y="1372.09" type="curve" smooth="yes"/>
      <point x="281.851" y="1332.81" type="line" smooth="yes"/>
      <point x="310.927" y="1301.27"/>
      <point x="340.249" y="1293.16"/>
      <point x="381.4" y="1305.28" type="curve" smooth="yes"/>
      <point x="470.555" y="1331.53"/>
      <point x="572.985" y="1343"/>
      <point x="697" y="1343" type="curve" smooth="yes"/>
      <point x="819.227" y="1343"/>
      <point x="919.92" y="1331.56"/>
      <point x="1008.46" y="1305.92" type="curve" smooth="yes"/>
      <point x="1049.54" y="1294.03"/>
      <point x="1078.99" y="1302.32"/>
      <point x="1107.83" y="1333.89" type="curve" smooth="yes"/>
      <point x="1142.33" y="1371.66" type="line" smooth="yes"/>
      <point x="1166.2" y="1397.8"/>
      <point x="1196.23" y="1398.2"/>
      <point x="1220.81" y="1372.72" type="curve" smooth="yes"/>
      <point x="1222.19" y="1371.28" type="line" smooth="yes"/>
      <point x="1247.4" y="1345.14"/>
      <point x="1247.76" y="1314.51"/>
      <point x="1223.19" y="1287.78" type="curve" smooth="yes"/>
      <point x="1214.81" y="1278.66" type="line" smooth="yes"/>
      <point x="1187.06" y="1248.48"/>
      <point x="1187.55" y="1221.55"/>
      <point x="1216.36" y="1192.38" type="curve" smooth="yes"/>
      <point x="1301.19" y="1106.48"/>
      <point x="1325" y="986.86"/>
      <point x="1325" y="804" type="curve" smooth="yes"/>
      <point x="1325" y="632.207"/>
      <point x="1284.76" y="514.818"/>
      <point x="1192.69" y="433.818" type="curve" smooth="yes"/>
      <point x="1162.86" y="407.58"/>
      <point x="1161.55" y="380.331"/>
      <point x="1188.7" y="351.338" type="curve" smooth="yes"/>
      <point x="1223.8" y="313.857" type="line" smooth="yes"/>
      <point x="1248.58" y="287.4"/>
      <point x="1248.35" y="256.812"/>
      <point x="1223.19" y="230.72" type="curve" smooth="yes"/>
      <point x="1221.81" y="229.28" type="line" smooth="yes"/>
      <point x="1197.2" y="203.763"/>
      <point x="1167.14" y="204.082"/>
      <point x="1143.08" y="230.118" type="curve" smooth="yes"/>
      <point x="1078.88" y="299.595" type="line" smooth="yes"/>
      <point x="1049.98" y="330.871"/>
      <point x="1020.02" y="339.777"/>
      <point x="978.727" y="329.367" type="curve"/>
    </contour>
    <contour>
      <point x="637" y="1015" type="curve" smooth="yes"/>
      <point x="637" y="625" type="line" smooth="yes"/>
      <point x="637" y="590.581"/>
      <point x="657.581" y="570"/>
      <point x="692" y="570" type="curve" smooth="yes"/>
      <point x="694" y="570" type="line" smooth="yes"/>
      <point x="728.419" y="570"/>
      <point x="749" y="590.581"/>
      <point x="749" y="625" type="curve" smooth="yes"/>
      <point x="749" y="1015" type="line" smooth="yes"/>
      <point x="749" y="1049.42"/>
      <point x="728.419" y="1070"/>
      <point x="694" y="1070" type="curve" smooth="yes"/>
      <point x="692" y="1070" type="line" smooth="yes"/>
      <point x="657.581" y="1070"/>
      <point x="637" y="1049.42"/>
    </contour>
  </outline>
</glyph>
<glyph name="yen" format="1">
  <advance width="1571"/>
  <unicode hex="00A5"/>
  <outline>
    <contour>
      <point x="611.665" y="1521.7" type="line"/>
      <point x="726.335" y="1094.3" type="line" smooth="yes"/>
      <point x="737.498" y="1052.69"/>
      <point x="748.698" y="988.303"/>
      <point x="752.241" y="945.37" type="curve" smooth="yes"/>
      <point x="761.89" y="828.454" type="line" smooth="yes"/>
      <point x="762.589" y="819.983"/>
      <point x="768" y="815"/>
      <point x="776.5" y="815" type="curve" smooth="yes"/>
      <point x="778.5" y="815" type="line" smooth="yes"/>
      <point x="787" y="815"/>
      <point x="792.411" y="819.983"/>
      <point x="793.11" y="828.454" type="curve" smooth="yes"/>
      <point x="802.759" y="945.37" type="line" smooth="yes"/>
      <point x="806.318" y="988.495"/>
      <point x="817.707" y="1052.43"/>
      <point x="829.258" y="1094.13" type="curve" smooth="yes"/>
      <point x="947.742" y="1521.87" type="line" smooth="yes"/>
      <point x="960.988" y="1569.69"/>
      <point x="994.268" y="1595"/>
      <point x="1043.89" y="1595" type="curve" smooth="yes"/>
      <point x="1448.11" y="1595" type="line" smooth="yes"/>
      <point x="1491.13" y="1595"/>
      <point x="1512.17" y="1564.33"/>
      <point x="1496.69" y="1524.2" type="curve" smooth="yes"/>
      <point x="1189.61" y="728" type="line"/>
      <point x="1354.5" y="728" type="line" smooth="yes"/>
      <point x="1398.62" y="728"/>
      <point x="1425" y="701.619"/>
      <point x="1425" y="657.5" type="curve" smooth="yes"/>
      <point x="1425" y="655.5" type="line" smooth="yes"/>
      <point x="1425" y="611.381"/>
      <point x="1398.62" y="585"/>
      <point x="1354.5" y="585" type="curve" smooth="yes"/>
      <point x="1134.46" y="585" type="line"/>
      <point x="1103.45" y="504.603" type="line" smooth="yes"/>
      <point x="1096.18" y="485.757"/>
      <point x="1090.42" y="463.936"/>
      <point x="1086.71" y="442" type="curve"/>
      <point x="1354.5" y="442" type="line" smooth="yes"/>
      <point x="1398.62" y="442"/>
      <point x="1425" y="415.619"/>
      <point x="1425" y="371.5" type="curve" smooth="yes"/>
      <point x="1425" y="369.5" type="line" smooth="yes"/>
      <point x="1425" y="325.381"/>
      <point x="1398.62" y="299"/>
      <point x="1354.5" y="299" type="curve" smooth="yes"/>
      <point x="1082" y="299" type="line"/>
      <point x="1082" y="75.8873" type="line" smooth="yes"/>
      <point x="1082" y="28.397"/>
      <point x="1053.6" y="1.52588e-05"/>
      <point x="1006.11" y="1.52588e-05" type="curve" smooth="yes"/>
      <point x="552.887" y="1.52588e-05" type="line" smooth="yes"/>
      <point x="505.397" y="1.52588e-05"/>
      <point x="477" y="28.397"/>
      <point x="477" y="75.8873" type="curve" smooth="yes"/>
      <point x="477" y="299" type="line"/>
      <point x="197.5" y="299" type="line" smooth="yes"/>
      <point x="153.381" y="299"/>
      <point x="127" y="325.381"/>
      <point x="127" y="369.5" type="curve" smooth="yes"/>
      <point x="127" y="371.5" type="line" smooth="yes"/>
      <point x="127" y="415.619"/>
      <point x="153.381" y="442"/>
      <point x="197.5" y="442" type="curve" smooth="yes"/>
      <point x="473.801" y="442" type="line"/>
      <point x="470.213" y="467.198"/>
      <point x="463.765" y="492.786"/>
      <point x="455.263" y="514.49" type="curve" smooth="yes"/>
      <point x="427.642" y="585" type="line"/>
      <point x="197.5" y="585" type="line" smooth="yes"/>
      <point x="153.381" y="585"/>
      <point x="127" y="611.381"/>
      <point x="127" y="655.5" type="curve" smooth="yes"/>
      <point x="127" y="657.5" type="line" smooth="yes"/>
      <point x="127" y="701.619"/>
      <point x="153.381" y="728"/>
      <point x="197.5" y="728" type="curve" smooth="yes"/>
      <point x="371.626" y="728" type="line"/>
      <point x="59.6791" y="1524.34" type="line" smooth="yes"/>
      <point x="44.018" y="1564.32"/>
      <point x="64.9495" y="1595"/>
      <point x="107.887" y="1595" type="curve" smooth="yes"/>
      <point x="516.113" y="1595" type="line" smooth="yes"/>
      <point x="565.683" y="1595"/>
      <point x="598.819" y="1569.58"/>
      <point x="611.665" y="1521.7" type="curve"/>
    </contour>
  </outline>
</glyph>
<glyph name="brokenbar" format="1">
  <advance width="831"/>
  <unicode hex="00A6"/>
  <outline>
    <contour>
      <point x="206.887" y="656" type="curve" smooth="yes"/>
      <point x="626.113" y="656" type="line" smooth="yes"/>
      <point x="673.603" y="656"/>
      <point x="702" y="627.603"/>
      <point x="702" y="580.113" type="curve" smooth="yes"/>
      <point x="702" y="-179.113" type="line" smooth="yes"/>
      <point x="702" y="-226.603"/>
      <point x="673.603" y="-255"/>
      <point x="626.113" y="-255" type="curve" smooth="yes"/>
      <point x="206.887" y="-255" type="line" smooth="yes"/>
      <point x="159.397" y="-255"/>
      <point x="131" y="-226.603"/>
      <point x="131" y="-179.113" type="curve" smooth="yes"/>
      <point x="131" y="580.113" type="line" smooth="yes"/>
      <point x="131" y="627.603"/>
      <point x="159.397" y="656"/>
    </contour>
    <contour>
      <point x="206.887" y="1708" type="line"/>
      <point x="626.113" y="1708" type="line" smooth="yes"/>
      <point x="673.603" y="1708"/>
      <point x="702" y="1679.6"/>
      <point x="702" y="1632.11" type="curve" smooth="yes"/>
      <point x="702" y="872.887" type="line" smooth="yes"/>
      <point x="702" y="825.397"/>
      <point x="673.603" y="797"/>
      <point x="626.113" y="797" type="curve" smooth="yes"/>
      <point x="206.887" y="797" type="line" smooth="yes"/>
      <point x="159.397" y="797"/>
      <point x="131" y="825.397"/>
      <point x="131" y="872.887" type="curve" smooth="yes"/>
      <point x="131" y="1632.11" type="line" smooth="yes"/>
      <point x="131" y="1679.6"/>
      <point x="159.397" y="1708"/>
      <point x="206.887" y="1708" type="curve"/>
    </contour>
  </outline>
</glyph>
<glyph name="section" format="1">
  <advance width="1362"/>
  <unicode hex="00A7"/>
  <outline>
    <contour>
      <point x="1150.32" y="651.585" type="line"/>
      <point x="1223.68" y="602.83"/>
      <point x="1278" y="524.624"/>
      <point x="1278" y="401" type="curve" smooth="yes"/>
      <point x="1278" y="3.00002"/>
      <point x="1002" y="-40"/>
      <point x="664" y="-40" type="curve" smooth="yes"/>
      <point x="401" y="-40"/>
      <point x="85" y="-18"/>
      <point x="85" y="321" type="curve" smooth="yes"/>
      <point x="85" y="338.961"/>
      <point x="85.2634" y="356.659"/>
      <point x="85.5198" y="374.5" type="curve" smooth="yes"/>
      <point x="85.9879" y="407.072"/>
      <point x="105.19" y="426"/>
      <point x="137.766" y="426" type="curve" smooth="yes"/>
      <point x="561.113" y="426" type="line" smooth="yes"/>
      <point x="608.603" y="426"/>
      <point x="637" y="397.603"/>
      <point x="637" y="350.113" type="curve" smooth="yes"/>
      <point x="637" y="270.5" type="line" smooth="yes"/>
      <point x="637" y="248.284"/>
      <point x="650.284" y="235"/>
      <point x="672.5" y="235" type="curve" smooth="yes"/>
      <point x="674.5" y="235" type="line" smooth="yes"/>
      <point x="696.716" y="235"/>
      <point x="710" y="248.284"/>
      <point x="710" y="270.5" type="curve" smooth="yes"/>
      <point x="710" y="427.404" type="line" smooth="yes"/>
      <point x="710" y="464.699"/>
      <point x="687.699" y="487"/>
      <point x="650.404" y="487" type="curve" smooth="yes"/>
      <point x="455" y="487" type="line" smooth="yes"/>
      <point x="231" y="487"/>
      <point x="73" y="555"/>
      <point x="73" y="783" type="curve" smooth="yes"/>
      <point x="73" y="911.349"/>
      <point x="141.58" y="993.384"/>
      <point x="231.669" y="1032.47" type="curve"/>
      <point x="155.152" y="1001.86" type="line" smooth="yes"/>
      <point x="240.376" y="1035.95"/>
      <point x="242.546" y="1055.33"/>
      <point x="213.24" y="1075.53" type="curve" smooth="yes"/>
      <point x="139.629" y="1126.26"/>
      <point x="88" y="1206.17"/>
      <point x="88" y="1329" type="curve" smooth="yes"/>
      <point x="88" y="1727"/>
      <point x="364" y="1770"/>
      <point x="702" y="1770" type="curve" smooth="yes"/>
      <point x="964" y="1770"/>
      <point x="1283" y="1749"/>
      <point x="1283" y="1411" type="curve" smooth="yes"/>
      <point x="1283" y="1393.04"/>
      <point x="1282.74" y="1375.34"/>
      <point x="1282.48" y="1357.5" type="curve" smooth="yes"/>
      <point x="1282.01" y="1324.93"/>
      <point x="1262.81" y="1306"/>
      <point x="1230.23" y="1306" type="curve" smooth="yes"/>
      <point x="805.887" y="1306" type="line" smooth="yes"/>
      <point x="758.397" y="1306"/>
      <point x="730" y="1334.4"/>
      <point x="730" y="1381.89" type="curve" smooth="yes"/>
      <point x="730" y="1461.5" type="line" smooth="yes"/>
      <point x="730" y="1483.72"/>
      <point x="716.716" y="1497"/>
      <point x="694.5" y="1497" type="curve" smooth="yes"/>
      <point x="692.5" y="1497" type="line" smooth="yes"/>
      <point x="670.284" y="1497"/>
      <point x="657" y="1483.72"/>
      <point x="657" y="1461.5" type="curve" smooth="yes"/>
      <point x="657" y="1293.99" type="line" smooth="yes"/>
      <point x="657" y="1272.46"/>
      <point x="692.758" y="1234.42"/>
      <point x="714.241" y="1233.08" type="curve" smooth="yes"/>
      <point x="735.148" y="1231.78"/>
      <point x="757.758" y="1231.91"/>
      <point x="776" y="1231" type="curve" smooth="yes"/>
      <point x="965" y="1223"/>
      <point x="1294" y="1212"/>
      <point x="1294" y="949" type="curve" smooth="yes"/>
      <point x="1294" y="833.731"/>
      <point x="1241.3" y="761.579"/>
      <point x="1168.73" y="718.986" type="curve" smooth="yes"/>
      <point x="1166.44" y="717.646"/>
      <point x="1166.9" y="716.793"/>
      <point x="1169.29" y="717.926" type="curve" smooth="yes"/>
      <point x="1232.37" y="747.809" type="line" smooth="yes"/>
      <point x="1148.42" y="708.043"/>
      <point x="1145.2" y="654.82"/>
      <point x="1221.55" y="606.601" type="curve" smooth="yes"/>
    </contour>
    <contour>
      <point x="681.5" y="748" type="curve" smooth="yes"/>
      <point x="683.5" y="748" type="line" smooth="yes"/>
      <point x="704.464" y="748"/>
      <point x="717" y="760.536"/>
      <point x="717" y="781.5" type="curve" smooth="yes"/>
      <point x="717" y="937.5" type="line" smooth="yes"/>
      <point x="717" y="958.464"/>
      <point x="704.464" y="971"/>
      <point x="683.5" y="971" type="curve" smooth="yes"/>
      <point x="681.5" y="971" type="line" smooth="yes"/>
      <point x="660.536" y="971"/>
      <point x="648" y="958.464"/>
      <point x="648" y="937.5" type="curve" smooth="yes"/>
      <point x="648" y="781.5" type="line" smooth="yes"/>
      <point x="648" y="760.536"/>
      <point x="660.536" y="748"/>
    </contour>
  </outline>
</glyph>
<glyph name="dieresis" format="1">
  <advance width="1296"/>
  <unicode hex="00A8"/>
  <outline>
    <contour>
      <point x="158.887" y="418" type="curve" smooth="yes"/>
      <point x="457.113" y="418" type="line" smooth="yes"/>
      <point x="504.603" y="418"/>
      <point x="533" y="389.603"/>
      <point x="533" y="342.113" type="curve" smooth="yes"/>
      <point x="533" y="157.887" type="line" smooth="yes"/>
      <point x="533" y="110.397"/>
      <point x="504.603" y="82"/>
      <point x="457.113" y="82" type="curve" smooth="yes"/>
      <point x="158.887" y="82" type="line" smooth="yes"/>
      <point x="111.397" y="82"/>
      <point x="83" y="110.397"/>
      <point x="83" y="157.887" type="curve" smooth="yes"/>
      <point x="83" y="342.113" type="line" smooth="yes"/>
      <point x="83" y="389.603"/>
      <point x="111.397" y="418"/>
    </contour>
    <contour>
      <point x="841.887" y="418" type="line"/>
      <point x="1141.11" y="418" type="line" smooth="yes"/>
      <point x="1188.6" y="418"/>
      <point x="1217" y="389.603"/>
      <point x="1217" y="342.113" type="curve" smooth="yes"/>
      <point x="1217" y="157.887" type="line" smooth="yes"/>
      <point x="1217" y="110.397"/>
      <point x="1188.6" y="82"/>
      <point x="1141.11" y="82" type="curve" smooth="yes"/>
      <point x="841.887" y="82" type="line" smooth="yes"/>
      <point x="794.397" y="82"/>
      <point x="766" y="110.397"/>
      <point x="766" y="157.887" type="curve" smooth="yes"/>
      <point x="766" y="342.113" type="line" smooth="yes"/>
      <point x="766" y="389.603"/>
      <point x="794.397" y="418"/>
      <point x="841.887" y="418" type="curve" smooth="yes"/>
    </contour>
  </outline>
</glyph>
<glyph name="copyright" format="1">
  <advance width="1861"/>
  <unicode hex="00A9"/>
  <outline>
    <contour>
      <point x="1780" y="539" type="line" smooth="yes"/>
      <point x="1780" y="14"/>
      <point x="1377" y="-101"/>
      <point x="932" y="-101" type="curve" smooth="yes"/>
      <point x="421" y="-101"/>
      <point x="84" y="42"/>
      <point x="84" y="539" type="curve" smooth="yes"/>
      <point x="84" y="1116" type="line" smooth="yes"/>
      <point x="84" y="1638"/>
      <point x="490" y="1749"/>
      <point x="932" y="1749" type="curve" smooth="yes"/>
      <point x="1441" y="1749"/>
      <point x="1780" y="1610"/>
      <point x="1780" y="1116" type="curve" smooth="yes"/>
    </contour>
    <contour>
      <point x="932" y="1573" type="curve" smooth="yes"/>
      <point x="520" y="1573"/>
      <point x="323" y="1471"/>
      <point x="323" y="1114" type="curve" smooth="yes"/>
      <point x="323" y="535" type="line" smooth="yes"/>
      <point x="323" y="169"/>
      <point x="523" y="68"/>
      <point x="932" y="68" type="curve" smooth="yes"/>
      <point x="1300" y="68"/>
      <point x="1541" y="156"/>
      <point x="1541" y="482" type="curve" smooth="yes"/>
      <point x="1541" y="1165" type="line" smooth="yes"/>
      <point x="1541" y="1500"/>
      <point x="1275" y="1573"/>
    </contour>
    <contour>
      <point x="835" y="1162.4" type="line"/>
      <point x="835" y="491.596" type="line" smooth="yes"/>
      <point x="835" y="454.301"/>
      <point x="857.301" y="432"/>
      <point x="894.596" y="432" type="curve" smooth="yes"/>
      <point x="974.404" y="432" type="line" smooth="yes"/>
      <point x="1011.7" y="432"/>
      <point x="1034" y="454.301"/>
      <point x="1034" y="491.596" type="curve" smooth="yes"/>
      <point x="1034" y="673.113" type="line" smooth="yes"/>
      <point x="1034" y="720.603"/>
      <point x="1062.4" y="749"/>
      <point x="1109.89" y="749" type="curve" smooth="yes"/>
      <point x="1235.11" y="749" type="line" smooth="yes"/>
      <point x="1282.6" y="749"/>
      <point x="1311" y="720.603"/>
      <point x="1311" y="673.113" type="curve" smooth="yes"/>
      <point x="1311" y="542" type="line" smooth="yes"/>
      <point x="1311" y="312"/>
      <point x="1161" y="272"/>
      <point x="916" y="272" type="curve" smooth="yes"/>
      <point x="701" y="272"/>
      <point x="555" y="315"/>
      <point x="555" y="547" type="curve" smooth="yes"/>
      <point x="555" y="1107" type="line" smooth="yes"/>
      <point x="555" y="1334"/>
      <point x="687" y="1381"/>
      <point x="916" y="1381" type="curve" smooth="yes"/>
      <point x="1113" y="1381"/>
      <point x="1311" y="1366"/>
      <point x="1311" y="1111" type="curve" smooth="yes"/>
      <point x="1311" y="988.887" type="line" smooth="yes"/>
      <point x="1311" y="941.397"/>
      <point x="1282.6" y="913"/>
      <point x="1235.11" y="913" type="curve" smooth="yes"/>
      <point x="1109.89" y="913" type="line" smooth="yes"/>
      <point x="1062.4" y="913"/>
      <point x="1034" y="941.397"/>
      <point x="1034" y="988.887" type="curve" smooth="yes"/>
      <point x="1034" y="1162.4" type="line" smooth="yes"/>
      <point x="1034" y="1199.7"/>
      <point x="1011.7" y="1222"/>
      <point x="974.404" y="1222" type="curve" smooth="yes"/>
      <point x="894.596" y="1222" type="line" smooth="yes"/>
      <point x="857.301" y="1222"/>
      <point x="835" y="1199.7"/>
      <point x="835" y="1162.4" type="curve" smooth="yes"/>
    </contour>
  </outline>
</glyph>
